<svg width="347" height="347" viewBox="0 0 347 347" fill="none" xmlns="http://www.w3.org/2000/svg">
<path d="M173.5 347C77.7971 347 0 269.203 0 173.5C0 77.7971 77.7971 0 173.5 0C269.203 0 347 77.7971 347 173.5C347 269.203 269.203 347 173.5 347ZM173.5 2.22278C79.032 2.22278 2.22278 79.032 2.22278 173.5C2.22278 267.968 79.032 344.777 173.5 344.777C267.968 344.777 344.777 267.968 344.777 173.5C344.777 79.032 267.968 2.22278 173.5 2.22278Z" fill="#3E54EB" fill-opacity="0.05"/>
<path d="M173.5 326.131C89.4049 326.131 20.8693 257.718 20.8693 173.5C20.8693 89.405 89.2814 20.8694 173.5 20.8694C257.718 20.8694 326.13 89.2815 326.13 173.5C326.13 257.718 257.595 326.131 173.5 326.131ZM173.5 23.0922C90.6397 23.0922 23.092 90.5164 23.092 173.5C23.092 256.36 90.5163 323.908 173.5 323.908C256.484 323.908 323.908 256.484 323.908 173.5C323.908 90.6398 256.36 23.0922 173.5 23.0922Z" fill="#3E54EB" fill-opacity="0.05"/>
<path d="M173.5 305.261C100.889 305.261 41.8622 246.111 41.8622 173.5C41.8622 100.889 100.889 41.8623 173.5 41.8623C246.111 41.8623 305.138 100.889 305.138 173.5C305.138 246.111 246.111 305.261 173.5 305.261ZM173.5 44.0851C102.124 44.0851 44.085 102.124 44.085 173.5C44.085 244.876 102.124 302.915 173.5 302.915C244.876 302.915 302.915 244.876 302.915 173.5C302.915 102.124 244.876 44.0851 173.5 44.0851Z" fill="#3E54EB" fill-opacity="0.05"/>
<path d="M173.5 284.268C112.373 284.268 62.7314 234.626 62.7314 173.5C62.7314 112.374 112.373 62.7317 173.5 62.7317C234.626 62.7317 284.268 112.374 284.268 173.5C284.268 234.626 234.626 284.268 173.5 284.268ZM173.5 64.9545C113.608 64.9545 64.9542 113.609 64.9542 173.5C64.9542 233.391 113.608 282.046 173.5 282.046C233.391 282.046 282.045 233.391 282.045 173.5C282.045 113.609 233.391 64.9545 173.5 64.9545Z" fill="#3E54EB" fill-opacity="0.05"/>
<path d="M173.5 263.399C123.982 263.399 83.6016 223.142 83.6016 173.5C83.6016 123.858 123.859 83.6011 173.5 83.6011C223.142 83.6011 263.399 123.858 263.399 173.5C263.399 223.142 223.019 263.399 173.5 263.399ZM173.5 85.9473C125.217 85.9473 85.8243 125.216 85.8243 173.624C85.8243 222.031 125.093 261.3 173.5 261.3C221.908 261.3 261.177 222.031 261.177 173.624C261.177 125.216 221.784 85.9473 173.5 85.9473Z" fill="#3E54EB" fill-opacity="0.05"/>
<path d="M173.501 242.406C135.466 242.406 104.594 211.534 104.594 173.5C104.594 135.466 135.466 104.594 173.501 104.594C211.535 104.594 242.407 135.466 242.407 173.5C242.407 211.534 211.535 242.406 173.501 242.406ZM173.501 106.817C136.701 106.817 106.817 136.701 106.817 173.5C106.817 210.299 136.701 240.183 173.501 240.183C210.3 240.183 240.184 210.299 240.184 173.5C240.184 136.701 210.3 106.817 173.501 106.817Z" fill="#3E54EB" fill-opacity="0.05"/>
<path d="M173.5 221.537C147.074 221.537 125.463 200.05 125.463 173.5C125.463 146.95 146.95 125.464 173.5 125.464C200.05 125.464 221.537 146.95 221.537 173.5C221.537 200.05 199.926 221.537 173.5 221.537ZM173.5 127.686C148.309 127.686 127.686 148.185 127.686 173.5C127.686 198.815 148.185 219.314 173.5 219.314C198.815 219.314 219.314 198.815 219.314 173.5C219.314 148.185 198.815 127.686 173.5 127.686Z" fill="#3E54EB" fill-opacity="0.05"/>
<path d="M173.5 200.667C158.558 200.667 146.333 188.566 146.333 173.5C146.333 158.435 158.434 146.333 173.5 146.333C188.565 146.333 200.667 158.435 200.667 173.5C200.667 188.566 188.442 200.667 173.5 200.667ZM173.5 148.679C159.793 148.679 148.679 159.793 148.679 173.5C148.679 187.207 159.793 198.321 173.5 198.321C187.207 198.321 198.321 187.207 198.321 173.5C198.321 159.793 187.207 148.679 173.5 148.679Z" fill="#3E54EB" fill-opacity="0.05"/>
</svg>
