<svg width="103" height="201" viewBox="0 0 103 201" fill="none" xmlns="http://www.w3.org/2000/svg">
<path d="M102.232 62.726C102.232 60.4735 100.326 58.5674 98.0734 58.5674C95.8208 58.5674 93.9148 60.4735 93.9148 62.726C93.9148 64.9786 95.8208 66.8846 98.0734 66.8846C100.326 66.8846 102.232 64.9786 102.232 62.726Z" fill="#3E54EB" fill-opacity="0.2"/>
<path d="M102.232 43.4926C102.232 41.24 100.326 39.334 98.0734 39.334C95.8208 39.334 93.9148 41.24 93.9148 43.4926C93.9148 45.7452 95.8208 47.6512 98.0734 47.6512C100.326 47.8245 102.232 45.9184 102.232 43.4926Z" fill="#3E54EB" fill-opacity="0.2"/>
<path d="M102.232 24.432C102.232 22.1795 100.326 20.2734 98.0734 20.2734C95.8208 20.2734 93.9148 22.1795 93.9148 24.432C93.9148 26.6846 95.8208 28.5906 98.0734 28.5906C100.326 28.5906 102.232 26.6846 102.232 24.432Z" fill="#3E54EB" fill-opacity="0.2"/>
<path d="M82.3054 62.726C82.3054 60.4735 80.3993 58.5674 78.1468 58.5674C75.8942 58.5674 73.9882 60.4735 73.9882 62.726C73.9882 64.9786 75.8942 66.8846 78.1468 66.8846C80.3993 66.8846 82.3054 64.9786 82.3054 62.726Z" fill="#3E54EB" fill-opacity="0.2"/>
<path d="M82.3054 43.4926C82.3054 41.24 80.3993 39.334 78.1468 39.334C75.8942 39.334 73.9882 41.24 73.9882 43.4926C73.9882 45.7452 75.8942 47.6512 78.1468 47.6512C80.3993 47.6512 82.3054 45.9184 82.3054 43.4926Z" fill="#3E54EB" fill-opacity="0.2"/>
<path d="M82.3054 24.432C82.3054 22.1795 80.3993 20.2734 78.1468 20.2734C75.8942 20.2734 73.9882 22.1795 73.9882 24.432C73.9882 26.6846 75.8942 28.5906 78.1468 28.5906C80.3993 28.5906 82.3054 26.6846 82.3054 24.432Z" fill="#3E54EB" fill-opacity="0.2"/>
<path d="M58.2199 66.8846C60.5166 66.8846 62.3785 65.0228 62.3785 62.726C62.3785 60.4293 60.5166 58.5674 58.2199 58.5674C55.9231 58.5674 54.0613 60.4293 54.0613 62.726C54.0613 65.0228 55.9231 66.8846 58.2199 66.8846Z" fill="#3E54EB" fill-opacity="0.2"/>
<path d="M58.2199 47.6512C60.5166 47.6512 62.3785 45.7893 62.3785 43.4926C62.3785 41.1958 60.5166 39.334 58.2199 39.334C55.9231 39.334 54.0613 41.1958 54.0613 43.4926C54.0613 45.7893 55.9231 47.6512 58.2199 47.6512Z" fill="#3E54EB" fill-opacity="0.2"/>
<path d="M58.2199 28.5906C60.5166 28.5906 62.3785 26.7288 62.3785 24.432C62.3785 22.1353 60.5166 20.2734 58.2199 20.2734C55.9231 20.2734 54.0613 22.1353 54.0613 24.432C54.0613 26.7288 55.9231 28.5906 58.2199 28.5906Z" fill="#3E54EB" fill-opacity="0.2"/>
<path d="M42.6254 62.726C42.6254 60.4735 40.7194 58.5674 38.4668 58.5674C36.2142 58.5674 34.3082 60.4735 34.3082 62.726C34.3082 64.9786 36.2142 66.8846 38.4668 66.8846C40.7194 66.8846 42.6254 64.9786 42.6254 62.726Z" fill="#3E54EB" fill-opacity="0.2"/>
<path d="M42.6254 43.4926C42.6254 41.24 40.7194 39.334 38.4668 39.334C36.2142 39.334 34.3082 41.24 34.3082 43.4926C34.3082 45.7452 36.2142 47.6512 38.4668 47.6512C40.7194 47.6512 42.6254 45.9184 42.6254 43.4926Z" fill="#3E54EB" fill-opacity="0.2"/>
<path d="M42.6254 24.432C42.6254 22.1795 40.7194 20.2734 38.4668 20.2734C36.2142 20.2734 34.3082 22.1795 34.3082 24.432C34.3082 26.6846 36.2142 28.5906 38.4668 28.5906C40.7194 28.5906 42.6254 26.6846 42.6254 24.432Z" fill="#3E54EB" fill-opacity="0.2"/>
<path d="M22.6986 62.726C22.6986 60.4735 20.7925 58.5674 18.54 58.5674C16.2874 58.5674 14.3813 60.4735 14.3813 62.726C14.3813 64.9786 16.2874 66.8846 18.54 66.8846C20.7925 66.8846 22.6986 64.9786 22.6986 62.726Z" fill="#3E54EB" fill-opacity="0.2"/>
<path d="M22.6986 43.4926C22.6986 41.24 20.7925 39.334 18.54 39.334C16.2874 39.334 14.3813 41.24 14.3813 43.4926C14.3813 45.7452 16.2874 47.6512 18.54 47.6512C20.7925 47.8245 22.6986 45.9184 22.6986 43.4926Z" fill="#3E54EB" fill-opacity="0.2"/>
<path d="M22.6989 24.432C22.6989 22.1795 20.7929 20.2734 18.5403 20.2734C16.2877 20.2734 14.3817 22.1795 14.3817 24.432C14.3817 26.6846 16.2877 28.5906 18.5403 28.5906C20.7929 28.5906 22.6989 26.6846 22.6989 24.432Z" fill="#3E54EB" fill-opacity="0.2"/>
<path d="M93.7412 196.841C93.7412 199.094 95.6473 201 97.8999 201C100.152 201 102.058 199.094 102.058 196.841C102.058 194.589 100.152 192.683 97.8999 192.683C95.6473 192.683 93.7412 194.415 93.7412 196.841Z" fill="#3E54EB" fill-opacity="0.2"/>
<path d="M102.232 177.608C102.232 175.355 100.326 173.449 98.0734 173.449C95.8208 173.449 93.9148 175.355 93.9148 177.608C93.9148 179.86 95.8208 181.766 98.0734 181.766C100.326 181.766 102.232 180.034 102.232 177.608Z" fill="#3E54EB" fill-opacity="0.2"/>
<path d="M102.232 158.547C102.232 156.295 100.326 154.389 98.0734 154.389C95.8208 154.389 93.9148 156.295 93.9148 158.547C93.9148 160.8 95.8208 162.706 98.0734 162.706C100.326 162.706 102.232 160.8 102.232 158.547Z" fill="#3E54EB" fill-opacity="0.2"/>
<path d="M102.232 139.313C102.232 137.061 100.326 135.155 98.0734 135.155C95.8208 135.155 93.9148 137.061 93.9148 139.313C93.9148 141.566 95.8208 143.472 98.0734 143.472C100.326 143.472 102.232 141.739 102.232 139.313Z" fill="#3E54EB" fill-opacity="0.2"/>
<path d="M102.232 120.253C102.232 118.001 100.326 116.095 98.0734 116.095C95.8208 116.095 93.9148 118.001 93.9148 120.253C93.9148 122.506 95.8208 124.412 98.0734 124.412C100.326 124.412 102.232 122.506 102.232 120.253Z" fill="#3E54EB" fill-opacity="0.2"/>
<path d="M102.232 101.02C102.232 98.7678 100.326 96.8618 98.0734 96.8618C95.8208 96.8618 93.9148 98.7678 93.9148 101.02C93.9148 103.273 95.8208 105.179 98.0734 105.179C100.326 105.179 102.232 103.273 102.232 101.02Z" fill="#3E54EB" fill-opacity="0.2"/>
<path d="M102.232 81.7866C102.232 79.534 100.326 77.6279 98.0734 77.6279C95.8208 77.6279 93.9148 79.534 93.9148 81.7866C93.9148 84.0392 95.8208 85.9452 98.0734 85.9452C100.326 86.1185 102.232 84.2124 102.232 81.7866Z" fill="#3E54EB" fill-opacity="0.2"/>
<path d="M82.3054 196.841C82.3054 194.589 80.3993 192.683 78.1468 192.683C75.8942 192.683 73.9882 194.589 73.9882 196.841C73.9882 199.094 75.8942 201 78.1468 201C80.3993 201 82.3054 199.094 82.3054 196.841Z" fill="#3E54EB" fill-opacity="0.2"/>
<path d="M82.3054 177.608C82.3054 175.355 80.3993 173.449 78.1468 173.449C75.8942 173.449 73.9882 175.355 73.9882 177.608C73.9882 179.86 75.8942 181.766 78.1468 181.766C80.3993 181.766 82.3054 180.034 82.3054 177.608Z" fill="#3E54EB" fill-opacity="0.2"/>
<path d="M82.3054 158.547C82.3054 156.295 80.3993 154.389 78.1468 154.389C75.8942 154.389 73.9882 156.295 73.9882 158.547C73.9882 160.8 75.8942 162.706 78.1468 162.706C80.3993 162.706 82.3054 160.8 82.3054 158.547Z" fill="#3E54EB" fill-opacity="0.2"/>
<path d="M82.3054 139.313C82.3054 137.061 80.3993 135.155 78.1468 135.155C75.8942 135.155 73.9882 137.061 73.9882 139.313C73.9882 141.566 75.8942 143.472 78.1468 143.472C80.3993 143.472 82.3054 141.739 82.3054 139.313Z" fill="#3E54EB" fill-opacity="0.2"/>
<path d="M82.3054 120.253C82.3054 118.001 80.3993 116.095 78.1468 116.095C75.8942 116.095 73.9882 118.001 73.9882 120.253C73.9882 122.506 75.8942 124.412 78.1468 124.412C80.3993 124.412 82.3054 122.506 82.3054 120.253Z" fill="#3E54EB" fill-opacity="0.2"/>
<path d="M82.3054 101.02C82.3054 98.7678 80.3993 96.8618 78.1468 96.8618C75.8942 96.8618 73.9882 98.7678 73.9882 101.02C73.9882 103.273 75.8942 105.179 78.1468 105.179C80.3993 105.179 82.3054 103.273 82.3054 101.02Z" fill="#3E54EB" fill-opacity="0.2"/>
<path d="M82.3054 81.7866C82.3054 79.534 80.3993 77.6279 78.1468 77.6279C75.8942 77.6279 73.9882 79.534 73.9882 81.7866C73.9882 84.0392 75.8942 85.9452 78.1468 85.9452C80.3993 85.9452 82.3054 84.2124 82.3054 81.7866Z" fill="#3E54EB" fill-opacity="0.2"/>
<path d="M62.3785 196.841C62.3785 194.589 60.4725 192.683 58.2199 192.683C55.9673 192.683 54.0613 194.589 54.0613 196.841C54.0613 199.094 55.9673 201 58.2199 201C60.4725 201 62.3785 199.094 62.3785 196.841Z" fill="#3E54EB" fill-opacity="0.2"/>
<path d="M62.3785 177.608C62.3785 175.355 60.4725 173.449 58.2199 173.449C55.9673 173.449 54.0613 175.355 54.0613 177.608C54.0613 179.86 55.9673 181.766 58.2199 181.766C60.4725 181.766 62.3785 180.034 62.3785 177.608Z" fill="#3E54EB" fill-opacity="0.2"/>
<path d="M62.3785 158.547C62.3785 156.295 60.4725 154.389 58.2199 154.389C55.9673 154.389 54.0613 156.295 54.0613 158.547C54.0613 160.8 55.9673 162.706 58.2199 162.706C60.4725 162.706 62.3785 160.8 62.3785 158.547Z" fill="#3E54EB" fill-opacity="0.2"/>
<path d="M62.3785 139.313C62.3785 137.061 60.4725 135.155 58.2199 135.155C55.9673 135.155 54.0613 137.061 54.0613 139.313C54.0613 141.566 55.9673 143.472 58.2199 143.472C60.4725 143.472 62.3785 141.739 62.3785 139.313Z" fill="#3E54EB" fill-opacity="0.2"/>
<path d="M58.2199 124.412C60.5166 124.412 62.3785 122.55 62.3785 120.253C62.3785 117.957 60.5166 116.095 58.2199 116.095C55.9231 116.095 54.0613 117.957 54.0613 120.253C54.0613 122.55 55.9231 124.412 58.2199 124.412Z" fill="#3E54EB" fill-opacity="0.2"/>
<path d="M62.3785 101.02C62.3785 98.7678 60.4725 96.8618 58.2199 96.8618C55.9673 96.8618 54.0613 98.7678 54.0613 101.02C54.0613 103.273 55.9673 105.179 58.2199 105.179C60.4725 105.179 62.3785 103.273 62.3785 101.02Z" fill="#3E54EB" fill-opacity="0.2"/>
<path d="M62.3785 81.7866C62.3785 79.534 60.4725 77.6279 58.2199 77.6279C55.9673 77.6279 54.0613 79.534 54.0613 81.7866C54.0613 84.0392 55.9673 85.9452 58.2199 85.9452C60.4725 86.1185 62.3785 84.2124 62.3785 81.7866Z" fill="#3E54EB" fill-opacity="0.2"/>
<path d="M42.6254 196.841C42.6254 194.589 40.7194 192.683 38.4668 192.683C36.2142 192.683 34.3082 194.589 34.3082 196.841C34.3082 199.094 36.2142 201 38.4668 201C40.7194 201 42.6254 199.094 42.6254 196.841Z" fill="#3E54EB" fill-opacity="0.2"/>
<path d="M42.6254 177.608C42.6254 175.355 40.7194 173.449 38.4668 173.449C36.2142 173.449 34.3082 175.355 34.3082 177.608C34.3082 179.86 36.2142 181.766 38.4668 181.766C40.7194 181.766 42.6254 180.034 42.6254 177.608Z" fill="#3E54EB" fill-opacity="0.2"/>
<path d="M42.6254 158.547C42.6254 156.295 40.7194 154.389 38.4668 154.389C36.2142 154.389 34.3082 156.295 34.3082 158.547C34.3082 160.8 36.2142 162.706 38.4668 162.706C40.7194 162.706 42.6254 160.8 42.6254 158.547Z" fill="#3E54EB" fill-opacity="0.2"/>
<path d="M42.6254 139.313C42.6254 137.061 40.7194 135.155 38.4668 135.155C36.2142 135.155 34.3082 137.061 34.3082 139.313C34.3082 141.566 36.2142 143.472 38.4668 143.472C40.7194 143.472 42.6254 141.739 42.6254 139.313Z" fill="#3E54EB" fill-opacity="0.2"/>
<path d="M42.6254 120.253C42.6254 118.001 40.7194 116.095 38.4668 116.095C36.2142 116.095 34.3082 118.001 34.3082 120.253C34.3082 122.506 36.2142 124.412 38.4668 124.412C40.7194 124.412 42.6254 122.506 42.6254 120.253Z" fill="#3E54EB" fill-opacity="0.2"/>
<path d="M42.6254 101.02C42.6254 98.7678 40.7194 96.8618 38.4668 96.8618C36.2142 96.8618 34.3082 98.7678 34.3082 101.02C34.3082 103.273 36.2142 105.179 38.4668 105.179C40.7194 105.179 42.6254 103.273 42.6254 101.02Z" fill="#3E54EB" fill-opacity="0.2"/>
<path d="M42.6254 81.7866C42.6254 79.534 40.7194 77.6279 38.4668 77.6279C36.2142 77.6279 34.3082 79.534 34.3082 81.7866C34.3082 84.0392 36.2142 85.9452 38.4668 85.9452C40.7194 85.9452 42.6254 84.2124 42.6254 81.7866Z" fill="#3E54EB" fill-opacity="0.2"/>
<path d="M22.6986 196.841C22.6986 194.589 20.7925 192.683 18.54 192.683C16.2874 192.683 14.3813 194.589 14.3813 196.841C14.3813 199.094 16.2874 201 18.54 201C20.7925 201 22.6986 199.094 22.6986 196.841Z" fill="#3E54EB" fill-opacity="0.2"/>
<path d="M22.6986 177.608C22.6986 175.355 20.7925 173.449 18.54 173.449C16.2874 173.449 14.3813 175.355 14.3813 177.608C14.3813 179.86 16.2874 181.766 18.54 181.766C20.7925 181.766 22.6986 180.034 22.6986 177.608Z" fill="#3E54EB" fill-opacity="0.2"/>
<path d="M22.6986 158.547C22.6986 156.295 20.7925 154.389 18.54 154.389C16.2874 154.389 14.3813 156.295 14.3813 158.547C14.3813 160.8 16.2874 162.706 18.54 162.706C20.7925 162.706 22.6986 160.8 22.6986 158.547Z" fill="#3E54EB" fill-opacity="0.2"/>
<path d="M22.6986 139.313C22.6986 137.061 20.7925 135.155 18.54 135.155C16.2874 135.155 14.3813 137.061 14.3813 139.313C14.3813 141.566 16.2874 143.472 18.54 143.472C20.7925 143.472 22.6986 141.739 22.6986 139.313Z" fill="#3E54EB" fill-opacity="0.2"/>
<path d="M22.6986 120.253C22.6986 118.001 20.7925 116.095 18.54 116.095C16.2874 116.095 14.3813 118.001 14.3813 120.253C14.3813 122.506 16.2874 124.412 18.54 124.412C20.7925 124.412 22.6986 122.506 22.6986 120.253Z" fill="#3E54EB" fill-opacity="0.2"/>
<path d="M22.6986 101.02C22.6986 98.7678 20.7925 96.8618 18.54 96.8618C16.2874 96.8618 14.3813 98.7678 14.3813 101.02C14.3813 103.273 16.2874 105.179 18.54 105.179C20.7925 105.179 22.6986 103.273 22.6986 101.02Z" fill="#3E54EB" fill-opacity="0.2"/>
<path d="M22.6986 81.7866C22.6986 79.534 20.7925 77.6279 18.54 77.6279C16.2874 77.6279 14.3813 79.534 14.3813 81.7866C14.3813 84.0392 16.2874 85.9452 18.54 85.9452C20.7925 86.1185 22.6986 84.2124 22.6986 81.7866Z" fill="#3E54EB" fill-opacity="0.2"/>
<path d="M87.6771 42.4525C87.6771 40.2 85.771 38.2939 83.5185 38.2939C81.2659 38.2939 79.3599 40.2 79.3599 42.4525C79.3599 44.7051 81.2659 46.6112 83.5185 46.6112C85.771 46.6112 87.6771 44.7051 87.6771 42.4525Z" fill="#3E54EB"/>
<path d="M87.6771 23.2192C87.6771 20.9666 85.771 19.0605 83.5185 19.0605C81.2659 19.0605 79.3599 20.9666 79.3599 23.2192C79.3599 25.4717 81.2659 27.3778 83.5185 27.3778C85.771 27.3778 87.6771 25.645 87.6771 23.2192Z" fill="#3E54EB"/>
<path d="M87.6771 4.1586C87.6771 1.90602 85.771 0 83.5185 0C81.2659 0 79.3599 1.90602 79.3599 4.1586C79.3599 6.41119 81.2659 8.31721 83.5185 8.31721C85.771 8.31721 87.6771 6.41119 87.6771 4.1586Z" fill="#3E54EB"/>
<path d="M67.7504 42.4525C67.7504 40.2 65.8444 38.2939 63.5918 38.2939C61.3392 38.2939 59.4332 40.2 59.4332 42.4525C59.4332 44.7051 61.3392 46.6112 63.5918 46.6112C65.8444 46.6112 67.7504 44.7051 67.7504 42.4525Z" fill="#3E54EB"/>
<path d="M67.7504 23.2192C67.7504 20.9666 65.8444 19.0605 63.5918 19.0605C61.3392 19.0605 59.4332 20.9666 59.4332 23.2192C59.4332 25.4717 61.3392 27.3778 63.5918 27.3778C65.8444 27.3778 67.7504 25.645 67.7504 23.2192Z" fill="#3E54EB"/>
<path d="M67.7504 4.1586C67.7504 1.90602 65.8444 0 63.5918 0C61.3392 0 59.4332 1.90602 59.4332 4.1586C59.4332 6.41119 61.3392 8.31721 63.5918 8.31721C65.8444 8.31721 67.7504 6.41119 67.7504 4.1586Z" fill="#3E54EB"/>
<path d="M47.9971 42.4525C47.9971 40.2 46.0911 38.2939 43.8385 38.2939C41.586 38.2939 39.6799 40.2 39.6799 42.4525C39.6799 44.7051 41.586 46.6112 43.8385 46.6112C46.0911 46.6112 47.9971 44.7051 47.9971 42.4525Z" fill="#3E54EB"/>
<path d="M47.9971 23.2192C47.9971 20.9666 46.0911 19.0605 43.8385 19.0605C41.586 19.0605 39.6799 20.9666 39.6799 23.2192C39.6799 25.4717 41.586 27.3778 43.8385 27.3778C46.0911 27.3778 47.9971 25.645 47.9971 23.2192Z" fill="#3E54EB"/>
<path d="M47.9971 4.1586C47.9971 1.90602 46.0911 0 43.8385 0C41.586 0 39.6799 1.90602 39.6799 4.1586C39.6799 6.41119 41.586 8.31721 43.8385 8.31721C46.0911 8.31721 47.9971 6.41119 47.9971 4.1586Z" fill="#3E54EB"/>
<path d="M28.0705 42.4525C28.0705 40.2 26.1645 38.2939 23.9119 38.2939C21.6593 38.2939 19.7533 40.2 19.7533 42.4525C19.7533 44.7051 21.6593 46.6112 23.9119 46.6112C26.1645 46.6112 28.0705 44.7051 28.0705 42.4525Z" fill="#3E54EB"/>
<path d="M28.0705 23.2192C28.0705 20.9666 26.1645 19.0605 23.9119 19.0605C21.6593 19.0605 19.7533 20.9666 19.7533 23.2192C19.7533 25.4717 21.6593 27.3778 23.9119 27.3778C26.1645 27.3778 28.0705 25.645 28.0705 23.2192Z" fill="#3E54EB"/>
<path d="M28.0705 4.1586C28.0705 1.90602 26.1645 0 23.9119 0C21.6593 0 19.7533 1.90602 19.7533 4.1586C19.7533 6.41119 21.6593 8.31721 23.9119 8.31721C26.1645 8.31721 28.0705 6.41119 28.0705 4.1586Z" fill="#3E54EB"/>
<path d="M8.31721 42.4525C8.31721 40.2 6.41119 38.2939 4.1586 38.2939C1.90602 38.2939 0 40.2 0 42.4525C0 44.7051 1.90602 46.6112 4.1586 46.6112C6.41119 46.6112 8.31721 44.7051 8.31721 42.4525Z" fill="#3E54EB"/>
<path d="M8.31721 23.2192C8.31721 20.9666 6.41119 19.0605 4.1586 19.0605C1.90602 19.0605 0 20.9666 0 23.2192C0 25.4717 1.90602 27.3778 4.1586 27.3778C6.41119 27.3778 8.31721 25.645 8.31721 23.2192Z" fill="#3E54EB"/>
<path d="M8.31721 4.1586C8.31721 1.90602 6.41119 0 4.1586 0C1.90602 0 0 1.90602 0 4.1586C0 6.41119 1.90602 8.31721 4.1586 8.31721C6.41119 8.31721 8.31721 6.41119 8.31721 4.1586Z" fill="#3E54EB"/>
<path d="M79.1873 176.568C79.1873 178.82 81.0933 180.726 83.3459 180.726C85.5984 180.726 87.5045 178.82 87.5045 176.568C87.5045 174.315 85.5984 172.409 83.3459 172.409C81.0933 172.409 79.1873 174.142 79.1873 176.568Z" fill="#3E54EB"/>
<path d="M83.5185 161.493C85.8152 161.493 87.6771 159.631 87.6771 157.334C87.6771 155.037 85.8152 153.175 83.5185 153.175C81.2217 153.175 79.3599 155.037 79.3599 157.334C79.3599 159.631 81.2217 161.493 83.5185 161.493Z" fill="#3E54EB"/>
<path d="M87.6771 138.274C87.6771 136.021 85.771 134.115 83.5185 134.115C81.2659 134.115 79.3599 136.021 79.3599 138.274C79.3599 140.526 81.2659 142.432 83.5185 142.432C85.771 142.432 87.6771 140.526 87.6771 138.274Z" fill="#3E54EB"/>
<path d="M83.5185 123.199C85.8152 123.199 87.6771 121.337 87.6771 119.04C87.6771 116.743 85.8152 114.881 83.5185 114.881C81.2217 114.881 79.3599 116.743 79.3599 119.04C79.3599 121.337 81.2217 123.199 83.5185 123.199Z" fill="#3E54EB"/>
<path d="M83.5185 103.966C85.8152 103.966 87.6771 102.104 87.6771 99.807C87.6771 97.5103 85.8152 95.6484 83.5185 95.6484C81.2217 95.6484 79.3599 97.5103 79.3599 99.807C79.3599 102.104 81.2217 103.966 83.5185 103.966Z" fill="#3E54EB"/>
<path d="M87.6771 80.7465C87.6771 78.4939 85.771 76.5879 83.5185 76.5879C81.2659 76.5879 79.3599 78.4939 79.3599 80.7465C79.3599 82.9991 81.2659 84.9051 83.5185 84.9051C85.771 84.9051 87.6771 82.9991 87.6771 80.7465Z" fill="#3E54EB"/>
<path d="M83.5185 65.6717C85.8152 65.6717 87.6771 63.8098 87.6771 61.5131C87.6771 59.2164 85.8152 57.3545 83.5185 57.3545C81.2217 57.3545 79.3599 59.2164 79.3599 61.5131C79.3599 63.8098 81.2217 65.6717 83.5185 65.6717Z" fill="#3E54EB"/>
<path d="M67.7504 176.568C67.7504 174.315 65.8444 172.409 63.5918 172.409C61.3392 172.409 59.4332 174.315 59.4332 176.568C59.4332 178.82 61.3392 180.726 63.5918 180.726C65.8444 180.726 67.7504 178.82 67.7504 176.568Z" fill="#3E54EB"/>
<path d="M63.5918 161.493C65.8886 161.493 67.7504 159.631 67.7504 157.334C67.7504 155.037 65.8886 153.175 63.5918 153.175C61.2951 153.175 59.4332 155.037 59.4332 157.334C59.4332 159.631 61.2951 161.493 63.5918 161.493Z" fill="#3E54EB"/>
<path d="M67.7504 138.274C67.7504 136.021 65.8444 134.115 63.5918 134.115C61.3392 134.115 59.4332 136.021 59.4332 138.274C59.4332 140.526 61.3392 142.432 63.5918 142.432C65.8444 142.432 67.7504 140.526 67.7504 138.274Z" fill="#3E54EB"/>
<path d="M63.5918 123.199C65.8886 123.199 67.7504 121.337 67.7504 119.04C67.7504 116.743 65.8886 114.881 63.5918 114.881C61.2951 114.881 59.4332 116.743 59.4332 119.04C59.4332 121.337 61.2951 123.199 63.5918 123.199Z" fill="#3E54EB"/>
<path d="M63.5918 103.966C65.8886 103.966 67.7504 102.104 67.7504 99.807C67.7504 97.5103 65.8886 95.6484 63.5918 95.6484C61.2951 95.6484 59.4332 97.5103 59.4332 99.807C59.4332 102.104 61.2951 103.966 63.5918 103.966Z" fill="#3E54EB"/>
<path d="M67.7504 80.7465C67.7504 78.4939 65.8444 76.5879 63.5918 76.5879C61.3392 76.5879 59.4332 78.4939 59.4332 80.7465C59.4332 82.9991 61.3392 84.9051 63.5918 84.9051C65.8444 84.9051 67.7504 82.9991 67.7504 80.7465Z" fill="#3E54EB"/>
<path d="M63.5918 65.6717C65.8886 65.6717 67.7504 63.8098 67.7504 61.5131C67.7504 59.2164 65.8886 57.3545 63.5918 57.3545C61.2951 57.3545 59.4332 59.2164 59.4332 61.5131C59.4332 63.8098 61.2951 65.6717 63.5918 65.6717Z" fill="#3E54EB"/>
<path d="M47.9971 176.568C47.9971 174.315 46.0911 172.409 43.8385 172.409C41.586 172.409 39.6799 174.315 39.6799 176.568C39.6799 178.82 41.586 180.726 43.8385 180.726C46.0911 180.726 47.9971 178.82 47.9971 176.568Z" fill="#3E54EB"/>
<path d="M47.9971 157.334C47.9971 155.081 46.0911 153.175 43.8385 153.175C41.586 153.175 39.6799 155.081 39.6799 157.334C39.6799 159.586 41.586 161.493 43.8385 161.493C46.0911 161.493 47.9971 159.76 47.9971 157.334Z" fill="#3E54EB"/>
<path d="M47.9971 138.274C47.9971 136.021 46.0911 134.115 43.8385 134.115C41.586 134.115 39.6799 136.021 39.6799 138.274C39.6799 140.526 41.586 142.432 43.8385 142.432C46.0911 142.432 47.9971 140.526 47.9971 138.274Z" fill="#3E54EB"/>
<path d="M47.9971 119.04C47.9971 116.787 46.0911 114.881 43.8385 114.881C41.586 114.881 39.6799 116.787 39.6799 119.04C39.6799 121.293 41.586 123.199 43.8385 123.199C46.0911 123.199 47.9971 121.293 47.9971 119.04Z" fill="#3E54EB"/>
<path d="M47.9971 99.807C47.9971 97.5545 46.0911 95.6484 43.8385 95.6484C41.586 95.6484 39.6799 97.5545 39.6799 99.807C39.6799 102.06 41.586 103.966 43.8385 103.966C46.0911 104.139 47.9971 102.233 47.9971 99.807Z" fill="#3E54EB"/>
<path d="M47.9971 80.7465C47.9971 78.4939 46.0911 76.5879 43.8385 76.5879C41.586 76.5879 39.6799 78.4939 39.6799 80.7465C39.6799 82.9991 41.586 84.9051 43.8385 84.9051C46.0911 84.9051 47.9971 82.9991 47.9971 80.7465Z" fill="#3E54EB"/>
<path d="M47.9971 61.5131C47.9971 59.2605 46.0911 57.3545 43.8385 57.3545C41.586 57.3545 39.6799 59.2605 39.6799 61.5131C39.6799 63.7657 41.586 65.6717 43.8385 65.6717C46.0911 65.845 47.9971 63.939 47.9971 61.5131Z" fill="#3E54EB"/>
<path d="M28.0705 176.568C28.0705 174.315 26.1645 172.409 23.9119 172.409C21.6593 172.409 19.7533 174.315 19.7533 176.568C19.7533 178.82 21.6593 180.726 23.9119 180.726C26.1645 180.726 28.0705 178.82 28.0705 176.568Z" fill="#3E54EB"/>
<path d="M28.0705 157.334C28.0705 155.081 26.1645 153.175 23.9119 153.175C21.6593 153.175 19.7533 155.081 19.7533 157.334C19.7533 159.586 21.6593 161.493 23.9119 161.493C26.1645 161.493 28.0705 159.76 28.0705 157.334Z" fill="#3E54EB"/>
<path d="M28.0705 138.274C28.0705 136.021 26.1645 134.115 23.9119 134.115C21.6593 134.115 19.7533 136.021 19.7533 138.274C19.7533 140.526 21.6593 142.432 23.9119 142.432C26.1645 142.432 28.0705 140.526 28.0705 138.274Z" fill="#3E54EB"/>
<path d="M28.0705 119.04C28.0705 116.787 26.1645 114.881 23.9119 114.881C21.6593 114.881 19.7533 116.787 19.7533 119.04C19.7533 121.293 21.6593 123.199 23.9119 123.199C26.1645 123.199 28.0705 121.293 28.0705 119.04Z" fill="#3E54EB"/>
<path d="M28.0705 99.807C28.0705 97.5545 26.1645 95.6484 23.9119 95.6484C21.6593 95.6484 19.7533 97.5545 19.7533 99.807C19.7533 102.06 21.6593 103.966 23.9119 103.966C26.1645 104.139 28.0705 102.233 28.0705 99.807Z" fill="#3E54EB"/>
<path d="M28.0705 80.7465C28.0705 78.4939 26.1645 76.5879 23.9119 76.5879C21.6593 76.5879 19.7533 78.4939 19.7533 80.7465C19.7533 82.9991 21.6593 84.9051 23.9119 84.9051C26.1645 84.9051 28.0705 82.9991 28.0705 80.7465Z" fill="#3E54EB"/>
<path d="M28.0705 61.5131C28.0705 59.2605 26.1645 57.3545 23.9119 57.3545C21.6593 57.3545 19.7533 59.2605 19.7533 61.5131C19.7533 63.7657 21.6593 65.6717 23.9119 65.6717C26.1645 65.845 28.0705 63.939 28.0705 61.5131Z" fill="#3E54EB"/>
<path d="M8.31721 176.568C8.31721 174.315 6.41119 172.409 4.1586 172.409C1.90602 172.409 0 174.315 0 176.568C0 178.82 1.90602 180.726 4.1586 180.726C6.41119 180.726 8.31721 178.82 8.31721 176.568Z" fill="#3E54EB"/>
<path d="M8.31721 157.334C8.31721 155.081 6.41119 153.175 4.1586 153.175C1.90602 153.175 0 155.081 0 157.334C0 159.586 1.90602 161.493 4.1586 161.493C6.41119 161.493 8.31721 159.76 8.31721 157.334Z" fill="#3E54EB"/>
<path d="M8.31721 138.274C8.31721 136.021 6.41119 134.115 4.1586 134.115C1.90602 134.115 0 136.021 0 138.274C0 140.526 1.90602 142.432 4.1586 142.432C6.41119 142.432 8.31721 140.526 8.31721 138.274Z" fill="#3E54EB"/>
<path d="M8.31721 119.04C8.31721 116.787 6.41119 114.881 4.1586 114.881C1.90602 114.881 0 116.787 0 119.04C0 121.293 1.90602 123.199 4.1586 123.199C6.41119 123.199 8.31721 121.293 8.31721 119.04Z" fill="#3E54EB"/>
<path d="M8.31721 99.807C8.31721 97.5545 6.41119 95.6484 4.1586 95.6484C1.90602 95.6484 0 97.5545 0 99.807C0 102.06 1.90602 103.966 4.1586 103.966C6.41119 103.966 8.31721 102.233 8.31721 99.807Z" fill="#3E54EB"/>
<path d="M8.31721 80.7465C8.31721 78.4939 6.41119 76.5879 4.1586 76.5879C1.90602 76.5879 0 78.4939 0 80.7465C0 82.9991 1.90602 84.9051 4.1586 84.9051C6.41119 84.9051 8.31721 82.9991 8.31721 80.7465Z" fill="#3E54EB"/>
<path d="M8.31721 61.5131C8.31721 59.2605 6.41119 57.3545 4.1586 57.3545C1.90602 57.3545 0 59.2605 0 61.5131C0 63.7657 1.90602 65.6717 4.1586 65.6717C6.41119 65.6717 8.31721 63.939 8.31721 61.5131Z" fill="#3E54EB"/>
</svg>
