<?xml version="1.0" encoding="utf-8"?><svg xmlns="http://www.w3.org/2000/svg" xmlns:xlink="http://www.w3.org/1999/xlink"><symbol viewBox="0 0 24 24" id="arrow-right" xmlns="http://www.w3.org/2000/svg">
    <path fill-rule="evenodd" clip-rule="evenodd" d="M18.5303 11.4697C18.8232 11.7626 18.8232 12.2374 18.5303 12.5303L14.5303 16.5303C14.2374 16.8232 13.7626 16.8232 13.4697 16.5303C13.1768 16.2374 13.1768 15.7626 13.4697 15.4697L16.1893 12.75L6 12.75C5.58579 12.75 5.25 12.4142 5.25 12C5.25 11.5858 5.58579 11.25 6 11.25L16.1893 11.25L13.4697 8.53033C13.1768 8.23744 13.1768 7.76256 13.4697 7.46967C13.7626 7.17678 14.2374 7.17678 14.5303 7.46967L18.5303 11.4697Z"/>
</symbol><symbol viewBox="0 0 24 24" id="facebook" xmlns="http://www.w3.org/2000/svg">
    <path d="M18 3H15C12.2386 3 10 5.23858 10 8V10H6V14H10V21H14V14H18V10H14V8C14 7.44772 14.4477 7 15 7H18V3Z"/>
</symbol><symbol viewBox="0 0 24 24" id="linkedin" xmlns="http://www.w3.org/2000/svg">
    <path fill-rule="evenodd" clip-rule="evenodd" d="M6 4C6 5.10457 5.10457 6 4 6C2.89543 6 2 5.10457 2 4C2 2.89543 2.89543 2 4 2C5.10457 2 6 2.89543 6 4ZM6 8.5V22H2V8.5H6ZM9 8.5H13V9.34141C13.6256 9.12031 14.2987 9 15 9C18.3137 9 21 11.6863 21 15V22H17V15C17 13.8954 16.1046 13 15 13C13.8954 13 13 13.8954 13 15V22H9V15V8.5Z"/>
</symbol><symbol viewBox="0 0 24 24" id="plus" xmlns="http://www.w3.org/2000/svg">
    <path fill-rule="evenodd" clip-rule="evenodd" d="M12.75 6C12.75 5.58579 12.4142 5.25 12 5.25C11.5858 5.25 11.25 5.58579 11.25 6V11.25H6C5.58579 11.25 5.25 11.5858 5.25 12C5.25 12.4142 5.58579 12.75 6 12.75H11.25V18C11.25 18.4142 11.5858 18.75 12 18.75C12.4142 18.75 12.75 18.4142 12.75 18V12.75H18C18.4142 12.75 18.75 12.4142 18.75 12C18.75 11.5858 18.4142 11.25 18 11.25H12.75V6Z"/>
</symbol><symbol viewBox="0 0 24 24" id="x" xmlns="http://www.w3.org/2000/svg">
    <path d="M15.2859 4C13.1821 4 11.4766 5.79086 11.4766 8C11.4766 8.33382 11.5155 8.65809 11.5889 8.96808C9.56599 8.96808 6.51902 8.55908 3.97432 6.00961C3.63593 5.67059 3.01196 5.89726 3.03543 6.37567C3.41256 14.0627 6.70465 16.3049 8.39998 16.4444C7.30523 17.5257 5.71498 18.3791 4.11477 18.7622C3.69244 18.8633 3.58811 19.3256 4.00108 19.4599C5.14611 19.8323 6.78504 19.9758 7.66723 20C13.9081 20 18.9805 14.7471 19.0934 8.22229C19.9127 7.68945 20.4376 6.5325 20.7325 5.71291C20.8043 5.5133 20.4772 5.28073 20.2813 5.36226C19.6693 5.61708 18.8922 5.67749 18.2303 5.46181C17.5316 4.56927 16.4721 4 15.2859 4Z"/>
</symbol></svg>