<?xml version="1.0" encoding="utf-8"?><svg xmlns="http://www.w3.org/2000/svg" xmlns:xlink="http://www.w3.org/1999/xlink"><symbol viewBox="0 0 24 24" id="arrow-down" xmlns="http://www.w3.org/2000/svg">
    <path d="M7 10L12 14L17 10" stroke-width="1.5" stroke-linecap="round" stroke-linejoin="round"/>
</symbol><symbol viewBox="0 0 24 24" id="arrow-left" xmlns="http://www.w3.org/2000/svg">
    <path fill-rule="evenodd" clip-rule="evenodd" d="M5.46967 12.5303C5.17678 12.2374 5.17678 11.7626 5.46967 11.4697L9.46967 7.46967C9.76256 7.17678 10.2374 7.17678 10.5303 7.46967C10.8232 7.76256 10.8232 8.23744 10.5303 8.53033L7.81066 11.25L18 11.25C18.4142 11.25 18.75 11.5858 18.75 12C18.75 12.4142 18.4142 12.75 18 12.75L7.81066 12.75L10.5303 15.4697C10.8232 15.7626 10.8232 16.2374 10.5303 16.5303C10.2374 16.8232 9.76256 16.8232 9.46967 16.5303L5.46967 12.5303Z"/>
</symbol><symbol viewBox="0 0 24 24" id="arrow-right" xmlns="http://www.w3.org/2000/svg">
    <path fill-rule="evenodd" clip-rule="evenodd" d="M18.5303 11.4697C18.8232 11.7626 18.8232 12.2374 18.5303 12.5303L14.5303 16.5303C14.2374 16.8232 13.7626 16.8232 13.4697 16.5303C13.1768 16.2374 13.1768 15.7626 13.4697 15.4697L16.1893 12.75L6 12.75C5.58579 12.75 5.25 12.4142 5.25 12C5.25 11.5858 5.58579 11.25 6 11.25L16.1893 11.25L13.4697 8.53033C13.1768 8.23744 13.1768 7.76256 13.4697 7.46967C13.7626 7.17678 14.2374 7.17678 14.5303 7.46967L18.5303 11.4697Z"/>
</symbol><symbol viewBox="0 0 24 24" id="auto" xmlns="http://www.w3.org/2000/svg">
    <path d="M5.41047 11.04C4.64374 10.9273 3.87172 10.854 3.09747 10.8205C2.75797 10.7995 2.31047 10.9765 2.23297 11.8325C2.21851 12.0477 2.23929 12.2639 2.29447 12.4725C2.3459 12.6902 2.46184 12.8875 2.62714 13.0383C2.79243 13.1891 2.9994 13.2866 3.22097 13.318L6.53047 13.784C6.547 13.7867 6.56372 13.788 6.58047 13.788C6.64512 13.788 6.70868 13.7714 6.76499 13.7396C6.8213 13.7079 6.86845 13.6621 6.90185 13.6067C6.93526 13.5514 6.9538 13.4884 6.95566 13.4237C6.95752 13.3591 6.94264 13.2951 6.91247 13.238C5.82397 11.1675 5.54497 11.0815 5.41047 11.04ZM3.32547 12.5755C3.25277 12.5643 3.18508 12.5317 3.13115 12.4817C3.07722 12.4316 3.03954 12.3666 3.02297 12.295C2.98809 12.1665 2.97358 12.0334 2.97997 11.9005C2.98116 11.7866 3.00691 11.6744 3.05547 11.5715H3.06597C3.92097 11.625 4.88247 11.7025 5.14297 11.7485C5.42449 12.1251 5.67625 12.5232 5.89597 12.939L3.32547 12.5755Z"/>
    <path d="M20.781 10.8204C20.0067 10.8539 19.2347 10.9272 18.468 11.0399C18.3335 11.0814 18.054 11.1674 16.964 13.2399C16.9338 13.2971 16.9189 13.3611 16.9208 13.4257C16.9227 13.4903 16.9412 13.5533 16.9746 13.6087C17.008 13.664 17.0552 13.7098 17.1115 13.7415C17.1678 13.7733 17.2313 13.7899 17.296 13.7899C17.3127 13.79 17.3295 13.7886 17.346 13.7859L20.6555 13.3199C20.8771 13.2885 21.084 13.1911 21.2493 13.0402C21.4146 12.8894 21.5306 12.6922 21.582 12.4744C21.637 12.2658 21.6578 12.0496 21.6435 11.8344C21.5675 10.9764 21.1175 10.7999 20.781 10.8204ZM20.8555 12.2949C20.8389 12.3665 20.8012 12.4316 20.7473 12.4816C20.6934 12.5316 20.6257 12.5643 20.553 12.5754L17.9825 12.9374C18.2024 12.5218 18.4539 12.1238 18.735 11.7469C19 11.7004 19.9625 11.6229 20.817 11.5699C20.8715 11.6714 20.8995 11.7851 20.8985 11.9004C20.9049 12.0333 20.8904 12.1664 20.8555 12.2949Z"/>
    <path d="M17.1305 11.389C17.0927 11.335 17.0414 11.2919 16.9817 11.264C16.9221 11.2361 16.8561 11.2244 16.7905 11.23C16.756 11.233 13.3115 11.53 11.9405 11.53C10.5695 11.53 7.12448 11.23 7.09048 11.23C7.02482 11.2242 6.95879 11.2358 6.89908 11.2637C6.83936 11.2916 6.78806 11.3348 6.75037 11.3889C6.71268 11.443 6.68993 11.506 6.68442 11.5717C6.67891 11.6374 6.69083 11.7034 6.71898 11.763L7.70648 13.8585C7.73536 13.9194 7.78005 13.9714 7.8359 14.0091C7.89175 14.0469 7.9567 14.0689 8.02398 14.073L11.9385 14.297L15.859 14.073C15.9263 14.069 15.9913 14.047 16.0471 14.0093C16.103 13.9715 16.1477 13.9194 16.1765 13.8585L17.164 11.763C17.1919 11.7032 17.2035 11.6371 17.1976 11.5714C17.1918 11.5058 17.1686 11.4428 17.1305 11.389ZM15.5915 13.339L11.9395 13.55L8.28948 13.339L7.67398 12.033C8.75348 12.121 10.8935 12.283 11.941 12.283C12.9885 12.283 15.129 12.121 16.209 12.033L15.5915 13.339Z"/>
    <path d="M22.8451 18.6856C22.7456 18.6856 22.6502 18.7251 22.5799 18.7954C22.5096 18.8657 22.4701 18.9611 22.4701 19.0606V20.6176C22.4701 20.6527 22.4561 20.6864 22.4313 20.7112C22.4064 20.7361 22.3727 20.7501 22.3376 20.7501H20.3896C20.3544 20.7501 20.3207 20.7361 20.2959 20.7112C20.271 20.6864 20.2571 20.6527 20.2571 20.6176V19.9756C20.2571 19.8761 20.2176 19.7807 20.1472 19.7104C20.0769 19.6401 19.9815 19.6006 19.8821 19.6006C19.7826 19.6006 19.6872 19.6401 19.6169 19.7104C19.5466 19.7807 19.5071 19.8761 19.5071 19.9756V20.6176C19.5073 20.8515 19.6004 21.0758 19.7659 21.2413C19.9313 21.4067 20.1556 21.4998 20.3896 21.5001H22.3396C22.5736 21.4998 22.7979 21.4067 22.9633 21.2413C23.1288 21.0758 23.2218 20.8515 23.2221 20.6176V19.0606C23.2221 19.0111 23.2123 18.9622 23.1933 18.9166C23.1744 18.871 23.1466 18.8295 23.1115 18.7947C23.0765 18.7598 23.0349 18.7322 22.9892 18.7135C22.9435 18.6948 22.8945 18.6853 22.8451 18.6856Z"/>
    <path d="M3.97059 19.6C3.87114 19.6 3.77575 19.6396 3.70543 19.7099C3.6351 19.7802 3.59559 19.8756 3.59559 19.975V20.617C3.59559 20.6521 3.5817 20.6857 3.55696 20.7106C3.53222 20.7354 3.49865 20.7494 3.46359 20.7495H1.51359C1.47854 20.7494 1.44496 20.7354 1.42022 20.7106C1.39548 20.6857 1.38159 20.6521 1.38159 20.617V19.0605C1.38159 18.9611 1.34208 18.8657 1.27176 18.7954C1.20143 18.7251 1.10605 18.6855 1.00659 18.6855C0.907136 18.6855 0.811753 18.7251 0.741427 18.7954C0.671101 18.8657 0.631592 18.9611 0.631592 19.0605V20.6175C0.631724 20.8513 0.724538 21.0755 0.889686 21.2409C1.05483 21.4063 1.27884 21.4995 1.51259 21.5H3.46259C3.69652 21.4998 3.92078 21.4067 4.08614 21.2412C4.25151 21.0758 4.34446 20.8515 4.34459 20.6175V19.9755C4.34472 19.8762 4.30541 19.7808 4.23529 19.7104C4.16516 19.64 4.06996 19.6003 3.97059 19.6Z"/>
    <path d="M23.154 6.92739L21.904 6.71139C21.7214 6.67769 21.5327 6.70722 21.3691 6.79511C21.2055 6.883 21.0767 7.024 21.004 7.19489L20.9365 7.34489L20.0505 5.25489C19.8502 4.77567 19.5306 4.35571 19.122 4.03503C18.7134 3.71434 18.2296 3.5036 17.7165 3.42289C15.8047 3.13265 13.8732 2.99123 11.9395 2.99989C10.0058 2.99139 8.0743 3.13298 6.16249 3.42339C5.64946 3.50405 5.16563 3.71472 4.75708 4.03531C4.34852 4.35591 4.02884 4.77576 3.82849 5.25489L2.93949 7.34689L2.87649 7.19989C2.80433 7.02827 2.67588 6.88634 2.5123 6.79746C2.34871 6.70858 2.15974 6.67805 1.97649 6.71089L0.726488 6.92739C0.523634 6.96103 0.33931 7.06559 0.206353 7.22244C0.0733963 7.3793 0.000442351 7.57826 0.000488303 7.78389V8.02939C0.000675568 8.22732 0.0681995 8.41931 0.191961 8.57378C0.315723 8.72826 0.488357 8.83603 0.681488 8.87939L1.86849 9.14739L1.34249 9.94989C0.886719 10.6433 0.64422 11.4551 0.644988 12.2849V16.5499C0.644988 18.1594 1.76599 19.1999 3.50199 19.1999H20.377C22.113 19.1999 23.234 18.1599 23.234 16.5499V12.2829C23.2348 11.4531 22.9923 10.6413 22.5365 9.94789L22.0105 9.14789L23.1935 8.88089C23.3872 8.83805 23.5605 8.73053 23.6849 8.57603C23.8093 8.42153 23.8774 8.22926 23.878 8.03089V7.78539C23.8786 7.57977 23.8061 7.38063 23.6735 7.22348C23.5409 7.06634 23.3568 6.9614 23.154 6.92739ZM0.842988 8.14539C0.816669 8.13947 0.793157 8.12475 0.776338 8.10365C0.759519 8.08256 0.7504 8.05636 0.750488 8.02939V7.78389C0.750082 7.75556 0.76001 7.72806 0.778416 7.70652C0.796822 7.68499 0.822444 7.6709 0.850488 7.66689L2.10599 7.44989C2.1236 7.44672 2.14176 7.45003 2.15711 7.45923C2.17247 7.46842 2.18397 7.48287 2.18949 7.49989L2.49599 8.19289L2.30899 8.47789L0.842988 8.14539ZM22.484 15.3849H2.34549C2.24603 15.3849 2.15065 15.4244 2.08032 15.4947C2.01 15.565 1.97049 15.6604 1.97049 15.7599C1.97049 15.8593 2.01 15.9547 2.08032 16.0251C2.15065 16.0954 2.24603 16.1349 2.34549 16.1349H22.484V16.5499C22.484 17.7389 21.6965 18.4499 20.377 18.4499H3.50199C2.18249 18.4499 1.39499 17.7394 1.39499 16.5499V12.2829C1.39446 11.5992 1.59418 10.9303 1.96949 10.3589L3.15149 8.55589H19.512C19.6114 8.55589 19.7068 8.51638 19.7772 8.44605C19.8475 8.37573 19.887 8.28034 19.887 8.18089C19.887 8.08143 19.8475 7.98605 19.7772 7.91572C19.7068 7.8454 19.6114 7.80589 19.512 7.80589H3.56099L4.51899 5.54989C4.66977 5.18793 4.91081 4.87065 5.2191 4.62836C5.52739 4.38607 5.89265 4.22684 6.27999 4.16589C8.15284 3.88061 10.0451 3.74152 11.9395 3.74989C13.8339 3.74102 15.7261 3.87961 17.599 4.16439C17.9865 4.22549 18.3519 4.38494 18.6602 4.6275C18.9685 4.87007 19.2094 5.18764 19.36 5.54989L20.456 8.13339C20.4645 8.15406 20.475 8.17382 20.4875 8.19239L21.9095 10.3609C22.2848 10.9323 22.4845 11.6012 22.484 12.2849V15.3849ZM23.128 8.02939C23.128 8.0569 23.1185 8.08357 23.1011 8.10489C23.0837 8.1262 23.0594 8.14086 23.0325 8.14639L21.5715 8.47639L21.3845 8.19139L21.693 7.49139C21.6999 7.47623 21.7117 7.46379 21.7264 7.45601C21.7412 7.44823 21.7581 7.44555 21.7745 7.44839L23.0275 7.66539C23.0555 7.6694 23.0812 7.68349 23.0996 7.70502C23.118 7.72656 23.1279 7.75406 23.1275 7.78239L23.128 8.02939Z"/>
</symbol><symbol viewBox="0 0 24 24" id="badge-percent" xmlns="http://www.w3.org/2000/svg">
    <path d="M10 9C10 9.55228 9.55228 10 9 10C8.44772 10 8 9.55228 8 9C8 8.44772 8.44772 8 9 8C9.55228 8 10 8.44772 10 9Z"/>
    <path d="M16 15C16 15.5523 15.5523 16 15 16C14.4477 16 14 15.5523 14 15C14 14.4477 14.4477 14 15 14C15.5523 14 16 14.4477 16 15Z"/>
    <path d="M10.0542 2.65806C11.1755 1.70252 12.8246 1.70252 13.9459 2.65806L14.6285 3.23978C15.109 3.64925 15.7064 3.89671 16.3357 3.94693L17.2298 4.01827C18.6983 4.13546 19.8644 5.3016 19.9816 6.77012L20.053 7.66414C20.1032 8.29344 20.3506 8.89086 20.7601 9.37135L21.3418 10.054C22.2974 11.1752 22.2974 12.8244 21.3418 13.9457L20.7601 14.6283C20.3506 15.1088 20.1032 15.7062 20.053 16.3355L19.9816 17.2295C19.8644 18.698 18.6983 19.8642 17.2298 19.9814L16.3357 20.0527C15.7064 20.1029 15.109 20.3504 14.6285 20.7599L13.9459 21.3416C12.8246 22.2971 11.1755 22.2971 10.0542 21.3416L9.3716 20.7599C8.89111 20.3504 8.29369 20.1029 7.66439 20.0527L6.77037 19.9814C5.30184 19.8642 4.13571 18.698 4.01852 17.2295L3.94718 16.3355C3.89696 15.7062 3.6495 15.1088 3.24003 14.6283L2.65831 13.9457C1.70277 12.8244 1.70277 11.1752 2.65831 10.054L3.24003 9.37135C3.6495 8.89086 3.89696 8.29344 3.94718 7.66414L4.01852 6.77012C4.13571 5.3016 5.30184 4.13546 6.77037 4.01827L7.66439 3.94693C8.29369 3.89671 8.89111 3.64925 9.3716 3.23978L10.0542 2.65806Z" stroke-width="1.5"/>
    <path d="M9 15L15 9" stroke-width="1.5" stroke-linecap="round"/>
</symbol><symbol viewBox="0 0 24 24" id="bath" xmlns="http://www.w3.org/2000/svg">
    <g clip-path="url(#afclip0_3334_4539)">
        <path d="M22.8 12.7998H22.4V4.3998C22.4 2.39979 20.8 0.799805 18.8 0.799805C17.0295 0.799805 15.7562 2.11259 15.6137 4.0361C14.6842 4.21179 14 5.01232 14 5.99979C14 6.23979 14.16 6.39977 14.4 6.39977H17.6C17.84 6.39977 18 6.23979 18 5.99979C18 5.02324 17.3309 4.22937 16.4172 4.04196C16.5367 2.7709 17.3001 1.59977 18.8 1.59977C20.36 1.59977 21.6 2.83976 21.6 4.39976V12.7998H9.56133C9.38039 11.8772 8.58267 11.1998 7.60003 11.1998C7.20005 10.7198 6.64003 10.3998 6.00005 10.3998C5.24006 10.3998 4.56005 10.8398 4.24003 11.4798C3.92002 11.3198 3.56002 11.1998 3.20002 11.1998C2.21738 11.1998 1.41966 11.8772 1.23872 12.7998H1.2C0.519984 12.7998 0 13.3197 0 13.9998C0 14.6798 0.519984 15.1998 1.2 15.1998H1.6807L2.76 19.4798C3.08002 20.7198 4.2 21.5998 5.48002 21.5998H5.80003L5.28005 22.6398C5.16005 22.8398 5.24006 23.0798 5.44003 23.1598C5.48002 23.1998 5.56003 23.1998 5.60002 23.1998C5.76 23.1998 5.88 23.1198 5.96002 22.9998L6.66 21.5998H17.76L18.44 22.9598C18.52 23.1198 18.64 23.1998 18.8 23.1998C18.88 23.1998 18.92 23.1998 18.96 23.1198C19.12 23.0397 19.2 22.7997 19.12 22.5998L18.6189 21.5976C19.8573 21.5537 20.9283 20.6887 21.24 19.5198L22.3294 15.1998H22.8C23.48 15.1998 24 14.6798 24 13.9998C24 13.3198 23.48 12.7998 22.8 12.7998ZM17.16 5.59981H14.88C15.04 5.11981 15.52 4.79979 16.04 4.79979C16.56 4.79979 17 5.11981 17.16 5.59981ZM3.20002 11.9998C3.56002 11.9998 3.88003 12.1598 4.16002 12.4398C4.24003 12.5598 4.40002 12.5998 4.56 12.5598C4.71998 12.5198 4.8 12.3998 4.83998 12.2398C4.95998 11.6398 5.43998 11.1998 6.03998 11.1998C6.48 11.1998 6.87998 11.3998 7.08 11.7998C7.16002 11.9598 7.35998 12.0398 7.52002 11.9998C7.56 11.9998 7.60003 11.9998 7.64002 11.9998C8.16 11.9998 8.60002 12.3198 8.76 12.7998H2.07998C2.24002 12.3198 2.67998 11.9998 3.20002 11.9998ZM20.52 19.2798C20.28 20.1598 19.48 20.7998 18.56 20.7998H5.52C4.59998 20.7998 3.80002 20.1598 3.56002 19.2798L2.52 15.1998H21.48L20.52 19.2798ZM22.8 14.3998H22H2.00002H1.2C0.96 14.3998 0.800016 14.2398 0.800016 13.9998C0.800016 13.7598 0.96 13.5998 1.2 13.5998H1.59998H9.19997H22.8C23.04 13.5998 23.2 13.7598 23.2 13.9998C23.2 14.2398 23.04 14.3998 22.8 14.3998Z"/>
        <path d="M14.4 8.19969C14.64 8.19969 14.8 8.03971 14.8 7.79971V7.59969C14.8 7.35969 14.64 7.19971 14.4 7.19971C14.16 7.19971 14 7.35969 14 7.59969V7.79971C14 8.03971 14.16 8.19969 14.4 8.19969Z"/>
        <path d="M14.4 10.0398C14.64 10.0398 14.8 9.83977 14.8 9.63981V9.19979C14.8 8.95979 14.64 8.7998 14.4 8.7998C14.16 8.7998 14 8.95979 14 9.19979V9.63981C14 9.87976 14.16 10.0398 14.4 10.0398Z"/>
        <path d="M14.4 11.5996C14.64 11.5996 14.8 11.4396 14.8 11.1996V10.9996C14.8 10.7596 14.64 10.5996 14.4 10.5996C14.16 10.5996 14 10.7596 14 10.9996V11.1996C14 11.4396 14.16 11.5996 14.4 11.5996Z"/>
        <path d="M16.0001 8.19969C16.2401 8.19969 16.4001 8.03971 16.4001 7.79971V7.59969C16.4001 7.35969 16.2401 7.19971 16.0001 7.19971C15.7601 7.19971 15.6001 7.35969 15.6001 7.59969V7.79971C15.6001 8.03971 15.7601 8.19969 16.0001 8.19969Z"/>
        <path d="M15.6001 9.6398C15.6001 9.8798 15.7601 10.0398 16.0001 10.0398C16.2401 10.0398 16.4001 9.83977 16.4001 9.6398V9.19979C16.4001 8.95979 16.2401 8.7998 16.0001 8.7998C15.7601 8.7998 15.6001 8.95979 15.6001 9.19979V9.6398Z"/>
        <path d="M15.6001 11.1996C15.6001 11.4396 15.7601 11.5996 16.0001 11.5996C16.2401 11.5996 16.4001 11.4396 16.4001 11.1996V10.9996C16.4001 10.7596 16.2401 10.5996 16.0001 10.5996C15.7601 10.5996 15.6001 10.7596 15.6001 10.9996V11.1996Z"/>
        <path d="M17.5999 8.19969C17.8399 8.19969 17.9999 8.03971 17.9999 7.79971V7.59969C17.9999 7.35969 17.8399 7.19971 17.5999 7.19971C17.3599 7.19971 17.2 7.35969 17.2 7.59969V7.79971C17.1999 8.03971 17.3599 8.19969 17.5999 8.19969Z"/>
        <path d="M17.2 9.6398C17.2 9.8798 17.3599 10.0398 17.5999 10.0398C17.8399 10.0398 18 9.83982 18 9.6398V9.19979C18 8.95979 17.84 8.7998 17.6 8.7998C17.36 8.7998 17.2 8.95979 17.2 9.19979V9.6398H17.2Z"/>
        <path d="M17.2 11.1996C17.2 11.4396 17.3599 11.5996 17.5999 11.5996C17.8399 11.5996 17.9999 11.4396 17.9999 11.1996V10.9996C17.9999 10.7596 17.8399 10.5996 17.5999 10.5996C17.3599 10.5996 17.2 10.7596 17.2 10.9996V11.1996Z"/>
    </g>
    <defs>
        <clipPath id="afclip0_3334_4539">
            <rect width="24" height="24"/>
        </clipPath>
    </defs>
</symbol><symbol viewBox="0 0 24 24" id="bed" xmlns="http://www.w3.org/2000/svg">
    <path d="M23 12.25V10.25C23 8.72996 22.02 7.74999 20.5 7.74999H9C7.47998 7.74999 6.50002 8.73 6.50002 10.25V12.2343L1.635 12.245H0.999984V3.76496C0.999984 3.51497 0.819984 3.28997 0.574969 3.25496C0.264984 3.20996 0 3.44996 0 3.74996V20.235C0 20.4849 0.18 20.7099 0.425016 20.745C0.735 20.79 1.00003 20.55 1.00003 20.25V17.25H23V20.235C23 20.4849 23.18 20.7099 23.425 20.745C23.735 20.79 24 20.55 24 20.25V13.25C24 12.57 23.68 12.255 23 12.25ZM7.5 10.25C7.5 8.94497 8.43998 8.74997 9 8.74997H20.5C21.06 8.74997 22 8.94497 22 10.25V12.25H7.5V10.25ZM23 16.25H0.999984V13.25H23V16.25Z"/>
    <path d="M3.77344 6.67969C2.23955 6.67969 0.996094 7.92314 0.996094 9.45703C0.996094 10.9909 2.23955 12.2344 3.77344 12.2344C5.30733 12.2344 6.55078 10.9909 6.55078 9.45703C6.55078 7.92314 5.30733 6.67969 3.77344 6.67969ZM3.77344 11.3438C2.73145 11.3438 1.88672 10.499 1.88672 9.45703C1.88672 8.41505 2.73145 7.57031 3.77344 7.57031C4.81542 7.57031 5.66016 8.41505 5.66016 9.45703C5.66016 10.499 4.81547 11.3438 3.77344 11.3438Z"/>
</symbol><symbol viewBox="0 0 24 24" id="chevron-left" xmlns="http://www.w3.org/2000/svg">
    <path fill-rule="evenodd" clip-rule="evenodd" d="M14.4685 6.4145C14.7919 6.67326 14.8444 7.14522 14.5856 7.46867L10.9604 12.0002L14.5856 16.5316C14.8444 16.8551 14.7919 17.327 14.4685 17.5858C14.145 17.8446 13.6731 17.7921 13.4143 17.4687L9.41432 12.4687C9.19519 12.1948 9.19519 11.8055 9.41432 11.5316L13.4143 6.53163C13.6731 6.20818 14.145 6.15574 14.4685 6.4145Z"/>
</symbol><symbol viewBox="0 0 20 20" id="chevron-right" xmlns="http://www.w3.org/2000/svg">
    <path fill-rule="evenodd" clip-rule="evenodd" d="M7.94296 5.34523C7.67342 5.56086 7.62972 5.95417 7.84535 6.22371L10.8663 9.99994L7.84535 13.7762C7.62972 14.0457 7.67342 14.439 7.94296 14.6547C8.2125 14.8703 8.60581 14.8266 8.82144 14.557L12.1548 10.3904C12.3374 10.1621 12.3374 9.83777 12.1548 9.60951L8.82144 5.44284C8.60581 5.1733 8.2125 5.1296 7.94296 5.34523Z"/>
</symbol><symbol viewBox="0 0 25 24" id="coin-dollar" xmlns="http://www.w3.org/2000/svg">
    <circle cx="12.5" cy="12" r="10" stroke-width="1.5"/>
    <path d="M14.5 10C14.5 8.89543 13.6046 8 12.5 8C11.3954 8 10.5 8.89543 10.5 10C10.5 11.1046 11.3954 12 12.5 12" stroke-width="1.5" stroke-linecap="round"/>
    <path d="M12.5 12C13.6046 12 14.5 12.8954 14.5 14C14.5 15.1046 13.6046 16 12.5 16C11.3954 16 10.5 15.1046 10.5 14" stroke-width="1.5" stroke-linecap="round"/>
    <path d="M12.5 6.5V8" stroke-width="1.5" stroke-linecap="round" stroke-linejoin="round"/>
    <path d="M12.5 16V17.5" stroke-width="1.5" stroke-linecap="round" stroke-linejoin="round"/>
</symbol><symbol viewBox="0 0 24 24" id="facebook" xmlns="http://www.w3.org/2000/svg">
    <path d="M18 3H15C12.2386 3 10 5.23858 10 8V10H6V14H10V21H14V14H18V10H14V8C14 7.44772 14.4477 7 15 7H18V3Z"/>
</symbol><symbol viewBox="0 0 24 24" id="facebook-out" xmlns="http://www.w3.org/2000/svg">
    <path d="M18 3H15C12.2386 3 10 5.23858 10 8V10H6V14H10V21H14V14H18V10H14V8C14 7.44772 14.4477 7 15 7H18V3Z" stroke-width="1.5" stroke-linecap="round" stroke-linejoin="round"/>
</symbol><symbol viewBox="0 0 24 24" id="grid" xmlns="http://www.w3.org/2000/svg">
    <path d="M2 4C2 2.89543 2.89543 2 4 2H8C9.10457 2 10 2.89543 10 4V8C10 9.10457 9.10457 10 8 10H4C2.89543 10 2 9.10457 2 8V4Z" stroke-width="1.5" stroke-linejoin="round"/>
    <path d="M14 4C14 2.89543 14.8954 2 16 2H20C21.1046 2 22 2.89543 22 4V8C22 9.10457 21.1046 10 20 10H16C14.8954 10 14 9.10457 14 8V4Z" stroke-width="1.5" stroke-linejoin="round"/>
    <path d="M2 16C2 14.8954 2.89543 14 4 14H8C9.10457 14 10 14.8954 10 16V20C10 21.1046 9.10457 22 8 22H4C2.89543 22 2 21.1046 2 20V16Z" stroke-width="1.5" stroke-linejoin="round"/>
    <path d="M14 16C14 14.8954 14.8954 14 16 14H20C21.1046 14 22 14.8954 22 16V20C22 21.1046 21.1046 22 20 22H16C14.8954 22 14 21.1046 14 20V16Z" stroke-width="1.5" stroke-linejoin="round"/>
</symbol><symbol viewBox="0 0 20 20" id="heart" xmlns="http://www.w3.org/2000/svg">
    <path d="M10.6376 3.91857L10.0001 4.60352L9.36254 3.91857C7.60202 2.02714 4.74766 2.02714 2.98714 3.91857C1.22662 5.81 1.22662 8.87662 2.98714 10.768L8.725 16.9326C9.42921 17.6891 10.571 17.6891 11.2752 16.9326L17.013 10.768C18.7735 8.87661 18.7735 5.81 17.013 3.91857C15.2525 2.02714 12.3981 2.02714 10.6376 3.91857Z" stroke-width="1.5" stroke-linejoin="round"/>
</symbol><symbol viewBox="0 0 24 24" id="home" xmlns="http://www.w3.org/2000/svg">
    <path d="M21 17.9668V10.1503C21 8.93937 20.4604 7.7925 19.5301 7.02652L14.5301 2.90935C13.0577 1.69688 10.9423 1.69689 9.46986 2.90935L4.46986 7.02652C3.53964 7.7925 3 8.93937 3 10.1503V17.9668C3 20.1943 4.79086 22 7 22H17C19.2091 22 21 20.1943 21 17.9668Z" stroke-width="1.5" stroke-linejoin="round"/>
    <path d="M10 18H14" stroke-width="1.5" stroke-linecap="round"/>
</symbol><symbol viewBox="0 0 24 24" id="home-setting" xmlns="http://www.w3.org/2000/svg">
    <path d="M21 17.9668V10.1503C21 8.93937 20.4604 7.7925 19.5301 7.02652L14.5301 2.90935C13.0577 1.69688 10.9423 1.69689 9.46986 2.90935L4.46986 7.02652C3.53964 7.7925 3 8.93937 3 10.1503V17.9668C3 20.1943 4.79086 22 7 22H17C19.2091 22 21 20.1943 21 17.9668Z" stroke-width="1.5" stroke-linecap="round" stroke-linejoin="round"/>
    <path d="M12.4242 10H11.5758C11.1071 10 10.7273 10.3582 10.7273 10.8C10.7273 11.3056 10.1863 11.6271 9.74222 11.3853L9.69712 11.3608C9.29129 11.1399 8.77236 11.271 8.53806 11.6536L8.11382 12.3464C7.87951 12.729 8.01856 13.2183 8.42439 13.4392C8.86867 13.6811 8.86868 14.3189 8.4244 14.5608C8.01857 14.7817 7.87952 15.271 8.11383 15.6536L8.53807 16.3464C8.77237 16.729 9.2913 16.8601 9.69713 16.6392L9.74222 16.6147C10.1863 16.3729 10.7273 16.6944 10.7273 17.2C10.7273 17.6418 11.1071 18 11.5758 18H12.4242C12.8928 18 13.2727 17.6418 13.2727 17.2C13.2727 16.6944 13.8137 16.3729 14.2578 16.6147L14.3029 16.6392C14.7087 16.8601 15.2276 16.729 15.4619 16.3464L15.8862 15.6536C16.1205 15.271 15.9814 14.7817 15.5756 14.5608C15.1313 14.3189 15.1313 13.6811 15.5756 13.4392C15.9814 13.2183 16.1205 12.729 15.8862 12.3464L15.4619 11.6536C15.2276 11.271 14.7087 11.1399 14.3029 11.3608L14.2578 11.3853C13.8137 11.6271 13.2727 11.3056 13.2727 10.8C13.2727 10.3582 12.8928 10 12.4242 10Z" stroke-width="1.5" stroke-linecap="round" stroke-linejoin="round"/>
    <path d="M12.75 14C12.75 14.4142 12.4142 14.75 12 14.75C11.5858 14.75 11.25 14.4142 11.25 14C11.25 13.5858 11.5858 13.25 12 13.25C12.4142 13.25 12.75 13.5858 12.75 14Z"/>
</symbol><symbol viewBox="0 0 24 24" id="instagram-out" xmlns="http://www.w3.org/2000/svg">
    <rect x="2" y="2" width="20" height="20" rx="4" stroke-width="1.5"/>
    <circle cx="18" cy="6" r="1"/>
    <circle cx="12" cy="12" r="5" stroke-width="1.5"/>
</symbol><symbol viewBox="0 0 24 24" id="like" xmlns="http://www.w3.org/2000/svg">
    <path d="M6 8H4C2.89543 8 2 8.89543 2 10V19C2 20.1046 2.89543 21 4 21H6C7.10457 21 8 20.1046 8 19V10C8 8.89543 7.10457 8 6 8Z" stroke-width="1.5" stroke-linecap="round" stroke-linejoin="round"/>
    <path d="M15.8769 21H12.2111C11.4214 21 10.6494 20.7662 9.9923 20.3282L8.4453 19.2969C8.1671 19.1114 8 18.7992 8 18.4648V10.2656C8 10.0915 8.04541 9.92052 8.13176 9.76943L12 3H13.3287C15.3254 3 16.5164 5.22536 15.4088 6.88675L14 9H19.4384C20.7396 9 21.6943 10.2228 21.3787 11.4851L19.7575 17.9701C19.3123 19.7508 17.7124 21 15.8769 21Z" stroke-width="1.5" stroke-linecap="round" stroke-linejoin="round"/>
</symbol><symbol viewBox="0 0 24 24" id="linkedin" xmlns="http://www.w3.org/2000/svg">
    <path fill-rule="evenodd" clip-rule="evenodd" d="M6 4C6 5.10457 5.10457 6 4 6C2.89543 6 2 5.10457 2 4C2 2.89543 2.89543 2 4 2C5.10457 2 6 2.89543 6 4ZM6 8.5V22H2V8.5H6ZM9 8.5H13V9.34141C13.6256 9.12031 14.2987 9 15 9C18.3137 9 21 11.6863 21 15V22H17V15C17 13.8954 16.1046 13 15 13C13.8954 13 13 13.8954 13 15V22H9V15V8.5Z"/>
</symbol><symbol viewBox="0 0 24 24" id="linkedln-out" xmlns="http://www.w3.org/2000/svg">
    <circle cx="4" cy="4" r="2" stroke-width="1.5"/>
    <path d="M2 8.5H6V22H2V8.5Z" stroke-width="1.5" stroke-linejoin="round"/>
    <path d="M9 22H13V15C13 13.8954 13.8954 13 15 13C16.1046 13 17 13.8954 17 15V22H21V15C21 11.6863 18.3137 9 15 9C14.2987 9 13.6256 9.12031 13 9.34141V8.5H9V22ZM9 22V15" stroke-width="1.5" stroke-linejoin="round"/>
</symbol><symbol viewBox="0 0 24 24" id="list" xmlns="http://www.w3.org/2000/svg">
    <path d="M10 6H16M10 14H16M10 10H22M10 18H22M4 10C2.89543 10 2 9.10457 2 8C2 6.89543 2.89543 6 4 6C5.10457 6 6 6.89543 6 8C6 9.10457 5.10457 10 4 10ZM4 18C2.89543 18 2 17.1046 2 16C2 14.8954 2.89543 14 4 14C5.10457 14 6 14.8954 6 16C6 17.1046 5.10457 18 4 18Z" stroke-width="1.5" stroke-linecap="round"/>
</symbol><symbol viewBox="0 0 24 24" id="location" xmlns="http://www.w3.org/2000/svg">
    <circle cx="12" cy="11" r="3" stroke-width="1.5"/>
    <path d="M21 10.8889C21 15.7981 15.375 22 12 22C8.625 22 3 15.7981 3 10.8889C3 5.97969 7.02944 2 12 2C16.9706 2 21 5.97969 21 10.8889Z" stroke-width="1.5"/>
</symbol><symbol viewBox="0 0 24 24" id="medal" xmlns="http://www.w3.org/2000/svg">
    <path d="M17 7.5V4C17 2.89543 16.1046 2 15 2H9C7.89543 2 7 2.89543 7 4V7.5M20 14C20 18.4183 16.4183 22 12 22C7.58172 22 4 18.4183 4 14C4 9.58172 7.58172 6 12 6C16.4183 6 20 9.58172 20 14ZM9.99615 12.1796L8.75226 12.3675C8.03253 12.4762 7.74515 13.3958 8.26595 13.9236L9.16603 14.8358C9.37284 15.0454 9.46722 15.3474 9.4184 15.6434L9.20591 16.9314C9.08297 17.6767 9.83536 18.2451 10.4791 17.8932L11.5917 17.285C11.8473 17.1453 12.1527 17.1453 12.4083 17.285L13.5209 17.8932C14.1646 18.2451 14.917 17.6767 14.7941 16.9314L14.5816 15.6434C14.5328 15.3474 14.6272 15.0454 14.834 14.8358L15.7341 13.9236C16.2549 13.3958 15.9675 12.4762 15.2477 12.3675L14.0038 12.1796C13.718 12.1364 13.471 11.9497 13.3432 11.6805L12.7869 10.5086C12.465 9.83048 11.535 9.83048 11.2131 10.5086L10.6568 11.6805C10.529 11.9497 10.282 12.1364 9.99615 12.1796Z" stroke-width="1.5" stroke-linecap="round" stroke-linejoin="round"/>
</symbol><symbol viewBox="0 0 24 24" id="phone" xmlns="http://www.w3.org/2000/svg">
    <path d="M15 16L14.8529 16.7354C15.1846 16.8018 15.5196 16.6379 15.6708 16.3354L15 16ZM8 9L7.66459 8.32918C7.36208 8.48043 7.19824 8.81544 7.26456 9.14709L8 9ZM8.35402 8.82299L8.68943 9.49381L8.68943 9.49381L8.35402 8.82299ZM9.31654 6.29136L10.0129 6.01281L9.31654 6.29136ZM8.50289 4.25722L7.80653 4.53576L8.50289 4.25722ZM19.7428 15.4971L19.4642 16.1935L19.7428 15.4971ZM17.7086 14.6835L17.9872 13.9871H17.9872L17.7086 14.6835ZM15.177 15.646L15.8478 15.9814V15.9814L15.177 15.646ZM16.25 11C16.25 11.4142 16.5858 11.75 17 11.75C17.4142 11.75 17.75 11.4142 17.75 11H16.25ZM16.6955 9.46927L17.3884 9.18225L16.6955 9.46927ZM14.5307 7.30448L14.8177 6.61157L14.5307 7.30448ZM13 6.25C12.5858 6.25 12.25 6.58579 12.25 7C12.25 7.41421 12.5858 7.75 13 7.75V6.25ZM20.25 11C20.25 11.4142 20.5858 11.75 21 11.75C21.4142 11.75 21.75 11.4142 21.75 11H20.25ZM20.391 7.93853L21.0839 7.65152L20.391 7.93853ZM16.0615 3.60896L16.3485 2.91605V2.91605L16.0615 3.60896ZM13 2.25C12.5858 2.25 12.25 2.58579 12.25 3C12.25 3.41421 12.5858 3.75 13 3.75V2.25ZM20.25 17.3541V19H21.75V17.3541H20.25ZM5 3.75H6.64593V2.25H5V3.75ZM15 16C15.1471 15.2646 15.1473 15.2646 15.1475 15.2646C15.1476 15.2647 15.1477 15.2647 15.1479 15.2647C15.1481 15.2648 15.1483 15.2648 15.1484 15.2648C15.1487 15.2649 15.1488 15.2649 15.1488 15.2649C15.1488 15.2649 15.1482 15.2648 15.147 15.2645C15.1447 15.264 15.14 15.2631 15.1331 15.2615C15.1193 15.2585 15.0967 15.2533 15.0659 15.2459C15.0044 15.2309 14.9104 15.2066 14.7898 15.1711C14.5482 15.1 14.2016 14.9847 13.7954 14.8106C12.9796 14.461 11.9439 13.8833 11.0303 12.9697L9.96967 14.0303C11.0561 15.1167 12.2704 15.789 13.2046 16.1894C13.6734 16.3903 14.0768 16.525 14.3665 16.6101C14.5115 16.6528 14.6285 16.6832 14.7114 16.7034C14.7529 16.7135 14.7859 16.721 14.8097 16.7263C14.8217 16.7289 14.8313 16.7309 14.8385 16.7325C14.8421 16.7332 14.8451 16.7339 14.8475 16.7343C14.8487 16.7346 14.8498 16.7348 14.8507 16.735C14.8511 16.7351 14.8515 16.7352 14.8519 16.7352C14.8521 16.7353 14.8523 16.7353 14.8524 16.7353C14.8527 16.7354 14.8529 16.7354 15 16ZM11.0303 12.9697C10.1167 12.0561 9.53901 11.0204 9.18936 10.2046C9.01527 9.79836 8.89996 9.45184 8.8289 9.21025C8.79342 9.08962 8.76912 8.99565 8.75414 8.93406C8.74666 8.90329 8.74151 8.88065 8.73847 8.86687C8.73695 8.85999 8.73595 8.85532 8.73546 8.85296C8.73521 8.85178 8.73509 8.85118 8.73508 8.85117C8.73508 8.85116 8.73511 8.8513 8.73517 8.85159C8.7352 8.85174 8.73524 8.85192 8.73528 8.85214C8.7353 8.85225 8.73534 8.85244 8.73535 8.8525C8.73539 8.8527 8.73544 8.85291 8 9C7.26456 9.14709 7.26461 9.14732 7.26466 9.14756C7.26468 9.14765 7.26473 9.1479 7.26477 9.14809C7.26484 9.14846 7.26492 9.14887 7.26501 9.14932C7.2652 9.15022 7.26541 9.15127 7.26566 9.15247C7.26615 9.15488 7.26677 9.15789 7.26753 9.1615C7.26905 9.16873 7.27111 9.17834 7.27374 9.19026C7.279 9.21408 7.28655 9.2471 7.29664 9.28859C7.31682 9.37154 7.34721 9.48851 7.38985 9.6335C7.47504 9.92316 7.60973 10.3266 7.81064 10.7954C8.21099 11.7296 8.88325 12.9439 9.96967 14.0303L11.0303 12.9697ZM8.33541 9.67082L8.68943 9.49381L8.01861 8.15217L7.66459 8.32918L8.33541 9.67082ZM10.0129 6.01281L9.19925 3.97868L7.80653 4.53576L8.62018 6.5699L10.0129 6.01281ZM20.0213 14.8008L17.9872 13.9871L17.4301 15.3798L19.4642 16.1935L20.0213 14.8008ZM14.5062 15.3106L14.3292 15.6646L15.6708 16.3354L15.8478 15.9814L14.5062 15.3106ZM17.9872 13.9871C16.6592 13.4559 15.1458 14.0313 14.5062 15.3106L15.8478 15.9814C16.1386 15.3999 16.8265 15.1384 17.4301 15.3798L17.9872 13.9871ZM8.68943 9.49381C9.96868 8.85419 10.5441 7.34076 10.0129 6.01281L8.62018 6.5699C8.86163 7.17351 8.60008 7.86143 8.01861 8.15217L8.68943 9.49381ZM6.64593 3.75C7.15706 3.75 7.6167 4.06119 7.80653 4.53576L9.19925 3.97868C8.78162 2.93462 7.77042 2.25 6.64593 2.25V3.75ZM21.75 17.3541C21.75 16.2296 21.0654 15.2184 20.0213 14.8008L19.4642 16.1935C19.9388 16.3833 20.25 16.8429 20.25 17.3541H21.75ZM19 20.25C10.5777 20.25 3.75 13.4223 3.75 5H2.25C2.25 14.2508 9.74923 21.75 19 21.75V20.25ZM19 21.75C20.5188 21.75 21.75 20.5188 21.75 19H20.25C20.25 19.6904 19.6904 20.25 19 20.25V21.75ZM3.75 5C3.75 4.30964 4.30964 3.75 5 3.75V2.25C3.48122 2.25 2.25 3.48122 2.25 5H3.75ZM17.75 11C17.75 10.3762 17.6271 9.75855 17.3884 9.18225L16.0026 9.75628C16.1659 10.1506 16.25 10.5732 16.25 11H17.75ZM17.3884 9.18225C17.1497 8.60596 16.7998 8.08232 16.3588 7.64124L15.2981 8.7019C15.5999 9.00369 15.8393 9.36197 16.0026 9.75628L17.3884 9.18225ZM16.3588 7.64124C15.9177 7.20016 15.394 6.85028 14.8177 6.61157L14.2437 7.99739C14.638 8.16072 14.9963 8.40011 15.2981 8.7019L16.3588 7.64124ZM14.8177 6.61157C14.2415 6.37286 13.6238 6.25 13 6.25V7.75C13.4268 7.75 13.8494 7.83406 14.2437 7.99739L14.8177 6.61157ZM21.75 11C21.75 9.85093 21.5237 8.71312 21.0839 7.65152L19.6981 8.22554C20.0625 9.10516 20.25 10.0479 20.25 11H21.75ZM21.0839 7.65152C20.6442 6.58992 19.9997 5.62533 19.1872 4.81282L18.1265 5.87348C18.7997 6.5467 19.3338 7.34593 19.6981 8.22554L21.0839 7.65152ZM19.1872 4.81282C18.3747 4.0003 17.4101 3.35578 16.3485 2.91605L15.7745 4.30187C16.6541 4.66622 17.4533 5.20025 18.1265 5.87348L19.1872 4.81282ZM16.3485 2.91605C15.2869 2.47633 14.1491 2.25 13 2.25V3.75C13.9521 3.75 14.8948 3.93753 15.7745 4.30187L16.3485 2.91605Z"/>
</symbol><symbol viewBox="0 0 24 24" id="play" xmlns="http://www.w3.org/2000/svg">
    <path d="M16.9611 13.7364L8.99228 18.2901C7.65896 19.052 6 18.0892 6 16.5536V7.44631C6 5.91067 7.65896 4.94793 8.99228 5.70983L16.9611 10.2635C18.3048 11.0313 18.3048 12.9687 16.9611 13.7364Z" stroke-width="1.5" stroke-linejoin="round"/>
</symbol><symbol viewBox="0 0 24 24" id="plus" xmlns="http://www.w3.org/2000/svg">
    <path fill-rule="evenodd" clip-rule="evenodd" d="M12.75 6C12.75 5.58579 12.4142 5.25 12 5.25C11.5858 5.25 11.25 5.58579 11.25 6V11.25H6C5.58579 11.25 5.25 11.5858 5.25 12C5.25 12.4142 5.58579 12.75 6 12.75H11.25V18C11.25 18.4142 11.5858 18.75 12 18.75C12.4142 18.75 12.75 18.4142 12.75 18V12.75H18C18.4142 12.75 18.75 12.4142 18.75 12C18.75 11.5858 18.4142 11.25 18 11.25H12.75V6Z"/>
</symbol><symbol viewBox="0 0 24 24" id="search-normal" xmlns="http://www.w3.org/2000/svg">
    <path d="M11.5 21.75C5.85 21.75 1.25 17.15 1.25 11.5C1.25 5.85 5.85 1.25 11.5 1.25C17.15 1.25 21.75 5.85 21.75 11.5C21.75 17.15 17.15 21.75 11.5 21.75ZM11.5 2.75C6.67 2.75 2.75 6.68 2.75 11.5C2.75 16.32 6.67 20.25 11.5 20.25C16.33 20.25 20.25 16.32 20.25 11.5C20.25 6.68 16.33 2.75 11.5 2.75Z"/>
    <path d="M21.9999 22.7499C21.8099 22.7499 21.6199 22.6799 21.4699 22.5299L19.4699 20.5299C19.1799 20.2399 19.1799 19.7599 19.4699 19.4699C19.7599 19.1799 20.2399 19.1799 20.5299 19.4699L22.5299 21.4699C22.8199 21.7599 22.8199 22.2399 22.5299 22.5299C22.3799 22.6799 22.1899 22.7499 21.9999 22.7499Z"/>
</symbol><symbol viewBox="0 0 18 18" id="share" xmlns="http://www.w3.org/2000/svg">
    <g clip-path="url(#bbclip0_4366_303)">
        <path d="M6.47338 7.82581C6.04242 6.96555 5.15267 6.375 4.125 6.375C2.67525 6.375 1.5 7.55025 1.5 9C1.5 10.4497 2.67525 11.625 4.125 11.625C5.15267 11.625 6.04242 11.0344 6.47338 10.1742M6.47338 7.82581C6.65039 8.17912 6.75 8.57793 6.75 9C6.75 9.42207 6.65039 9.82088 6.47338 10.1742M6.47338 7.82581L11.5266 5.29919M6.47338 10.1742L11.5266 12.7008M11.5266 5.29919C11.9576 6.15945 12.8473 6.75 13.875 6.75C15.3247 6.75 16.5 5.57475 16.5 4.125C16.5 2.67525 15.3247 1.5 13.875 1.5C12.4253 1.5 11.25 2.67525 11.25 4.125C11.25 4.54707 11.3496 4.94588 11.5266 5.29919ZM11.5266 12.7008C11.3496 13.0541 11.25 13.4529 11.25 13.875C11.25 15.3247 12.4253 16.5 13.875 16.5C15.3247 16.5 16.5 15.3247 16.5 13.875C16.5 12.4253 15.3247 11.25 13.875 11.25C12.8473 11.25 11.9576 11.8406 11.5266 12.7008Z" stroke-width="1.5" stroke-linecap="round"/>
    </g>
    <defs>
        <clipPath id="bbclip0_4366_303">
            <rect width="18" height="18"/>
        </clipPath>
    </defs>
</symbol><symbol viewBox="0 0 24 24" id="users" xmlns="http://www.w3.org/2000/svg">
    <ellipse cx="10" cy="17.5" rx="7" ry="3.5" stroke-width="1.5" stroke-linejoin="round"/>
    <circle cx="10" cy="7" r="4" stroke-width="1.5" stroke-linejoin="round"/>
    <path fill-rule="evenodd" clip-rule="evenodd" d="M15.0448 10.2498C14.7228 10.7487 14.3288 11.1968 13.8774 11.5793C14.2319 11.6904 14.609 11.7502 15.0001 11.7502C17.0712 11.7502 18.7501 10.0713 18.7501 8.00024C18.7501 6.04446 17.2529 4.43838 15.3421 4.26562C15.6083 4.78459 15.8011 5.34742 15.9068 5.94039C16.6979 6.28911 17.2501 7.08019 17.2501 8.00024C17.2501 9.22794 16.2668 10.226 15.0448 10.2498Z"/>
    <path fill-rule="evenodd" clip-rule="evenodd" d="M18.9997 17.5565C18.9896 18.1707 18.8148 18.7608 18.5009 19.3111C18.8693 19.2097 19.2144 19.0923 19.5312 18.9603C20.1284 18.7115 20.6606 18.3961 21.055 18.0076C21.452 17.6165 21.7501 17.1066 21.7501 16.5002C21.7501 15.8938 21.452 15.3839 21.055 14.9928C20.6606 14.6043 20.1284 14.2889 19.5312 14.0401C18.5086 13.614 17.1907 13.3396 15.7495 13.2686C16.7517 13.7776 17.5702 14.4172 18.1351 15.1445C18.4329 15.2277 18.7072 15.3218 18.9543 15.4247C19.443 15.6283 19.7894 15.8517 20.0023 16.0614C20.2125 16.2685 20.2501 16.4163 20.2501 16.5002C20.2501 16.5841 20.2125 16.7319 20.0023 16.939C19.7961 17.1421 19.4645 17.3581 18.9997 17.5565Z"/>
</symbol><symbol viewBox="0 0 24 24" id="users2" xmlns="http://www.w3.org/2000/svg">
    <ellipse cx="12" cy="16.5" rx="6" ry="2.5" stroke-width="1.5" stroke-linejoin="round"/>
    <circle cx="12" cy="8" r="3" stroke-width="1.5" stroke-linejoin="round"/>
    <path fill-rule="evenodd" clip-rule="evenodd" d="M6.44547 13.2617C5.20689 13.3133 4.06913 13.5364 3.18592 13.8897C2.68122 14.0915 2.22245 14.3507 1.87759 14.6768C1.53115 15.0045 1.25 15.4514 1.25 16.0002C1.25 16.5491 1.53115 16.996 1.87759 17.3236C2.22245 17.6498 2.68122 17.9089 3.18592 18.1108C3.68571 18.3107 4.26701 18.469 4.90197 18.578C4.40834 18.0455 4.09852 17.4506 4.01985 16.8197C3.92341 16.7872 3.83104 16.7533 3.74301 16.7181C3.34289 16.558 3.06943 16.3862 2.90826 16.2338C2.7498 16.084 2.74999 16.0048 2.75 16.0003L2.75 16.0002L2.75 16.0002C2.74999 15.9956 2.7498 15.9165 2.90826 15.7667C3.06943 15.6142 3.34289 15.4424 3.74301 15.2824C3.94597 15.2012 4.17201 15.1268 4.41787 15.0611C4.83157 14.3712 5.53447 13.7562 6.44547 13.2617Z"/>
    <path fill-rule="evenodd" clip-rule="evenodd" d="M19.9803 16.8197C19.9016 17.4506 19.5918 18.0455 19.0982 18.578C19.7331 18.469 20.3144 18.3107 20.8142 18.1108C21.3189 17.9089 21.7777 17.6498 22.1226 17.3236C22.469 16.996 22.7502 16.5491 22.7502 16.0002C22.7502 15.4514 22.469 15.0045 22.1226 14.6768C21.7777 14.3507 21.3189 14.0916 20.8142 13.8897C19.931 13.5364 18.7933 13.3133 17.5547 13.2617C18.4657 13.7562 19.1686 14.3712 19.5823 15.0611C19.8281 15.1268 20.0542 15.2012 20.2571 15.2824C20.6573 15.4424 20.9307 15.6142 21.0919 15.7667C21.2504 15.9165 21.2502 15.9956 21.2502 16.0002V16.0002V16.0003C21.2502 16.0048 21.2504 16.084 21.0919 16.2338C20.9307 16.3862 20.6573 16.558 20.2571 16.7181C20.1691 16.7533 20.0767 16.7872 19.9803 16.8197Z"/>
    <path fill-rule="evenodd" clip-rule="evenodd" d="M16.5145 10.1522C16.2946 10.6126 16.0063 11.0341 15.6628 11.4036C16.0587 11.6243 16.5147 11.75 17.0001 11.75C18.5188 11.75 19.7501 10.5188 19.7501 9C19.7501 7.48122 18.5188 6.25 17.0001 6.25C16.8958 6.25 16.7929 6.2558 16.6916 6.26711C16.8637 6.73272 16.9684 7.23096 16.9939 7.75001C16.996 7.75 16.998 7.75 17.0001 7.75C17.6904 7.75 18.2501 8.30964 18.2501 9C18.2501 9.69036 17.6904 10.25 17.0001 10.25C16.8278 10.25 16.6637 10.2152 16.5145 10.1522Z"/>
    <path fill-rule="evenodd" clip-rule="evenodd" d="M7.30845 6.26711C7.20719 6.2558 7.10427 6.25 7 6.25C5.48122 6.25 4.25 7.48122 4.25 9C4.25 10.5188 5.48122 11.75 7 11.75C7.48537 11.75 7.94138 11.6243 8.33721 11.4036C7.99374 11.0341 7.70549 10.6126 7.4856 10.1522C7.33631 10.2152 7.17222 10.25 7 10.25C6.30964 10.25 5.75 9.69036 5.75 9C5.75 8.30964 6.30964 7.75 7 7.75C7.00205 7.75 7.00409 7.75 7.00614 7.75001C7.0317 7.23096 7.13641 6.73272 7.30845 6.26711Z"/>
</symbol><symbol viewBox="0 0 24 24" id="x" xmlns="http://www.w3.org/2000/svg">
    <path d="M15.2859 4C13.1821 4 11.4766 5.79086 11.4766 8C11.4766 8.33382 11.5155 8.65809 11.5889 8.96808C9.56599 8.96808 6.51902 8.55908 3.97432 6.00961C3.63593 5.67059 3.01196 5.89726 3.03543 6.37567C3.41256 14.0627 6.70465 16.3049 8.39998 16.4444C7.30523 17.5257 5.71498 18.3791 4.11477 18.7622C3.69244 18.8633 3.58811 19.3256 4.00108 19.4599C5.14611 19.8323 6.78504 19.9758 7.66723 20C13.9081 20 18.9805 14.7471 19.0934 8.22229C19.9127 7.68945 20.4376 6.5325 20.7325 5.71291C20.8043 5.5133 20.4772 5.28073 20.2813 5.36226C19.6693 5.61708 18.8922 5.67749 18.2303 5.46181C17.5316 4.56927 16.4721 4 15.2859 4Z"/>
</symbol><symbol viewBox="0 0 24 24" id="x-out" xmlns="http://www.w3.org/2000/svg">
    <path d="M15.286 4C13.1821 4 11.4766 5.79086 11.4766 8C11.4766 8.33382 11.5156 8.65809 11.5889 8.96808C9.3 8.96808 5.7 8.44444 3 4.88889C3 13.7778 6.6 16.2963 8.4 16.4444C7.05 17.7778 4.9465 18.7647 3 18.9503C3.83744 19.7106 6.46043 19.9669 7.66725 20C13.9081 20 18.9805 14.7471 19.0934 8.22229C20.2903 7.44391 20.8588 5.33377 21 4.88889C20.4169 5.50119 19.2 5.77778 18.2303 5.46181C17.5317 4.56927 16.4721 4 15.286 4Z" stroke-width="1.5" stroke-linejoin="round"/>
</symbol></svg>