<svg width="30" height="30" viewBox="0 0 30 30" fill="none" xmlns="http://www.w3.org/2000/svg">
<path d="M18.1865 2.5H11.8115C9.56152 2.5 9.06153 3.62501 8.77403 5.01251L7.74902 9.91249H22.249L21.224 5.01251C20.9365 3.62501 20.4365 2.5 18.1865 2.5Z" stroke="#0F1015" stroke-width="1.5" stroke-linecap="round" stroke-linejoin="round"/>
<path d="M24.0492 17.8999C24.1492 18.9624 23.2992 19.875 22.2117 19.875H20.5117C19.5367 19.875 19.3992 19.4625 19.2242 18.9375L19.0367 18.3999C18.7867 17.6624 18.6242 17.1624 17.3117 17.1624H12.6742C11.3742 17.1624 11.1742 17.7249 10.9492 18.3999L10.7617 18.9375C10.5867 19.45 10.4492 19.875 9.47422 19.875H7.77421C6.68671 19.875 5.83671 18.9624 5.93671 17.8999L6.44922 12.375C6.57422 11.0125 6.83671 9.8999 9.21171 9.8999H20.7742C23.1492 9.8999 23.4117 11.0125 23.5367 12.375L24.0492 17.8999Z" stroke="#0F1015" stroke-width="1.5" stroke-linecap="round" stroke-linejoin="round"/>
<path d="M7.74941 7.1875H6.83691" stroke="#0F1015" stroke-width="1.5" stroke-linecap="round" stroke-linejoin="round"/>
<path d="M23.162 7.1875H22.2495" stroke="#0F1015" stroke-width="1.5" stroke-linecap="round" stroke-linejoin="round"/>
<path d="M9.56152 13.5376H12.274" stroke="#0F1015" stroke-width="1.5" stroke-linecap="round" stroke-linejoin="round"/>
<path d="M17.7246 13.5376H20.4371" stroke="#0F1015" stroke-width="1.5" stroke-linecap="round" stroke-linejoin="round"/>
<path d="M15 21.25V22.5" stroke="#0F1015" stroke-width="1.5" stroke-linecap="round" stroke-linejoin="round"/>
<path d="M15 26.25V27.5" stroke="#0F1015" stroke-width="1.5" stroke-linecap="round" stroke-linejoin="round"/>
<path d="M3.75 22.5L2.5 27.5" stroke="#0F1015" stroke-width="1.5" stroke-linecap="round" stroke-linejoin="round"/>
<path d="M26.25 22.5L27.5 27.5" stroke="#0F1015" stroke-width="1.5" stroke-linecap="round" stroke-linejoin="round"/>
</svg>
