<svg width="30" height="30" viewBox="0 0 30 30" fill="none" xmlns="http://www.w3.org/2000/svg">
<mask id="path-1-outside-1_3356_17558" maskUnits="userSpaceOnUse" x="1.5" y="6.5" width="28" height="18" fill="black">
<rect fill="white" x="1.5" y="6.5" width="28" height="18"/>
<path fill-rule="evenodd" clip-rule="evenodd" d="M22.7508 13.403C22.5193 13.403 22.2884 13.3803 22.0621 13.3354C21.2555 13.1747 20.547 12.7371 20.0823 12.1129C19.6176 11.4886 19.4322 10.725 19.5642 9.97945C19.6963 9.23386 20.1357 8.56295 20.792 8.10485C21.4483 7.64674 22.2716 7.43629 23.0924 7.51684C23.9132 7.59738 24.669 7.96278 25.2043 8.53781C25.7395 9.11285 26.0134 9.85375 25.9697 10.608C25.9259 11.3622 25.5677 12.0724 24.9689 12.5924C24.3702 13.1123 23.5763 13.4024 22.7508 13.403ZM20.9832 8.45206C20.4818 8.82176 20.1336 9.3371 19.9962 9.91269L20.0001 9.91086C19.8413 10.5788 19.979 11.2772 20.3829 11.8523C20.7869 12.4274 21.4239 12.8321 22.154 12.9774C22.884 13.1227 23.6472 12.9967 24.2758 12.6272C24.9043 12.2576 25.3466 11.6747 25.5054 11.0067C25.6639 10.3385 25.5261 9.64014 25.1223 9.06485C24.7185 8.48957 24.0816 8.08441 23.3516 7.93835C23.1549 7.89903 22.9541 7.87943 22.7528 7.8799C22.1089 7.88048 21.4845 8.08235 20.9832 8.45206ZM3.88531 16.3142C3.52711 16.1196 3.1161 16.0214 2.69961 16.0311C2.64667 16.0311 2.5959 16.0119 2.55847 15.9776C2.52103 15.9434 2.5 15.8969 2.5 15.8485C2.5 15.8 2.52103 15.7536 2.55847 15.7193C2.5959 15.6851 2.64667 15.6658 2.69961 15.6658C3.18107 15.6571 3.65554 15.7723 4.06895 15.9982C4.42707 16.1931 4.83814 16.2912 5.25465 16.2813C5.67187 16.2885 6.08284 16.1879 6.44035 15.9909C6.838 15.7777 7.2909 15.6661 7.7518 15.6677L13.6204 12.4203C13.8414 12.2988 14.0066 12.1078 14.085 11.8831C14.1634 11.6583 14.1498 11.4151 14.0467 11.1989C13.9435 10.9826 13.7579 10.8081 13.5245 10.7079C13.291 10.6076 13.0257 10.5886 12.778 10.6542L12.303 10.7784C9.01135 11.6404 7.99133 11.8779 7.76777 11.8322C7.42604 11.764 7.12783 11.5745 6.9385 11.3054C6.74917 11.0363 6.68416 10.7095 6.75773 10.3967C6.99149 9.40517 8.61719 9.01091 12.948 7.96063L13.0475 7.93649L13.9238 7.7228C14.9344 7.47342 15.5089 8.16017 15.9316 8.66562L15.9359 8.6707C15.9359 8.6726 16.0247 8.77117 16.1716 8.93431C16.5894 9.39826 17.4774 10.3844 18.1316 11.1546L21.8804 15.938C22.2663 15.7482 22.6999 15.6544 23.1379 15.6658C23.6186 15.6546 24.0931 15.7673 24.5072 15.9909C24.8695 16.1765 25.2778 16.2739 25.6929 16.2739C26.1081 16.2739 26.5164 16.1765 26.8786 15.9909C27.2936 15.7676 27.7687 15.655 28.25 15.6658C28.3029 15.6658 28.3537 15.6851 28.3911 15.7193C28.4286 15.7536 28.4496 15.8 28.4496 15.8485C28.4496 15.8969 28.4286 15.9434 28.3911 15.9776C28.3537 16.0119 28.3029 16.0311 28.25 16.0311C27.8327 16.0234 27.4216 16.1241 27.0643 16.3215C26.6451 16.5347 26.1735 16.6466 25.6939 16.6466C25.2144 16.6466 24.7428 16.5347 24.3236 16.3215C23.9613 16.136 23.5531 16.0385 23.1379 16.0385C22.7227 16.0385 22.3145 16.136 21.9522 16.3215C21.5334 16.5347 21.0621 16.6466 20.5829 16.6466C20.1036 16.6466 19.6323 16.5347 19.2135 16.3215C18.8513 16.136 18.443 16.0385 18.0278 16.0385C17.6127 16.0385 17.2044 16.136 16.8421 16.3215C16.4234 16.5347 15.952 16.6466 15.4728 16.6466C14.9936 16.6466 14.5222 16.5347 14.1035 16.3215C13.7462 16.1264 13.3357 16.0283 12.9198 16.0384C12.5032 16.0285 12.0922 16.1267 11.7341 16.3215C11.3198 16.5449 10.8454 16.6575 10.3647 16.6466C9.88396 16.6581 9.40937 16.5455 8.99538 16.3215C8.63705 16.1271 8.22613 16.029 7.80969 16.0384C7.39318 16.0285 6.98211 16.1267 6.62399 16.3215C6.20975 16.5449 5.73534 16.6575 5.25465 16.6466C4.77315 16.6556 4.2986 16.5404 3.88531 16.3142ZM14.4666 11.9937C14.3583 12.303 14.1306 12.5657 13.826 12.7326L8.42649 15.7298C8.69029 15.7852 8.94381 15.8757 9.17902 15.9982C9.53714 16.1931 9.94821 16.2912 10.3647 16.2813C10.782 16.2876 11.1926 16.185 11.5484 15.9855C11.9633 15.7618 12.4384 15.6492 12.9198 15.6604C13.3999 15.6491 13.8737 15.7618 14.2871 15.9855C14.6494 16.171 15.0576 16.2685 15.4728 16.2685C15.888 16.2685 16.2962 16.171 16.6585 15.9855C17.0773 15.7723 17.5486 15.6604 18.0278 15.6604C18.5071 15.6604 18.9784 15.7723 19.3972 15.9855C19.7553 16.1803 20.1664 16.2785 20.5829 16.2686C20.905 16.2775 21.2251 16.2194 21.5191 16.0987L17.8202 11.3683C16.938 10.3382 15.6385 8.90631 15.6245 8.8917C15.1434 8.31821 14.7243 7.889 14.0276 8.07164L13.1513 8.2835L13.1194 8.29128C9.14537 9.25934 7.33212 9.70104 7.14897 10.4752C7.09734 10.6931 7.14232 10.9209 7.27405 11.1086C7.40578 11.2962 7.61349 11.4284 7.8516 11.4761H7.86158C8.18007 11.4761 10.4854 10.8728 11.9227 10.4966C12.0169 10.472 12.1073 10.4483 12.1932 10.4259L12.6682 10.3017C13.0092 10.2112 13.3746 10.2375 13.6959 10.3755C14.0173 10.5135 14.2728 10.7539 14.4146 11.0517C14.5565 11.3495 14.5749 11.6843 14.4666 11.9937ZM26.8786 18.3561C27.2936 18.1328 27.7687 18.0202 28.25 18.031C28.3029 18.031 28.3537 18.0503 28.3911 18.0845C28.4286 18.1188 28.4496 18.1652 28.4496 18.2137C28.4496 18.2621 28.4286 18.3086 28.3911 18.3428C28.3537 18.3771 28.3029 18.3963 28.25 18.3963C27.8335 18.3864 27.4224 18.4846 27.0643 18.6794C26.6451 18.8926 26.1735 19.0045 25.6939 19.0045C25.2144 19.0045 24.7428 18.8926 24.3236 18.6794C23.9613 18.4938 23.5531 18.3964 23.1379 18.3964C22.7227 18.3964 22.3145 18.4938 21.9522 18.6794C21.5334 18.8926 21.0621 19.0045 20.5829 19.0045C20.1036 19.0045 19.6323 18.8926 19.2135 18.6794C18.8513 18.4938 18.443 18.3964 18.0278 18.3964C17.6127 18.3964 17.2044 18.4938 16.8421 18.6794C16.4234 18.8926 15.952 19.0045 15.4728 19.0045C14.9936 19.0045 14.5222 18.8926 14.1035 18.6794C13.7462 18.4843 13.3357 18.3862 12.9198 18.3963C12.5032 18.3864 12.0922 18.4846 11.7341 18.6794C11.3193 18.9017 10.8453 19.0143 10.3647 19.0045C9.88407 19.0151 9.40975 18.9025 8.99538 18.6794C8.63705 18.485 8.22613 18.3869 7.80969 18.3963C7.39318 18.3864 6.98211 18.4846 6.62399 18.6794C6.20926 18.9017 5.73519 19.0143 5.25465 19.0045C4.77403 19.0149 4.2998 18.9023 3.88531 18.6794C3.52711 18.4847 3.1161 18.3866 2.69961 18.3963C2.64667 18.3963 2.5959 18.3771 2.55847 18.3428C2.52103 18.3086 2.5 18.2621 2.5 18.2137C2.5 18.1652 2.52103 18.1188 2.55847 18.0845C2.5959 18.0503 2.64667 18.031 2.69961 18.031C3.1803 18.0201 3.65471 18.1327 4.06895 18.3561C4.42745 18.5502 4.83825 18.6482 5.25465 18.6392C5.67098 18.6477 6.08164 18.5497 6.44035 18.3561C6.85446 18.1325 7.32896 18.0198 7.80969 18.031C8.29038 18.0201 8.76478 18.1327 9.17902 18.3561C9.53752 18.5502 9.94832 18.6482 10.3647 18.6392C10.7805 18.648 11.1905 18.5499 11.5484 18.3561C11.9633 18.1325 12.4384 18.0199 12.9198 18.031C13.3999 18.0198 13.8737 18.1324 14.2871 18.3561C14.6494 18.5417 15.0576 18.6391 15.4728 18.6391C15.888 18.6391 16.2962 18.5417 16.6585 18.3561C17.0773 18.1429 17.5486 18.0311 18.0278 18.0311C18.5071 18.0311 18.9784 18.1429 19.3972 18.3561C19.7594 18.5417 20.1677 18.6391 20.5829 18.6391C20.9981 18.6391 21.4063 18.5417 21.7686 18.3561C22.1874 18.1429 22.6587 18.0311 23.1379 18.0311C23.6171 18.0311 24.0885 18.1429 24.5072 18.3561C24.8695 18.5417 25.2778 18.6391 25.6929 18.6391C26.1081 18.6391 26.5164 18.5417 26.8786 18.3561ZM26.8786 20.7195C27.2942 20.4975 27.7689 20.3856 28.25 20.3962C28.3029 20.3962 28.3537 20.4155 28.3911 20.4497C28.4286 20.484 28.4496 20.5304 28.4496 20.5789C28.4496 20.6273 28.4286 20.6738 28.3911 20.708C28.3537 20.7423 28.3029 20.7615 28.25 20.7615C27.8335 20.7516 27.4224 20.8498 27.0643 21.0446C26.6451 21.2578 26.1735 21.3697 25.6939 21.3697C25.2144 21.3697 24.7428 21.2578 24.3236 21.0446C23.9613 20.859 23.5531 20.7616 23.1379 20.7616C22.7227 20.7616 22.3145 20.859 21.9522 21.0446C21.5334 21.2578 21.0621 21.3697 20.5829 21.3697C20.1036 21.3697 19.6323 21.2578 19.2135 21.0446C18.8513 20.859 18.443 20.7616 18.0278 20.7616C17.6127 20.7616 17.2044 20.859 16.8421 21.0446C16.4234 21.2578 15.952 21.3697 15.4728 21.3697C14.9936 21.3697 14.5222 21.2578 14.1035 21.0446C13.7462 20.8495 13.3357 20.7514 12.9198 20.7615C12.5032 20.7516 12.0922 20.8498 11.7341 21.0446C11.3193 21.2669 10.8453 21.3795 10.3647 21.3697C9.88407 21.3803 9.40975 21.2677 8.99538 21.0446C8.63705 20.8502 8.22613 20.7521 7.80969 20.7615C7.39318 20.7516 6.98211 20.8498 6.62399 21.0446C6.20926 21.2669 5.73519 21.3795 5.25465 21.3697C4.77403 21.38 4.2998 21.2675 3.88531 21.0446C3.52711 20.8499 3.1161 20.7518 2.69961 20.7615C2.64667 20.7615 2.5959 20.7423 2.55847 20.708C2.52103 20.6738 2.5 20.6273 2.5 20.5789C2.5 20.5304 2.52103 20.484 2.55847 20.4497C2.5959 20.4155 2.64667 20.3962 2.69961 20.3962C3.17997 20.3859 3.65402 20.4978 4.06895 20.7195C4.42682 20.9151 4.83793 21.0139 5.25465 21.0044C5.6713 21.0134 6.08226 20.9146 6.44035 20.7195C6.85528 20.4978 7.32933 20.3859 7.80969 20.3962C8.29004 20.3859 8.76409 20.4978 9.17902 20.7195C9.53689 20.9151 9.94801 21.0139 10.3647 21.0044C10.7808 21.014 11.1913 20.9152 11.5484 20.7195C11.9639 20.4975 12.4387 20.3856 12.9198 20.3962C13.3995 20.3854 13.8731 20.4973 14.2871 20.7195C14.6489 20.9063 15.0574 21.0044 15.4728 21.0044C15.8882 21.0044 16.2967 20.9063 16.6585 20.7195C17.0777 20.5075 17.5488 20.3963 18.0278 20.3963C18.5068 20.3963 18.978 20.5075 19.3972 20.7195C19.759 20.9063 20.1674 21.0044 20.5829 21.0044C20.9983 21.0044 21.4067 20.9063 21.7686 20.7195C22.1878 20.5075 22.6589 20.3963 23.1379 20.3963C23.6169 20.3963 24.088 20.5075 24.5072 20.7195C24.8691 20.9063 25.2775 21.0044 25.6929 21.0044C26.1084 21.0044 26.5168 20.9063 26.8786 20.7195ZM26.8786 23.0847C27.2942 22.8627 27.7689 22.7508 28.25 22.7614C28.3029 22.7614 28.3537 22.7807 28.3911 22.8149C28.4286 22.8492 28.4496 22.8956 28.4496 22.9441C28.4496 22.9925 28.4286 23.039 28.3911 23.0732C28.3537 23.1075 28.3029 23.1267 28.25 23.1267C27.834 23.1152 27.423 23.2114 27.0643 23.4043C26.6447 23.6163 26.1732 23.7275 25.6939 23.7275C25.2146 23.7275 24.7432 23.6163 24.3236 23.4043C23.9613 23.2188 23.5531 23.1213 23.1379 23.1213C22.7227 23.1213 22.3145 23.2188 21.9522 23.4043C21.533 23.6163 21.0619 23.7276 20.5829 23.7276C20.1039 23.7276 19.6327 23.6163 19.2135 23.4043C18.8513 23.2188 18.443 23.1213 18.0278 23.1213C17.6127 23.1213 17.2044 23.2188 16.8421 23.4043C16.4229 23.6163 15.9518 23.7276 15.4728 23.7276C14.9938 23.7276 14.5227 23.6163 14.1035 23.4043C13.7462 23.2093 13.3357 23.1111 12.9198 23.1212C12.5032 23.1113 12.0922 23.2095 11.7341 23.4043C11.3197 23.6279 10.8456 23.7417 10.3647 23.7331C9.8837 23.7425 9.40938 23.6286 8.99538 23.4043C8.63705 23.2099 8.22613 23.1118 7.80969 23.1212C7.39318 23.1113 6.98211 23.2095 6.62399 23.4043C6.20967 23.6279 5.73557 23.7417 5.25465 23.7331C4.77372 23.7417 4.29963 23.6279 3.88531 23.4043C3.52649 23.2116 3.11552 23.1154 2.69961 23.1267C2.64667 23.1267 2.5959 23.1075 2.55847 23.0732C2.52103 23.039 2.5 22.9925 2.5 22.9441C2.5 22.8956 2.52103 22.8492 2.55847 22.8149C2.5959 22.7807 2.64667 22.7614 2.69961 22.7614C3.17997 22.7511 3.65402 22.863 4.06895 23.0847C4.42707 23.2795 4.83814 23.3777 5.25465 23.3678C5.6711 23.3772 6.08202 23.2791 6.44035 23.0847C6.85528 22.863 7.32933 22.7511 7.80969 22.7614C8.29004 22.7511 8.76409 22.863 9.17902 23.0847C9.53714 23.2795 9.94821 23.3777 10.3647 23.3678C10.7806 23.3779 11.1911 23.2798 11.5484 23.0847C11.9639 22.8627 12.4387 22.7508 12.9198 22.7614C13.3995 22.7506 13.8731 22.8625 14.2871 23.0847C14.6494 23.2703 15.0576 23.3677 15.4728 23.3677C15.888 23.3677 16.2962 23.2703 16.6585 23.0847C17.0777 22.8727 17.5488 22.7615 18.0278 22.7615C18.5068 22.7615 18.978 22.8727 19.3972 23.0847C19.7594 23.2703 20.1677 23.3677 20.5829 23.3677C20.9981 23.3677 21.4063 23.2703 21.7686 23.0847C22.1878 22.8727 22.6589 22.7615 23.1379 22.7615C23.6169 22.7615 24.088 22.8727 24.5072 23.0847C24.8695 23.2703 25.2778 23.3677 25.6929 23.3677C26.1081 23.3677 26.5164 23.2703 26.8786 23.0847Z"/>
</mask>
<path fill-rule="evenodd" clip-rule="evenodd" d="M22.7508 13.403C22.5193 13.403 22.2884 13.3803 22.0621 13.3354C21.2555 13.1747 20.547 12.7371 20.0823 12.1129C19.6176 11.4886 19.4322 10.725 19.5642 9.97945C19.6963 9.23386 20.1357 8.56295 20.792 8.10485C21.4483 7.64674 22.2716 7.43629 23.0924 7.51684C23.9132 7.59738 24.669 7.96278 25.2043 8.53781C25.7395 9.11285 26.0134 9.85375 25.9697 10.608C25.9259 11.3622 25.5677 12.0724 24.9689 12.5924C24.3702 13.1123 23.5763 13.4024 22.7508 13.403ZM20.9832 8.45206C20.4818 8.82176 20.1336 9.3371 19.9962 9.91269L20.0001 9.91086C19.8413 10.5788 19.979 11.2772 20.3829 11.8523C20.7869 12.4274 21.4239 12.8321 22.154 12.9774C22.884 13.1227 23.6472 12.9967 24.2758 12.6272C24.9043 12.2576 25.3466 11.6747 25.5054 11.0067C25.6639 10.3385 25.5261 9.64014 25.1223 9.06485C24.7185 8.48957 24.0816 8.08441 23.3516 7.93835C23.1549 7.89903 22.9541 7.87943 22.7528 7.8799C22.1089 7.88048 21.4845 8.08235 20.9832 8.45206ZM3.88531 16.3142C3.52711 16.1196 3.1161 16.0214 2.69961 16.0311C2.64667 16.0311 2.5959 16.0119 2.55847 15.9776C2.52103 15.9434 2.5 15.8969 2.5 15.8485C2.5 15.8 2.52103 15.7536 2.55847 15.7193C2.5959 15.6851 2.64667 15.6658 2.69961 15.6658C3.18107 15.6571 3.65554 15.7723 4.06895 15.9982C4.42707 16.1931 4.83814 16.2912 5.25465 16.2813C5.67187 16.2885 6.08284 16.1879 6.44035 15.9909C6.838 15.7777 7.2909 15.6661 7.7518 15.6677L13.6204 12.4203C13.8414 12.2988 14.0066 12.1078 14.085 11.8831C14.1634 11.6583 14.1498 11.4151 14.0467 11.1989C13.9435 10.9826 13.7579 10.8081 13.5245 10.7079C13.291 10.6076 13.0257 10.5886 12.778 10.6542L12.303 10.7784C9.01135 11.6404 7.99133 11.8779 7.76777 11.8322C7.42604 11.764 7.12783 11.5745 6.9385 11.3054C6.74917 11.0363 6.68416 10.7095 6.75773 10.3967C6.99149 9.40517 8.61719 9.01091 12.948 7.96063L13.0475 7.93649L13.9238 7.7228C14.9344 7.47342 15.5089 8.16017 15.9316 8.66562L15.9359 8.6707C15.9359 8.6726 16.0247 8.77117 16.1716 8.93431C16.5894 9.39826 17.4774 10.3844 18.1316 11.1546L21.8804 15.938C22.2663 15.7482 22.6999 15.6544 23.1379 15.6658C23.6186 15.6546 24.0931 15.7673 24.5072 15.9909C24.8695 16.1765 25.2778 16.2739 25.6929 16.2739C26.1081 16.2739 26.5164 16.1765 26.8786 15.9909C27.2936 15.7676 27.7687 15.655 28.25 15.6658C28.3029 15.6658 28.3537 15.6851 28.3911 15.7193C28.4286 15.7536 28.4496 15.8 28.4496 15.8485C28.4496 15.8969 28.4286 15.9434 28.3911 15.9776C28.3537 16.0119 28.3029 16.0311 28.25 16.0311C27.8327 16.0234 27.4216 16.1241 27.0643 16.3215C26.6451 16.5347 26.1735 16.6466 25.6939 16.6466C25.2144 16.6466 24.7428 16.5347 24.3236 16.3215C23.9613 16.136 23.5531 16.0385 23.1379 16.0385C22.7227 16.0385 22.3145 16.136 21.9522 16.3215C21.5334 16.5347 21.0621 16.6466 20.5829 16.6466C20.1036 16.6466 19.6323 16.5347 19.2135 16.3215C18.8513 16.136 18.443 16.0385 18.0278 16.0385C17.6127 16.0385 17.2044 16.136 16.8421 16.3215C16.4234 16.5347 15.952 16.6466 15.4728 16.6466C14.9936 16.6466 14.5222 16.5347 14.1035 16.3215C13.7462 16.1264 13.3357 16.0283 12.9198 16.0384C12.5032 16.0285 12.0922 16.1267 11.7341 16.3215C11.3198 16.5449 10.8454 16.6575 10.3647 16.6466C9.88396 16.6581 9.40937 16.5455 8.99538 16.3215C8.63705 16.1271 8.22613 16.029 7.80969 16.0384C7.39318 16.0285 6.98211 16.1267 6.62399 16.3215C6.20975 16.5449 5.73534 16.6575 5.25465 16.6466C4.77315 16.6556 4.2986 16.5404 3.88531 16.3142ZM14.4666 11.9937C14.3583 12.303 14.1306 12.5657 13.826 12.7326L8.42649 15.7298C8.69029 15.7852 8.94381 15.8757 9.17902 15.9982C9.53714 16.1931 9.94821 16.2912 10.3647 16.2813C10.782 16.2876 11.1926 16.185 11.5484 15.9855C11.9633 15.7618 12.4384 15.6492 12.9198 15.6604C13.3999 15.6491 13.8737 15.7618 14.2871 15.9855C14.6494 16.171 15.0576 16.2685 15.4728 16.2685C15.888 16.2685 16.2962 16.171 16.6585 15.9855C17.0773 15.7723 17.5486 15.6604 18.0278 15.6604C18.5071 15.6604 18.9784 15.7723 19.3972 15.9855C19.7553 16.1803 20.1664 16.2785 20.5829 16.2686C20.905 16.2775 21.2251 16.2194 21.5191 16.0987L17.8202 11.3683C16.938 10.3382 15.6385 8.90631 15.6245 8.8917C15.1434 8.31821 14.7243 7.889 14.0276 8.07164L13.1513 8.2835L13.1194 8.29128C9.14537 9.25934 7.33212 9.70104 7.14897 10.4752C7.09734 10.6931 7.14232 10.9209 7.27405 11.1086C7.40578 11.2962 7.61349 11.4284 7.8516 11.4761H7.86158C8.18007 11.4761 10.4854 10.8728 11.9227 10.4966C12.0169 10.472 12.1073 10.4483 12.1932 10.4259L12.6682 10.3017C13.0092 10.2112 13.3746 10.2375 13.6959 10.3755C14.0173 10.5135 14.2728 10.7539 14.4146 11.0517C14.5565 11.3495 14.5749 11.6843 14.4666 11.9937ZM26.8786 18.3561C27.2936 18.1328 27.7687 18.0202 28.25 18.031C28.3029 18.031 28.3537 18.0503 28.3911 18.0845C28.4286 18.1188 28.4496 18.1652 28.4496 18.2137C28.4496 18.2621 28.4286 18.3086 28.3911 18.3428C28.3537 18.3771 28.3029 18.3963 28.25 18.3963C27.8335 18.3864 27.4224 18.4846 27.0643 18.6794C26.6451 18.8926 26.1735 19.0045 25.6939 19.0045C25.2144 19.0045 24.7428 18.8926 24.3236 18.6794C23.9613 18.4938 23.5531 18.3964 23.1379 18.3964C22.7227 18.3964 22.3145 18.4938 21.9522 18.6794C21.5334 18.8926 21.0621 19.0045 20.5829 19.0045C20.1036 19.0045 19.6323 18.8926 19.2135 18.6794C18.8513 18.4938 18.443 18.3964 18.0278 18.3964C17.6127 18.3964 17.2044 18.4938 16.8421 18.6794C16.4234 18.8926 15.952 19.0045 15.4728 19.0045C14.9936 19.0045 14.5222 18.8926 14.1035 18.6794C13.7462 18.4843 13.3357 18.3862 12.9198 18.3963C12.5032 18.3864 12.0922 18.4846 11.7341 18.6794C11.3193 18.9017 10.8453 19.0143 10.3647 19.0045C9.88407 19.0151 9.40975 18.9025 8.99538 18.6794C8.63705 18.485 8.22613 18.3869 7.80969 18.3963C7.39318 18.3864 6.98211 18.4846 6.62399 18.6794C6.20926 18.9017 5.73519 19.0143 5.25465 19.0045C4.77403 19.0149 4.2998 18.9023 3.88531 18.6794C3.52711 18.4847 3.1161 18.3866 2.69961 18.3963C2.64667 18.3963 2.5959 18.3771 2.55847 18.3428C2.52103 18.3086 2.5 18.2621 2.5 18.2137C2.5 18.1652 2.52103 18.1188 2.55847 18.0845C2.5959 18.0503 2.64667 18.031 2.69961 18.031C3.1803 18.0201 3.65471 18.1327 4.06895 18.3561C4.42745 18.5502 4.83825 18.6482 5.25465 18.6392C5.67098 18.6477 6.08164 18.5497 6.44035 18.3561C6.85446 18.1325 7.32896 18.0198 7.80969 18.031C8.29038 18.0201 8.76478 18.1327 9.17902 18.3561C9.53752 18.5502 9.94832 18.6482 10.3647 18.6392C10.7805 18.648 11.1905 18.5499 11.5484 18.3561C11.9633 18.1325 12.4384 18.0199 12.9198 18.031C13.3999 18.0198 13.8737 18.1324 14.2871 18.3561C14.6494 18.5417 15.0576 18.6391 15.4728 18.6391C15.888 18.6391 16.2962 18.5417 16.6585 18.3561C17.0773 18.1429 17.5486 18.0311 18.0278 18.0311C18.5071 18.0311 18.9784 18.1429 19.3972 18.3561C19.7594 18.5417 20.1677 18.6391 20.5829 18.6391C20.9981 18.6391 21.4063 18.5417 21.7686 18.3561C22.1874 18.1429 22.6587 18.0311 23.1379 18.0311C23.6171 18.0311 24.0885 18.1429 24.5072 18.3561C24.8695 18.5417 25.2778 18.6391 25.6929 18.6391C26.1081 18.6391 26.5164 18.5417 26.8786 18.3561ZM26.8786 20.7195C27.2942 20.4975 27.7689 20.3856 28.25 20.3962C28.3029 20.3962 28.3537 20.4155 28.3911 20.4497C28.4286 20.484 28.4496 20.5304 28.4496 20.5789C28.4496 20.6273 28.4286 20.6738 28.3911 20.708C28.3537 20.7423 28.3029 20.7615 28.25 20.7615C27.8335 20.7516 27.4224 20.8498 27.0643 21.0446C26.6451 21.2578 26.1735 21.3697 25.6939 21.3697C25.2144 21.3697 24.7428 21.2578 24.3236 21.0446C23.9613 20.859 23.5531 20.7616 23.1379 20.7616C22.7227 20.7616 22.3145 20.859 21.9522 21.0446C21.5334 21.2578 21.0621 21.3697 20.5829 21.3697C20.1036 21.3697 19.6323 21.2578 19.2135 21.0446C18.8513 20.859 18.443 20.7616 18.0278 20.7616C17.6127 20.7616 17.2044 20.859 16.8421 21.0446C16.4234 21.2578 15.952 21.3697 15.4728 21.3697C14.9936 21.3697 14.5222 21.2578 14.1035 21.0446C13.7462 20.8495 13.3357 20.7514 12.9198 20.7615C12.5032 20.7516 12.0922 20.8498 11.7341 21.0446C11.3193 21.2669 10.8453 21.3795 10.3647 21.3697C9.88407 21.3803 9.40975 21.2677 8.99538 21.0446C8.63705 20.8502 8.22613 20.7521 7.80969 20.7615C7.39318 20.7516 6.98211 20.8498 6.62399 21.0446C6.20926 21.2669 5.73519 21.3795 5.25465 21.3697C4.77403 21.38 4.2998 21.2675 3.88531 21.0446C3.52711 20.8499 3.1161 20.7518 2.69961 20.7615C2.64667 20.7615 2.5959 20.7423 2.55847 20.708C2.52103 20.6738 2.5 20.6273 2.5 20.5789C2.5 20.5304 2.52103 20.484 2.55847 20.4497C2.5959 20.4155 2.64667 20.3962 2.69961 20.3962C3.17997 20.3859 3.65402 20.4978 4.06895 20.7195C4.42682 20.9151 4.83793 21.0139 5.25465 21.0044C5.6713 21.0134 6.08226 20.9146 6.44035 20.7195C6.85528 20.4978 7.32933 20.3859 7.80969 20.3962C8.29004 20.3859 8.76409 20.4978 9.17902 20.7195C9.53689 20.9151 9.94801 21.0139 10.3647 21.0044C10.7808 21.014 11.1913 20.9152 11.5484 20.7195C11.9639 20.4975 12.4387 20.3856 12.9198 20.3962C13.3995 20.3854 13.8731 20.4973 14.2871 20.7195C14.6489 20.9063 15.0574 21.0044 15.4728 21.0044C15.8882 21.0044 16.2967 20.9063 16.6585 20.7195C17.0777 20.5075 17.5488 20.3963 18.0278 20.3963C18.5068 20.3963 18.978 20.5075 19.3972 20.7195C19.759 20.9063 20.1674 21.0044 20.5829 21.0044C20.9983 21.0044 21.4067 20.9063 21.7686 20.7195C22.1878 20.5075 22.6589 20.3963 23.1379 20.3963C23.6169 20.3963 24.088 20.5075 24.5072 20.7195C24.8691 20.9063 25.2775 21.0044 25.6929 21.0044C26.1084 21.0044 26.5168 20.9063 26.8786 20.7195ZM26.8786 23.0847C27.2942 22.8627 27.7689 22.7508 28.25 22.7614C28.3029 22.7614 28.3537 22.7807 28.3911 22.8149C28.4286 22.8492 28.4496 22.8956 28.4496 22.9441C28.4496 22.9925 28.4286 23.039 28.3911 23.0732C28.3537 23.1075 28.3029 23.1267 28.25 23.1267C27.834 23.1152 27.423 23.2114 27.0643 23.4043C26.6447 23.6163 26.1732 23.7275 25.6939 23.7275C25.2146 23.7275 24.7432 23.6163 24.3236 23.4043C23.9613 23.2188 23.5531 23.1213 23.1379 23.1213C22.7227 23.1213 22.3145 23.2188 21.9522 23.4043C21.533 23.6163 21.0619 23.7276 20.5829 23.7276C20.1039 23.7276 19.6327 23.6163 19.2135 23.4043C18.8513 23.2188 18.443 23.1213 18.0278 23.1213C17.6127 23.1213 17.2044 23.2188 16.8421 23.4043C16.4229 23.6163 15.9518 23.7276 15.4728 23.7276C14.9938 23.7276 14.5227 23.6163 14.1035 23.4043C13.7462 23.2093 13.3357 23.1111 12.9198 23.1212C12.5032 23.1113 12.0922 23.2095 11.7341 23.4043C11.3197 23.6279 10.8456 23.7417 10.3647 23.7331C9.8837 23.7425 9.40938 23.6286 8.99538 23.4043C8.63705 23.2099 8.22613 23.1118 7.80969 23.1212C7.39318 23.1113 6.98211 23.2095 6.62399 23.4043C6.20967 23.6279 5.73557 23.7417 5.25465 23.7331C4.77372 23.7417 4.29963 23.6279 3.88531 23.4043C3.52649 23.2116 3.11552 23.1154 2.69961 23.1267C2.64667 23.1267 2.5959 23.1075 2.55847 23.0732C2.52103 23.039 2.5 22.9925 2.5 22.9441C2.5 22.8956 2.52103 22.8492 2.55847 22.8149C2.5959 22.7807 2.64667 22.7614 2.69961 22.7614C3.17997 22.7511 3.65402 22.863 4.06895 23.0847C4.42707 23.2795 4.83814 23.3777 5.25465 23.3678C5.6711 23.3772 6.08202 23.2791 6.44035 23.0847C6.85528 22.863 7.32933 22.7511 7.80969 22.7614C8.29004 22.7511 8.76409 22.863 9.17902 23.0847C9.53714 23.2795 9.94821 23.3777 10.3647 23.3678C10.7806 23.3779 11.1911 23.2798 11.5484 23.0847C11.9639 22.8627 12.4387 22.7508 12.9198 22.7614C13.3995 22.7506 13.8731 22.8625 14.2871 23.0847C14.6494 23.2703 15.0576 23.3677 15.4728 23.3677C15.888 23.3677 16.2962 23.2703 16.6585 23.0847C17.0777 22.8727 17.5488 22.7615 18.0278 22.7615C18.5068 22.7615 18.978 22.8727 19.3972 23.0847C19.7594 23.2703 20.1677 23.3677 20.5829 23.3677C20.9981 23.3677 21.4063 23.2703 21.7686 23.0847C22.1878 22.8727 22.6589 22.7615 23.1379 22.7615C23.6169 22.7615 24.088 22.8727 24.5072 23.0847C24.8695 23.2703 25.2778 23.3677 25.6929 23.3677C26.1081 23.3677 26.5164 23.2703 26.8786 23.0847Z" fill="#0F1015"/>
<path d="M22.0621 13.3354L22.0035 13.6296L22.0037 13.6296L22.0621 13.3354ZM22.7508 13.403L22.7508 13.703H22.751L22.7508 13.403ZM20.0823 12.1129L19.8416 12.292V12.292L20.0823 12.1129ZM19.5642 9.97945L19.8596 10.0318V10.0318L19.5642 9.97945ZM20.792 8.10485L20.9637 8.35085V8.35085L20.792 8.10485ZM23.0924 7.51684L23.0631 7.8154L23.0924 7.51684ZM25.9697 10.608L25.6702 10.5906V10.5906L25.9697 10.608ZM19.9962 9.91269L19.7044 9.84302L19.5615 10.4415L20.121 10.1855L19.9962 9.91269ZM20.9832 8.45206L21.1612 8.69351L20.9832 8.45206ZM20.0001 9.91086L20.292 9.98026L20.4342 9.38237L19.8753 9.63806L20.0001 9.91086ZM20.3829 11.8523L20.1374 12.0247L20.3829 11.8523ZM22.154 12.9774L22.0954 13.2716L22.154 12.9774ZM25.5054 11.0067L25.7973 11.0761L25.7974 11.0759L25.5054 11.0067ZM25.1223 9.06485L25.3678 8.89249V8.89249L25.1223 9.06485ZM23.3516 7.93835L23.4105 7.64418L23.4104 7.64416L23.3516 7.93835ZM22.7528 7.8799L22.7531 8.1799L22.7535 8.1799L22.7528 7.8799ZM2.69961 16.0311V16.3312L2.7066 16.331L2.69961 16.0311ZM3.88531 16.3142L4.02936 16.0511L4.02855 16.0506L3.88531 16.3142ZM2.55847 15.9776L2.76098 15.7563L2.76098 15.7563L2.55847 15.9776ZM2.55847 15.7193L2.35595 15.498L2.35595 15.498L2.55847 15.7193ZM2.69961 15.6658V15.9659L2.70505 15.9658L2.69961 15.6658ZM4.06895 15.9982L3.92507 16.2615L3.92558 16.2618L4.06895 15.9982ZM5.25465 16.2813L5.25983 15.9811L5.24752 15.9814L5.25465 16.2813ZM6.44035 15.9909L6.29858 15.7265L6.29559 15.7282L6.44035 15.9909ZM7.7518 15.6677L7.75077 15.9677L7.82879 15.9679L7.89705 15.9302L7.7518 15.6677ZM13.6204 12.4203L13.4758 12.1574L13.4751 12.1578L13.6204 12.4203ZM14.085 11.8831L14.3682 11.9819L14.085 11.8831ZM14.0467 11.1989L14.3175 11.0697L14.3175 11.0697L14.0467 11.1989ZM13.5245 10.7079L13.4061 10.9835L13.4061 10.9835L13.5245 10.7079ZM12.778 10.6542L12.8539 10.9444L12.8549 10.9442L12.778 10.6542ZM12.303 10.7784L12.2271 10.4881L12.2269 10.4882L12.303 10.7784ZM7.76777 11.8322L7.8278 11.5383L7.82653 11.538L7.76777 11.8322ZM6.9385 11.3054L6.69315 11.4781V11.4781L6.9385 11.3054ZM6.75773 10.3967L6.46573 10.3278L6.46569 10.328L6.75773 10.3967ZM12.948 7.96063L13.0187 8.25218L13.0187 8.25218L12.948 7.96063ZM13.0475 7.93649L13.1182 8.22804L13.1186 8.22795L13.0475 7.93649ZM13.9238 7.7228L13.9949 8.01426L13.9957 8.01406L13.9238 7.7228ZM15.9316 8.66562L15.7015 8.8581L15.7015 8.85811L15.9316 8.66562ZM15.9359 8.6707H16.2359V8.56177L16.166 8.47822L15.9359 8.6707ZM16.1716 8.93431L15.9486 9.13507V9.13507L16.1716 8.93431ZM18.1316 11.1546L18.3679 10.9694L18.3603 10.9604L18.1316 11.1546ZM21.8804 15.938L21.6442 16.123L21.7943 16.3146L22.0127 16.2072L21.8804 15.938ZM23.1379 15.6658L23.13 15.9657L23.1375 15.9659L23.1449 15.9658L23.1379 15.6658ZM24.5072 15.9909L24.3646 16.255L24.3705 16.2579L24.5072 15.9909ZM26.8786 15.9909L27.0154 16.258L27.0208 16.2551L26.8786 15.9909ZM28.25 15.6658L28.2432 15.9658H28.25V15.6658ZM28.3911 15.7193L28.1886 15.9407L28.1886 15.9407L28.3911 15.7193ZM28.3911 15.9776L28.1886 15.7563L28.1886 15.7563L28.3911 15.9776ZM28.25 16.0311L28.2444 16.3311H28.25V16.0311ZM27.0643 16.3215L27.2004 16.5891L27.2094 16.5841L27.0643 16.3215ZM24.3236 16.3215L24.1868 16.5885L24.1876 16.5889L24.3236 16.3215ZM21.9522 16.3215L22.0883 16.5889L22.089 16.5885L21.9522 16.3215ZM19.2135 16.3215L19.0768 16.5885L19.0774 16.5889L19.2135 16.3215ZM16.8421 16.3215L16.9782 16.5889L16.9789 16.5885L16.8421 16.3215ZM14.1035 16.3215L13.9596 16.5849L13.9674 16.5889L14.1035 16.3215ZM12.9198 16.0384L12.9126 16.3383L12.9199 16.3385L12.9271 16.3383L12.9198 16.0384ZM11.7341 16.3215L11.8765 16.5856L11.8774 16.585L11.7341 16.3215ZM10.3647 16.6466L10.3715 16.3464L10.3575 16.3467L10.3647 16.6466ZM8.99538 16.3215L8.85233 16.5852L8.85264 16.5854L8.99538 16.3215ZM7.80969 16.0384L7.80255 16.3387L7.81646 16.3383L7.80969 16.0384ZM6.62399 16.3215L6.76639 16.5856L6.76736 16.585L6.62399 16.3215ZM5.25465 16.6466L5.26147 16.3464L5.24903 16.3467L5.25465 16.6466ZM13.826 12.7326L13.6818 12.4696L13.6804 12.4703L13.826 12.7326ZM14.4666 11.9937L14.7498 12.0928V12.0928L14.4666 11.9937ZM8.42649 15.7298L8.28089 15.4675L7.57765 15.8578L8.36475 16.0233L8.42649 15.7298ZM9.17902 15.9982L9.32242 15.7347L9.31765 15.7322L9.17902 15.9982ZM10.3647 16.2813L10.3693 15.9811L10.3576 15.9814L10.3647 16.2813ZM11.5484 15.9855L11.406 15.7213L11.4017 15.7238L11.5484 15.9855ZM12.9198 15.6604L12.9128 15.9606L12.9268 15.9603L12.9198 15.6604ZM14.2871 15.9855L14.1443 16.2494L14.1503 16.2525L14.2871 15.9855ZM16.6585 15.9855L16.5224 15.7181L16.5217 15.7185L16.6585 15.9855ZM19.3972 15.9855L19.5406 15.7218L19.5333 15.7181L19.3972 15.9855ZM20.5829 16.2686L20.5912 15.9687L20.5835 15.9685L20.5757 15.9686L20.5829 16.2686ZM21.5191 16.0987L21.633 16.3762L21.9993 16.2258L21.7554 15.9139L21.5191 16.0987ZM17.8202 11.3683L18.0568 11.1833L18.0481 11.1731L17.8202 11.3683ZM15.6245 8.8917L15.3947 9.0845L15.4009 9.09198L15.4077 9.09904L15.6245 8.8917ZM14.0276 8.07164L14.0981 8.36329L14.1037 8.36183L14.0276 8.07164ZM13.1513 8.2835L13.0808 7.9919L13.0803 7.99203L13.1513 8.2835ZM13.1194 8.29128L13.0484 7.9998L13.0484 7.9998L13.1194 8.29128ZM7.14897 10.4752L7.44089 10.5443L7.44091 10.5443L7.14897 10.4752ZM7.27405 11.1086L7.51959 10.9362L7.51959 10.9362L7.27405 11.1086ZM7.8516 11.4761L7.79271 11.7702L7.82187 11.7761H7.8516V11.4761ZM11.9227 10.4966L11.8468 10.2064V10.2064L11.9227 10.4966ZM12.1932 10.4259L12.1173 10.1356L12.1173 10.1356L12.1932 10.4259ZM12.6682 10.3017L12.7441 10.5919L12.7452 10.5917L12.6682 10.3017ZM14.4146 11.0517L14.6855 10.9227V10.9227L14.4146 11.0517ZM28.25 18.031L28.2432 18.331H28.25V18.031ZM26.8786 18.3561L27.0154 18.6232L27.0208 18.6203L26.8786 18.3561ZM28.3911 18.0845L28.1886 18.3059L28.1886 18.3059L28.3911 18.0845ZM28.3911 18.3428L28.1886 18.1215L28.1886 18.1215L28.3911 18.3428ZM28.25 18.3963L28.2428 18.6963H28.25V18.3963ZM27.0643 18.6794L27.2003 18.9469L27.2077 18.9429L27.0643 18.6794ZM24.3236 18.6794L24.1868 18.9464L24.1876 18.9468L24.3236 18.6794ZM21.9522 18.6794L22.0883 18.9468L22.089 18.9464L21.9522 18.6794ZM19.2135 18.6794L19.0768 18.9464L19.0774 18.9468L19.2135 18.6794ZM16.8421 18.6794L16.9782 18.9468L16.9789 18.9464L16.8421 18.6794ZM14.1035 18.6794L13.9596 18.9428L13.9674 18.9468L14.1035 18.6794ZM12.9198 18.3963L12.9126 18.6962L12.9199 18.6964L12.9271 18.6962L12.9198 18.3963ZM11.7341 18.6794L11.8758 18.9438L11.8774 18.9429L11.7341 18.6794ZM10.3647 19.0045L10.3708 18.7043L10.3581 18.7046L10.3647 19.0045ZM8.99538 18.6794L8.85233 18.9431L8.85315 18.9435L8.99538 18.6794ZM7.80969 18.3963L7.80255 18.6966L7.81646 18.6962L7.80969 18.3963ZM6.62399 18.6794L6.76573 18.9438L6.76736 18.9429L6.62399 18.6794ZM5.25465 19.0045L5.26075 18.7043L5.24819 18.7046L5.25465 19.0045ZM3.88531 18.6794L3.74206 18.943L3.74324 18.9436L3.88531 18.6794ZM2.69961 18.3963V18.6964L2.7066 18.6962L2.69961 18.3963ZM2.55847 18.3428L2.35595 18.5642L2.35595 18.5642L2.55847 18.3428ZM2.55847 18.0845L2.35595 17.8632L2.35595 17.8632L2.55847 18.0845ZM2.69961 18.031V18.3311L2.70643 18.331L2.69961 18.031ZM4.06895 18.3561L4.21174 18.0923L4.21135 18.0921L4.06895 18.3561ZM5.25465 18.6392L5.26079 18.339L5.24816 18.3393L5.25465 18.6392ZM6.44035 18.3561L6.58281 18.6201L6.58291 18.6201L6.44035 18.3561ZM7.80969 18.031L7.80268 18.3313L7.8165 18.331L7.80969 18.031ZM9.17902 18.3561L9.32182 18.0923L9.32142 18.0921L9.17902 18.3561ZM10.3647 18.6392L10.371 18.339L10.3582 18.3393L10.3647 18.6392ZM11.5484 18.3561L11.4061 18.0921L11.4056 18.0923L11.5484 18.3561ZM12.9198 18.031L12.9128 18.3313L12.9268 18.331L12.9198 18.031ZM14.2871 18.3561L14.1443 18.62L14.1503 18.6231L14.2871 18.3561ZM16.6585 18.3561L16.5224 18.0888L16.5217 18.0891L16.6585 18.3561ZM19.3972 18.3561L19.5339 18.0891L19.5333 18.0888L19.3972 18.3561ZM21.7686 18.3561L21.6325 18.0888L21.6318 18.0891L21.7686 18.3561ZM24.5072 18.3561L24.644 18.0891L24.6433 18.0888L24.5072 18.3561ZM28.25 20.3962L28.2433 20.6962H28.25V20.3962ZM26.8786 20.7195L27.0162 20.9861L27.02 20.9841L26.8786 20.7195ZM28.3911 20.4497L28.1886 20.6711L28.1886 20.6711L28.3911 20.4497ZM28.3911 20.708L28.1886 20.4867L28.1886 20.4867L28.3911 20.708ZM28.25 20.7615L28.2428 21.0615H28.25V20.7615ZM27.0643 21.0446L27.2003 21.3121L27.2077 21.3081L27.0643 21.0446ZM24.3236 21.0446L24.1868 21.3116L24.1876 21.312L24.3236 21.0446ZM21.9522 21.0446L22.0883 21.312L22.089 21.3116L21.9522 21.0446ZM19.2135 21.0446L19.0768 21.3116L19.0774 21.312L19.2135 21.0446ZM16.8421 21.0446L16.9782 21.312L16.9789 21.3116L16.8421 21.0446ZM14.1035 21.0446L13.9596 21.308L13.9674 21.312L14.1035 21.0446ZM12.9198 20.7615L12.9126 21.0614L12.9199 21.0616L12.9271 21.0614L12.9198 20.7615ZM11.7341 21.0446L11.8758 21.309L11.8774 21.3081L11.7341 21.0446ZM10.3647 21.3697L10.3708 21.0695L10.3581 21.0698L10.3647 21.3697ZM8.99538 21.0446L8.85233 21.3083L8.85315 21.3087L8.99538 21.0446ZM7.80969 20.7615L7.80255 21.0617L7.81646 21.0614L7.80969 20.7615ZM6.62399 21.0446L6.76573 21.309L6.76736 21.3081L6.62399 21.0446ZM5.25465 21.3697L5.26075 21.0695L5.24819 21.0698L5.25465 21.3697ZM3.88531 21.0446L3.74206 21.3082L3.74324 21.3088L3.88531 21.0446ZM2.69961 20.7615V21.0616L2.7066 21.0614L2.69961 20.7615ZM2.55847 20.708L2.76098 20.4867L2.76098 20.4867L2.55847 20.708ZM2.55847 20.4497L2.35595 20.2284L2.35595 20.2284L2.55847 20.4497ZM2.69961 20.3962V20.6963L2.70605 20.6962L2.69961 20.3962ZM4.06895 20.7195L4.21283 20.4562L4.21032 20.4549L4.06895 20.7195ZM5.25465 21.0044L5.2611 20.7042L5.24785 20.7045L5.25465 21.0044ZM6.44035 20.7195L6.29898 20.4549L6.2968 20.4561L6.44035 20.7195ZM7.80969 20.3962L7.80324 20.6964L7.81613 20.6962L7.80969 20.3962ZM9.17902 20.7195L9.3229 20.4562L9.32039 20.4549L9.17902 20.7195ZM10.3647 21.0044L10.3716 20.7042L10.3579 20.7045L10.3647 21.0044ZM11.5484 20.7195L11.407 20.4549L11.4042 20.4564L11.5484 20.7195ZM12.9198 20.3962L12.9131 20.6965L12.9265 20.6962L12.9198 20.3962ZM14.2871 20.7195L14.1452 20.9839L14.1495 20.9861L14.2871 20.7195ZM16.6585 20.7195L16.5231 20.4518L16.5209 20.4529L16.6585 20.7195ZM19.3972 20.7195L19.5348 20.4529L19.5326 20.4518L19.3972 20.7195ZM21.7686 20.7195L21.6332 20.4518L21.631 20.4529L21.7686 20.7195ZM24.5072 20.7195L24.6448 20.4529L24.6426 20.4518L24.5072 20.7195ZM28.25 22.7614L28.2433 23.0614H28.25V22.7614ZM26.8786 23.0847L27.0154 23.3518L27.02 23.3493L26.8786 23.0847ZM28.3911 22.8149L28.1886 23.0363L28.1886 23.0363L28.3911 22.8149ZM28.3911 23.0732L28.1886 22.8519L28.1886 22.8519L28.3911 23.0732ZM28.25 23.1267L28.2416 23.4267H28.25V23.1267ZM27.0643 23.4043L27.1996 23.6722L27.2064 23.6685L27.0643 23.4043ZM24.3236 23.4043L24.1868 23.6713L24.1883 23.6721L24.3236 23.4043ZM21.9522 23.4043L22.0876 23.672L22.089 23.6713L21.9522 23.4043ZM19.2135 23.4043L19.0768 23.6713L19.0781 23.672L19.2135 23.4043ZM16.8421 23.4043L16.9775 23.672L16.9789 23.6713L16.8421 23.4043ZM14.1035 23.4043L13.9596 23.6678L13.9681 23.672L14.1035 23.4043ZM12.9198 23.1212L12.9126 23.4211L12.9199 23.4213L12.9271 23.4211L12.9198 23.1212ZM11.7341 23.4043L11.8765 23.6683L11.8774 23.6678L11.7341 23.4043ZM10.3647 23.7331L10.3701 23.4329L10.3588 23.4331L10.3647 23.7331ZM8.99538 23.4043L8.85233 23.668L8.85247 23.6681L8.99538 23.4043ZM7.80969 23.1212L7.80255 23.4215L7.81646 23.4212L7.80969 23.1212ZM6.62399 23.4043L6.76646 23.6683L6.76736 23.6678L6.62399 23.4043ZM5.25465 23.7331L5.26005 23.4329L5.24925 23.4331L5.25465 23.7331ZM3.88531 23.4043L4.02778 23.1403L4.02727 23.14L3.88531 23.4043ZM2.69961 23.1267V23.4268L2.7078 23.4266L2.69961 23.1267ZM2.55847 23.0732L2.35595 23.2945H2.35595L2.55847 23.0732ZM2.55847 22.8149L2.76097 23.0363L2.76098 23.0363L2.55847 22.8149ZM2.69961 22.7614V23.0615L2.70605 23.0614L2.69961 22.7614ZM4.06895 23.0847L4.21233 22.8212L4.21032 22.8201L4.06895 23.0847ZM5.25465 23.3678L5.26143 23.0675L5.24752 23.0679L5.25465 23.3678ZM6.44035 23.0847L6.29898 22.8201L6.2973 22.821L6.44035 23.0847ZM7.80969 22.7614L7.80324 23.0616L7.81613 23.0614L7.80969 22.7614ZM9.17902 23.0847L9.32241 22.8212L9.32039 22.8201L9.17902 23.0847ZM10.3647 23.3678L10.372 23.0679L10.3648 23.0677L10.3576 23.0679L10.3647 23.3678ZM11.5484 23.0847L11.407 22.8201L11.4047 22.8214L11.5484 23.0847ZM12.9198 22.7614L12.9131 23.0617L12.9265 23.0614L12.9198 22.7614ZM14.2871 23.0847L14.1452 23.3491L14.1503 23.3517L14.2871 23.0847ZM16.6585 23.0847L16.5231 22.817L16.5217 22.8177L16.6585 23.0847ZM19.3972 23.0847L19.5339 22.8177L19.5326 22.817L19.3972 23.0847ZM21.7686 23.0847L21.6332 22.817L21.6318 22.8177L21.7686 23.0847ZM24.5072 23.0847L24.644 22.8177L24.6426 22.817L24.5072 23.0847ZM22.0037 13.6296C22.2493 13.6784 22.4997 13.703 22.7508 13.703L22.7508 13.103C22.5388 13.103 22.3275 13.0822 22.1206 13.0411L22.0037 13.6296ZM19.8416 12.292C20.3533 12.9794 21.1286 13.4553 22.0035 13.6296L22.1208 13.0412C21.3825 12.8941 20.7406 12.4948 20.323 11.9337L19.8416 12.292ZM19.2688 9.92714C19.122 10.7566 19.3292 11.6035 19.8416 12.292L20.323 11.9337C19.9061 11.3737 19.7425 10.6934 19.8596 10.0318L19.2688 9.92714ZM20.6203 7.85884C19.9028 8.35965 19.4156 9.09829 19.2688 9.92714L19.8596 10.0318C19.9769 9.36943 20.3685 8.76626 20.9637 8.35085L20.6203 7.85884ZM23.1217 7.21827C22.2322 7.13098 21.3372 7.35849 20.6203 7.85884L20.9637 8.35085C21.5595 7.93498 22.3111 7.74161 23.0631 7.8154L23.1217 7.21827ZM25.4239 8.33342C24.8362 7.702 24.0114 7.30557 23.1217 7.21827L23.0631 7.8154C23.8151 7.88919 24.5019 8.22356 24.9847 8.74221L25.4239 8.33342ZM26.2691 10.6254C26.3179 9.78582 26.0124 8.9657 25.4239 8.33342L24.9847 8.74221C25.4666 9.26 25.709 9.92168 25.6702 10.5906L26.2691 10.6254ZM25.1656 12.8189C25.8221 12.2489 26.2204 11.4647 26.2691 10.6254L25.6702 10.5906C25.6313 11.2598 25.3134 11.896 24.7723 12.3658L25.1656 12.8189ZM22.751 13.703C23.6455 13.7024 24.5099 13.3882 25.1656 12.8189L24.7723 12.3658C24.2304 12.8364 23.5071 13.1025 22.7506 13.103L22.751 13.703ZM20.288 9.98236C20.408 9.4795 20.7136 9.02357 21.1612 8.69351L20.8051 8.2106C20.25 8.61994 19.8591 9.19471 19.7044 9.84302L20.288 9.98236ZM19.8753 9.63806L19.8713 9.63989L20.121 10.1855L20.125 10.1837L19.8753 9.63806ZM20.6284 11.6798C20.2725 11.1731 20.1536 10.5625 20.292 9.98026L19.7083 9.84147C19.5291 10.5952 19.6855 11.3812 20.1374 12.0247L20.6284 11.6798ZM22.2125 12.6832C21.5532 12.5519 20.9852 12.1878 20.6284 11.6798L20.1374 12.0247C20.5885 12.6669 21.2946 13.1122 22.0954 13.2716L22.2125 12.6832ZM24.1237 12.3685C23.5601 12.7 22.872 12.8144 22.2125 12.6832L22.0954 13.2716C22.896 13.431 23.7344 13.2935 24.4278 12.8858L24.1237 12.3685ZM25.2136 10.9373C25.0749 11.5205 24.6867 12.0375 24.1237 12.3685L24.4278 12.8858C25.1219 12.4776 25.6183 11.8289 25.7973 11.0761L25.2136 10.9373ZM24.8767 9.23721C25.2326 9.74419 25.3517 10.355 25.2135 10.9375L25.7974 11.0759C25.9761 10.3221 25.8196 9.53609 25.3678 8.89249L24.8767 9.23721ZM23.2928 8.23251C23.9521 8.36445 24.52 8.729 24.8767 9.23721L25.3678 8.89249C24.9169 8.25014 24.2111 7.80438 23.4105 7.64418L23.2928 8.23251ZM22.7535 8.1799C22.9349 8.17948 23.1158 8.19714 23.2928 8.23253L23.4104 7.64416C23.1941 7.60092 22.9733 7.57938 22.7521 7.5799L22.7535 8.1799ZM21.1612 8.69351C21.6093 8.36313 22.1708 8.18043 22.7531 8.1799L22.7525 7.5799C22.0469 7.58054 21.3598 7.80158 20.8051 8.2106L21.1612 8.69351ZM2.7066 16.331C3.07189 16.3225 3.43095 16.4087 3.74206 16.5778L4.02855 16.0506C3.62326 15.8304 3.1603 15.7203 2.69263 15.7312L2.7066 16.331ZM2.35595 16.199C2.45127 16.2862 2.57529 16.3311 2.69961 16.3311V15.7311C2.71806 15.7311 2.74053 15.7376 2.76098 15.7563L2.35595 16.199ZM2.2 15.8485C2.2 15.9855 2.25974 16.1109 2.35595 16.199L2.76098 15.7563C2.78233 15.7758 2.8 15.8083 2.8 15.8485H2.2ZM2.35595 15.498C2.25974 15.586 2.2 15.7114 2.2 15.8485H2.8C2.8 15.8886 2.78232 15.9211 2.76098 15.9407L2.35595 15.498ZM2.69961 15.3658C2.57529 15.3658 2.45127 15.4108 2.35595 15.498L2.76098 15.9407C2.74052 15.9594 2.71806 15.9658 2.69961 15.9658V15.3658ZM4.21283 15.735C3.75263 15.4835 3.22655 15.3562 2.69418 15.3659L2.70505 15.9658C3.1356 15.958 3.55844 16.0611 3.92507 16.2615L4.21283 15.735ZM5.24752 15.9814C4.8823 15.9901 4.52328 15.9039 4.21233 15.7347L3.92558 16.2618C4.33086 16.4823 4.79398 16.5924 5.26178 16.5813L5.24752 15.9814ZM6.29559 15.7282C5.98503 15.8993 5.62591 15.9877 5.25982 15.9814L5.24947 16.5813C5.71783 16.5894 6.18066 16.4765 6.5851 16.2537L6.29559 15.7282ZM7.75282 15.3677C7.24323 15.3659 6.74111 15.4893 6.29859 15.7265L6.5821 16.2553C6.93488 16.0662 7.33858 15.9663 7.75077 15.9677L7.75282 15.3677ZM13.4751 12.1578L7.60655 15.4052L7.89705 15.9302L13.7656 12.6828L13.4751 12.1578ZM13.8017 11.7842C13.7493 11.9346 13.6362 12.0693 13.4758 12.1574L13.7649 12.6832C14.0466 12.5283 14.2639 12.281 14.3682 11.9819L13.8017 11.7842ZM13.7759 11.328C13.8452 11.4734 13.8539 11.6347 13.8017 11.7842L14.3682 11.9819C14.4729 11.6819 14.4544 11.3568 14.3175 11.0697L13.7759 11.328ZM13.4061 10.9835C13.5771 11.0569 13.7061 11.1817 13.7759 11.328L14.3175 11.0697C14.181 10.7836 13.9388 10.5593 13.6428 10.4322L13.4061 10.9835ZM12.8549 10.9442C13.0383 10.8956 13.2349 10.91 13.4061 10.9835L13.6428 10.4322C13.3472 10.3053 13.0131 10.2815 12.7012 10.3642L12.8549 10.9442ZM12.3788 11.0686L12.8539 10.9444L12.7022 10.3639L12.2271 10.4881L12.3788 11.0686ZM7.70773 12.1261C7.77547 12.14 7.8478 12.1391 7.91226 12.1347C7.98104 12.13 8.0623 12.1195 8.15643 12.1041C8.34482 12.0731 8.60379 12.019 8.95277 11.9379C9.65182 11.7754 10.7336 11.4995 12.379 11.0686L12.2269 10.4882C10.5807 10.9193 9.50668 11.1932 8.81692 11.3535C8.4715 11.4338 8.22782 11.4843 8.05922 11.512C7.97485 11.5259 7.91403 11.5332 7.87137 11.5361C7.82441 11.5393 7.81595 11.5359 7.8278 11.5383L7.70773 12.1261ZM6.69315 11.4781C6.92958 11.8141 7.29671 12.044 7.709 12.1264L7.82653 11.538C7.55538 11.4839 7.32609 11.3349 7.18386 11.1328L6.69315 11.4781ZM6.46569 10.328C6.37199 10.7265 6.45585 11.1408 6.69315 11.4781L7.18386 11.1328C7.0425 10.9319 6.99634 10.6926 7.04977 10.4653L6.46569 10.328ZM12.8772 7.66908C10.7204 8.19216 9.21081 8.55777 8.21432 8.91862C7.23828 9.27206 6.62223 9.66405 6.46573 10.3278L7.04972 10.4655C7.12699 10.1378 7.44067 9.8369 8.41861 9.48277C9.3761 9.13605 10.8448 8.77938 13.0187 8.25218L12.8772 7.66908ZM12.9768 7.64494L12.8772 7.66908L13.0187 8.25218L13.1182 8.22804L12.9768 7.64494ZM13.8527 7.43134L12.9764 7.64503L13.1186 8.22795L13.9949 8.01426L13.8527 7.43134ZM16.1618 8.47315C15.7541 7.9857 15.0635 7.13258 13.8519 7.43153L13.9957 8.01406C14.8054 7.81425 15.2637 8.33464 15.7015 8.8581L16.1618 8.47315ZM16.166 8.47822L16.1618 8.47314L15.7015 8.85811L15.7058 8.86319L16.166 8.47822ZM16.3945 8.73356C16.3209 8.65185 16.2623 8.58678 16.2221 8.54187C16.2019 8.51932 16.1869 8.50253 16.1772 8.49149C16.1722 8.48577 16.1696 8.48276 16.1687 8.48169C16.1679 8.48078 16.1695 8.48268 16.1721 8.48593C16.173 8.48701 16.1772 8.49228 16.1822 8.49954C16.1843 8.5026 16.1905 8.51153 16.1974 8.52369C16.2007 8.52953 16.2073 8.54166 16.2139 8.55784C16.2172 8.56613 16.222 8.57891 16.2262 8.59497C16.23 8.60976 16.2359 8.63659 16.2359 8.6707H15.6359C15.6359 8.73076 15.6545 8.77507 15.658 8.78368C15.6646 8.79992 15.6712 8.81211 15.6745 8.81804C15.6815 8.83035 15.6878 8.83948 15.6901 8.84278C15.6955 8.85054 15.7002 8.85649 15.7018 8.85844C15.7057 8.86342 15.7094 8.86779 15.7113 8.87008C15.7158 8.8754 15.7213 8.88168 15.7269 8.88801C15.7384 8.90109 15.7548 8.91949 15.7752 8.94221C15.8161 8.98785 15.8753 9.05364 15.9486 9.13507L16.3945 8.73356ZM18.3603 10.9604C17.7027 10.1863 16.8116 9.19678 16.3945 8.73356L15.9486 9.13507C16.3671 9.59974 17.2521 10.5825 17.903 11.3488L18.3603 10.9604ZM22.1165 15.7529L18.3678 10.9696L17.8955 11.3397L21.6442 16.123L22.1165 15.7529ZM23.1458 15.3659C22.6602 15.3532 22.1784 15.4571 21.748 15.6688L22.0127 16.2072C22.3543 16.0392 22.7397 15.9555 23.13 15.9657L23.1458 15.3659ZM24.6498 15.727C24.1888 15.478 23.6626 15.3535 23.1309 15.3659L23.1449 15.9658C23.5747 15.9557 23.9975 16.0566 24.3647 16.2549L24.6498 15.727ZM25.6929 15.9739C25.3243 15.9739 24.9631 15.8874 24.644 15.7239L24.3705 16.2579C24.776 16.4656 25.2312 16.5739 25.6929 16.5739V15.9739ZM26.7419 15.7239C26.4228 15.8874 26.0616 15.9739 25.6929 15.9739V16.5739C26.1547 16.5739 26.6099 16.4656 27.0154 16.2579L26.7419 15.7239ZM28.2568 15.3659C27.7247 15.3539 27.1982 15.4782 26.7365 15.7268L27.0208 16.2551C27.3891 16.0569 27.8126 15.956 28.2432 15.9658L28.2568 15.3659ZM28.5936 15.498C28.4983 15.4108 28.3743 15.3658 28.25 15.3658V15.9658C28.2315 15.9658 28.2091 15.9594 28.1886 15.9407L28.5936 15.498ZM28.7496 15.8485C28.7496 15.7114 28.6899 15.586 28.5936 15.498L28.1886 15.9407C28.1673 15.9211 28.1496 15.8886 28.1496 15.8485H28.7496ZM28.5936 16.199C28.6899 16.1109 28.7496 15.9855 28.7496 15.8485H28.1496C28.1496 15.8083 28.1673 15.7758 28.1886 15.7563L28.5936 16.199ZM28.25 16.3311C28.3743 16.3311 28.4983 16.2862 28.5936 16.199L28.1886 15.7563C28.2091 15.7376 28.2315 15.7311 28.25 15.7311V16.3311ZM27.2094 16.5841C27.5195 16.4127 27.8785 16.3243 28.2444 16.3311L28.2555 15.7312C27.7868 15.7225 27.3236 15.8355 26.9192 16.0589L27.2094 16.5841ZM25.6939 16.9466C26.2198 16.9466 26.7381 16.824 27.2003 16.5889L26.9283 16.0541C26.5521 16.2454 26.1272 16.3466 25.6939 16.3466V16.9466ZM24.1876 16.5889C24.6497 16.824 25.1681 16.9466 25.6939 16.9466V16.3466C25.2607 16.3466 24.8358 16.2454 24.4596 16.0541L24.1876 16.5889ZM23.1379 16.3385C23.5065 16.3385 23.8678 16.4251 24.1868 16.5885L24.4604 16.0545C24.0549 15.8468 23.5997 15.7385 23.1379 15.7385V16.3385ZM22.089 16.5885C22.4081 16.4251 22.7693 16.3385 23.1379 16.3385V15.7385C22.6762 15.7385 22.2209 15.8468 21.8154 16.0545L22.089 16.5885ZM20.5829 16.9466C21.1084 16.9466 21.6265 16.824 22.0883 16.5889L21.8161 16.0542C21.4403 16.2455 21.0158 16.3466 20.5829 16.3466V16.9466ZM19.0774 16.5889C19.5392 16.824 20.0573 16.9466 20.5829 16.9466V16.3466C20.15 16.3466 19.7254 16.2455 19.3496 16.0542L19.0774 16.5889ZM18.0278 16.3385C18.3964 16.3385 18.7577 16.4251 19.0768 16.5885L19.3503 16.0545C18.9448 15.8468 18.4896 15.7385 18.0278 15.7385V16.3385ZM16.9789 16.5885C17.298 16.4251 17.6592 16.3385 18.0278 16.3385V15.7385C17.5661 15.7385 17.1108 15.8468 16.7054 16.0545L16.9789 16.5885ZM15.4728 16.9466C15.9984 16.9466 16.5164 16.824 16.9782 16.5889L16.706 16.0542C16.3303 16.2455 15.9057 16.3466 15.4728 16.3466V16.9466ZM13.9674 16.5889C14.4292 16.824 14.9472 16.9466 15.4728 16.9466V16.3466C15.0399 16.3466 14.6153 16.2455 14.2396 16.0542L13.9674 16.5889ZM12.9271 16.3383C13.2915 16.3294 13.6497 16.4156 13.9597 16.5848L14.2472 16.0582C13.8426 15.8373 13.3798 15.7271 12.9124 15.7385L12.9271 16.3383ZM11.8774 16.585C12.1884 16.4159 12.5474 16.3297 12.9126 16.3383L12.9269 15.7385C12.4591 15.7274 11.996 15.8375 11.5907 16.058L11.8774 16.585ZM10.3579 16.9465C10.8894 16.9586 11.4154 16.8342 11.8765 16.5856L11.5917 16.0575C11.2242 16.2556 10.8014 16.3565 10.3715 16.3467L10.3579 16.9465ZM8.85264 16.5854C9.31365 16.8348 9.84007 16.9593 10.3719 16.9465L10.3575 16.3467C9.92784 16.357 9.5051 16.2562 9.13812 16.0577L8.85264 16.5854ZM7.81646 16.3383C8.18185 16.3301 8.54097 16.4163 8.85233 16.5852L9.13843 16.0578C8.73313 15.838 8.27041 15.7279 7.80291 15.7385L7.81646 16.3383ZM6.76736 16.585C7.07832 16.4159 7.43733 16.3297 7.80256 16.3383L7.81681 15.7385C7.34902 15.7274 6.8859 15.8375 6.48061 16.058L6.76736 16.585ZM5.24783 16.9465C5.77935 16.9586 6.30534 16.8342 6.76639 16.5856L6.48159 16.0575C6.11416 16.2556 5.69133 16.3565 5.26147 16.3467L5.24783 16.9465ZM3.74126 16.5774C4.20144 16.8293 4.72774 16.9565 5.26027 16.9466L5.24903 16.3467C4.81856 16.3547 4.39576 16.2516 4.02935 16.0511L3.74126 16.5774ZM13.9702 12.9957C14.3355 12.7955 14.6154 12.4765 14.7498 12.0928L14.1835 11.8945C14.1012 12.1295 13.9256 12.3359 13.6818 12.4696L13.9702 12.9957ZM8.57208 15.9921L13.9716 12.9949L13.6804 12.4703L8.28089 15.4675L8.57208 15.9921ZM9.31765 15.7322C9.05778 15.5968 8.77835 15.4972 8.48823 15.4362L8.36475 16.0233C8.60223 16.0733 8.82984 16.1546 9.0404 16.2643L9.31765 15.7322ZM10.3576 15.9814C9.99237 15.9901 9.63335 15.9039 9.3224 15.7347L9.03565 16.2618C9.44093 16.4823 9.90406 16.5924 10.3718 16.5813L10.3576 15.9814ZM11.4017 15.7238C11.0931 15.8968 10.7349 15.9869 10.3693 15.9814L10.3602 16.5813C10.8291 16.5884 11.2921 16.4732 11.6952 16.2471L11.4017 15.7238ZM12.9267 15.3604C12.3945 15.3481 11.8678 15.4725 11.4061 15.7214L11.6908 16.2495C12.0588 16.0511 12.4823 15.9503 12.9128 15.9603L12.9267 15.3604ZM14.4299 15.7216C13.9695 15.4725 13.4439 15.348 12.9127 15.3604L12.9268 15.9603C13.3559 15.9502 13.7779 16.051 14.1443 16.2493L14.4299 15.7216ZM15.4728 15.9685C15.1042 15.9685 14.7429 15.8819 14.4239 15.7185L14.1503 16.2525C14.5558 16.4602 15.011 16.5685 15.4728 16.5685V15.9685ZM16.5217 15.7185C16.2027 15.8819 15.8414 15.9685 15.4728 15.9685V16.5685C15.9346 16.5685 16.3898 16.4602 16.7953 16.2525L16.5217 15.7185ZM18.0278 15.3604C17.5023 15.3604 16.9842 15.483 16.5224 15.7181L16.7946 16.2528C17.1704 16.0615 17.5949 15.9604 18.0278 15.9604V15.3604ZM19.5333 15.7181C19.0715 15.483 18.5534 15.3604 18.0278 15.3604V15.9604C18.4607 15.9604 18.8853 16.0615 19.2611 16.2528L19.5333 15.7181ZM20.5757 15.9686C20.2105 15.9773 19.8515 15.8911 19.5406 15.7219L19.2538 16.249C19.6591 16.4695 20.1222 16.5796 20.59 16.5685L20.5757 15.9686ZM21.4051 15.8212C21.1504 15.9257 20.872 15.9764 20.5912 15.9687L20.5746 16.5684C20.9379 16.5785 21.2997 16.513 21.633 16.3762L21.4051 15.8212ZM17.5839 11.5531L21.2827 16.2835L21.7554 15.9139L18.0566 11.1835L17.5839 11.5531ZM15.4077 9.09904C15.4073 9.09859 15.4864 9.18558 15.6267 9.34101C15.764 9.49311 15.955 9.7053 16.1731 9.94917C16.6096 10.4373 17.1534 11.0509 17.5924 11.5635L18.0481 11.1731C17.164 10.1409 15.8606 8.70448 15.8413 8.68435L15.4077 9.09904ZM14.1037 8.36183C14.3675 8.29266 14.5623 8.33754 14.7489 8.45313C14.9545 8.58054 15.1515 8.79463 15.3947 9.0845L15.8543 8.6989C15.6164 8.41528 15.3633 8.12801 15.0649 7.94311C14.7474 7.74638 14.3843 7.66798 13.9515 7.78145L14.1037 8.36183ZM13.2218 8.5751L14.0981 8.36324L13.9571 7.78004L13.0808 7.99191L13.2218 8.5751ZM13.1904 8.58275L13.2223 8.57498L13.0803 7.99203L13.0484 7.9998L13.1904 8.58275ZM7.44091 10.5443C7.46099 10.4594 7.53436 10.3422 7.76225 10.196C7.98887 10.0506 8.3292 9.90189 8.8085 9.74021C9.76602 9.41722 11.197 9.06833 13.1904 8.58275L13.0484 7.9998C11.0678 8.48228 9.60512 8.83828 8.61672 9.17169C8.12305 9.33821 7.72735 9.50555 7.43829 9.69098C7.1505 9.87559 6.92852 10.1039 6.85703 10.4061L7.44091 10.5443ZM7.51959 10.9362C7.4358 10.8169 7.40955 10.6766 7.44089 10.5443L6.85705 10.406C6.78512 10.7097 6.84884 11.025 7.02852 11.281L7.51959 10.9362ZM7.9105 11.1819C7.743 11.1484 7.60424 11.0568 7.51959 10.9362L7.02852 11.281C7.20732 11.5357 7.48398 11.7084 7.79271 11.7702L7.9105 11.1819ZM7.86158 11.1761H7.8516V11.7761H7.86158V11.1761ZM11.8468 10.2064C11.1277 10.3946 10.1939 10.6389 9.40021 10.8363C9.00317 10.935 8.64327 11.0214 8.36382 11.0829C8.22391 11.1138 8.10647 11.1379 8.01575 11.1541C7.97035 11.1622 7.93361 11.168 7.90525 11.1717C7.89115 11.1735 7.88022 11.1747 7.8721 11.1754C7.86357 11.1761 7.86053 11.1761 7.86158 11.1761V11.7761C7.93169 11.7761 8.02738 11.7615 8.1214 11.7447C8.22332 11.7265 8.34947 11.7005 8.49293 11.6689C8.78022 11.6056 9.1462 11.5177 9.54497 11.4185C10.3429 11.2202 11.2804 10.9748 11.9987 10.7869L11.8468 10.2064ZM12.1173 10.1356C12.0314 10.1581 11.9409 10.1818 11.8468 10.2064L11.9987 10.7869C12.0928 10.7622 12.1832 10.7386 12.269 10.7161L12.1173 10.1356ZM12.5924 10.0114L12.1173 10.1356L12.269 10.7161L12.7441 10.5919L12.5924 10.0114ZM13.8143 10.0998C13.4307 9.93507 12.9966 9.90421 12.5913 10.0117L12.7452 10.5917C13.0219 10.5182 13.3184 10.5398 13.5776 10.6511L13.8143 10.0998ZM14.6855 10.9227C14.5103 10.5549 14.1983 10.2647 13.8143 10.0998L13.5776 10.6511C13.8364 10.7623 14.0353 10.9528 14.1438 11.1806L14.6855 10.9227ZM14.7498 12.0928C14.8844 11.7082 14.8611 11.2914 14.6855 10.9227L14.1438 11.1806C14.2518 11.4075 14.2655 11.6604 14.1835 11.8945L14.7498 12.0928ZM28.2568 17.7311C27.7247 17.7191 27.1982 17.8434 26.7365 18.092L27.0208 18.6203C27.3891 18.4221 27.8126 18.3212 28.2432 18.331L28.2568 17.7311ZM28.5936 17.8632C28.4983 17.776 28.3743 17.731 28.25 17.731V18.331C28.2315 18.331 28.2091 18.3246 28.1886 18.3059L28.5936 17.8632ZM28.7496 18.2137C28.7496 18.0766 28.6899 17.9512 28.5936 17.8632L28.1886 18.3059C28.1673 18.2863 28.1496 18.2538 28.1496 18.2137H28.7496ZM28.5936 18.5642C28.6898 18.4761 28.7496 18.3507 28.7496 18.2137H28.1496C28.1496 18.1735 28.1673 18.141 28.1886 18.1215L28.5936 18.5642ZM28.25 18.6963C28.3743 18.6963 28.4983 18.6514 28.5936 18.5642L28.1886 18.1215C28.2091 18.1028 28.2315 18.0963 28.25 18.0963V18.6963ZM27.2077 18.9429C27.5186 18.7737 27.8776 18.6876 28.2428 18.6962L28.2571 18.0964C27.7893 18.0853 27.3262 18.1954 26.9209 18.4159L27.2077 18.9429ZM25.6939 19.3045C26.2198 19.3045 26.7381 19.1819 27.2003 18.9468L26.9283 18.412C26.5521 18.6033 26.1272 18.7045 25.6939 18.7045V19.3045ZM24.1876 18.9468C24.6497 19.1819 25.1681 19.3045 25.6939 19.3045V18.7045C25.2607 18.7045 24.8358 18.6033 24.4596 18.412L24.1876 18.9468ZM23.1379 18.6964C23.5065 18.6964 23.8678 18.783 24.1868 18.9464L24.4604 18.4124C24.0549 18.2047 23.5997 18.0964 23.1379 18.0964V18.6964ZM22.089 18.9464C22.4081 18.783 22.7693 18.6964 23.1379 18.6964V18.0964C22.6762 18.0964 22.2209 18.2047 21.8154 18.4124L22.089 18.9464ZM20.5829 19.3045C21.1084 19.3045 21.6265 19.1818 22.0883 18.9468L21.8161 18.4121C21.4403 18.6033 21.0158 18.7045 20.5829 18.7045V19.3045ZM19.0774 18.9468C19.5392 19.1818 20.0573 19.3045 20.5829 19.3045V18.7045C20.15 18.7045 19.7254 18.6033 19.3496 18.4121L19.0774 18.9468ZM18.0278 18.6964C18.3964 18.6964 18.7577 18.783 19.0768 18.9464L19.3503 18.4124C18.9448 18.2047 18.4896 18.0964 18.0278 18.0964V18.6964ZM16.9789 18.9464C17.298 18.783 17.6592 18.6964 18.0278 18.6964V18.0964C17.5661 18.0964 17.1108 18.2047 16.7054 18.4124L16.9789 18.9464ZM15.4728 19.3045C15.9984 19.3045 16.5164 19.1818 16.9782 18.9468L16.706 18.4121C16.3303 18.6033 15.9057 18.7045 15.4728 18.7045V19.3045ZM13.9674 18.9468C14.4292 19.1818 14.9472 19.3045 15.4728 19.3045V18.7045C15.0399 18.7045 14.6153 18.6033 14.2396 18.4121L13.9674 18.9468ZM12.9271 18.6962C13.2915 18.6873 13.6497 18.7735 13.9597 18.9427L14.2472 18.4161C13.8426 18.1952 13.3798 18.085 12.9124 18.0964L12.9271 18.6962ZM11.8774 18.9429C12.1884 18.7737 12.5474 18.6876 12.9126 18.6962L12.9269 18.0964C12.4591 18.0853 11.996 18.1954 11.5907 18.4159L11.8774 18.9429ZM10.3586 19.3044C10.8895 19.3152 11.4146 19.191 11.8758 18.9438L11.5923 18.415C11.224 18.6124 10.801 18.7133 10.3708 18.7046L10.3586 19.3044ZM8.85315 18.9435C9.31423 19.1918 9.83999 19.3162 10.3714 19.3044L10.3581 18.7046C9.92814 18.7141 9.50527 18.6132 9.13761 18.4153L8.85315 18.9435ZM7.81646 18.6962C8.18185 18.688 8.54097 18.7742 8.85233 18.9431L9.13843 18.4157C8.73313 18.1958 8.27041 18.0858 7.80291 18.0964L7.81646 18.6962ZM6.76736 18.9429C7.07832 18.7737 7.43733 18.6876 7.80256 18.6962L7.81681 18.0964C7.34902 18.0853 6.8859 18.1954 6.48061 18.4159L6.76736 18.9429ZM5.24856 19.3044C5.77945 19.3152 6.30458 19.191 6.76572 18.9438L6.48225 18.415C6.11394 18.6124 5.69093 18.7133 5.26074 18.7046L5.24856 19.3044ZM3.74324 18.9436C4.20434 19.1916 4.72989 19.3159 5.2611 19.3044L5.24819 18.7046C4.81817 18.7138 4.39525 18.613 4.02737 18.4152L3.74324 18.9436ZM2.7066 18.6962C3.07189 18.6877 3.43095 18.7739 3.74206 18.943L4.02855 18.4158C3.62326 18.1956 3.1603 18.0855 2.69263 18.0964L2.7066 18.6962ZM2.35595 18.5642C2.45127 18.6514 2.57528 18.6963 2.69961 18.6963V18.0963C2.71806 18.0963 2.74053 18.1028 2.76098 18.1215L2.35595 18.5642ZM2.2 18.2137C2.2 18.3507 2.25974 18.4761 2.35595 18.5642L2.76098 18.1215C2.78232 18.141 2.8 18.1735 2.8 18.2137H2.2ZM2.35595 17.8632C2.25974 17.9512 2.2 18.0766 2.2 18.2137H2.8C2.8 18.2538 2.78232 18.2863 2.76098 18.3059L2.35595 17.8632ZM2.69961 17.731C2.57529 17.731 2.45127 17.776 2.35595 17.8632L2.76098 18.3059C2.74052 18.3246 2.71806 18.331 2.69961 18.331V17.731ZM4.21135 18.0921C3.7503 17.8434 3.22432 17.719 2.69279 17.7311L2.70643 18.331C3.13629 18.3212 3.55912 18.422 3.92655 18.6202L4.21135 18.0921ZM5.24816 18.3393C4.88263 18.3472 4.52342 18.261 4.21174 18.0923L3.92616 18.62C4.33147 18.8393 4.79388 18.9493 5.26114 18.9392L5.24816 18.3393ZM6.29788 18.0921C5.9858 18.2605 5.62649 18.3468 5.26079 18.3393L5.24851 18.9392C5.71548 18.9487 6.17749 18.8389 6.58281 18.6201L6.29788 18.0921ZM7.81669 17.7311C7.28501 17.7187 6.75881 17.8432 6.29778 18.0922L6.58291 18.6201C6.95012 18.4218 7.37291 18.3209 7.80268 18.331L7.81669 17.7311ZM9.32142 18.0921C8.86037 17.8434 8.33439 17.719 7.80287 17.7311L7.8165 18.331C8.24636 18.3212 8.6692 18.422 9.03662 18.6202L9.32142 18.0921ZM10.3582 18.3393C9.9927 18.3472 9.63349 18.261 9.32181 18.0923L9.03623 18.62C9.44155 18.8393 9.90395 18.9493 10.3712 18.9392L10.3582 18.3393ZM11.4056 18.0923C11.0945 18.2608 10.7359 18.347 10.371 18.3393L10.3584 18.9392C10.825 18.949 11.2866 18.8391 11.6913 18.6199L11.4056 18.0923ZM12.9267 17.7311C12.3945 17.7188 11.8678 17.8432 11.4061 18.0921L11.6908 18.6202C12.0588 18.4218 12.4823 18.321 12.9128 18.331L12.9267 17.7311ZM14.4299 18.0923C13.9695 17.8432 13.4439 17.7186 12.9127 17.7311L12.9268 18.331C13.3559 18.3209 13.7779 18.4217 14.1443 18.62L14.4299 18.0923ZM15.4728 18.3391C15.1042 18.3391 14.7429 18.2526 14.4239 18.0891L14.1503 18.6231C14.5558 18.8308 15.011 18.9391 15.4728 18.9391V18.3391ZM16.5217 18.0891C16.2027 18.2526 15.8414 18.3391 15.4728 18.3391V18.9391C15.9346 18.9391 16.3898 18.8308 16.7953 18.6231L16.5217 18.0891ZM18.0278 17.7311C17.5023 17.7311 16.9842 17.8537 16.5224 18.0888L16.7946 18.6235C17.1704 18.4322 17.5949 18.3311 18.0278 18.3311V17.7311ZM19.5333 18.0888C19.0715 17.8537 18.5534 17.7311 18.0278 17.7311V18.3311C18.4607 18.3311 18.8853 18.4322 19.2611 18.6235L19.5333 18.0888ZM20.5829 18.3391C20.2143 18.3391 19.853 18.2526 19.5339 18.0891L19.2604 18.6231C19.6659 18.8308 20.1211 18.9391 20.5829 18.9391V18.3391ZM21.6318 18.0891C21.3127 18.2526 20.9515 18.3391 20.5829 18.3391V18.9391C21.0446 18.9391 21.4999 18.8308 21.9053 18.6231L21.6318 18.0891ZM23.1379 17.7311C22.6123 17.7311 22.0943 17.8537 21.6325 18.0888L21.9047 18.6235C22.2804 18.4322 22.705 18.3311 23.1379 18.3311V17.7311ZM24.6433 18.0888C24.1815 17.8537 23.6635 17.7311 23.1379 17.7311V18.3311C23.5708 18.3311 23.9954 18.4322 24.3711 18.6235L24.6433 18.0888ZM25.6929 18.3391C25.3243 18.3391 24.9631 18.2526 24.644 18.0891L24.3705 18.6231C24.776 18.8308 25.2312 18.9391 25.6929 18.9391V18.3391ZM26.7419 18.0891C26.4228 18.2526 26.0616 18.3391 25.6929 18.3391V18.9391C26.1547 18.9391 26.6099 18.8308 27.0154 18.6231L26.7419 18.0891ZM28.2566 20.0963C27.7252 20.0845 27.1993 20.2081 26.7373 20.4549L27.02 20.9841C27.389 20.7869 27.8127 20.6866 28.2433 20.6962L28.2566 20.0963ZM28.5936 20.2284C28.4983 20.1412 28.3743 20.0962 28.25 20.0962V20.6962C28.2315 20.6962 28.2091 20.6898 28.1886 20.6711L28.5936 20.2284ZM28.7496 20.5789C28.7496 20.4418 28.6899 20.3164 28.5936 20.2284L28.1886 20.6711C28.1673 20.6515 28.1496 20.619 28.1496 20.5789H28.7496ZM28.5936 20.9294C28.6899 20.8413 28.7496 20.7159 28.7496 20.5789H28.1496C28.1496 20.5387 28.1673 20.5062 28.1886 20.4867L28.5936 20.9294ZM28.25 21.0615C28.3743 21.0615 28.4983 21.0166 28.5936 20.9293L28.1886 20.4867C28.2091 20.468 28.2315 20.4615 28.25 20.4615V21.0615ZM27.2077 21.3081C27.5186 21.1389 27.8776 21.0527 28.2428 21.0614L28.2571 20.4616C27.7893 20.4505 27.3262 20.5606 26.9209 20.7811L27.2077 21.3081ZM25.6939 21.6697C26.2198 21.6697 26.7381 21.5471 27.2003 21.312L26.9283 20.7772C26.5521 20.9685 26.1272 21.0697 25.6939 21.0697V21.6697ZM24.1876 21.312C24.6497 21.5471 25.1681 21.6697 25.6939 21.6697V21.0697C25.2607 21.0697 24.8358 20.9685 24.4596 20.7772L24.1876 21.312ZM23.1379 21.0616C23.5065 21.0616 23.8678 21.1482 24.1868 21.3116L24.4604 20.7776C24.0549 20.5699 23.5997 20.4616 23.1379 20.4616V21.0616ZM22.089 21.3116C22.4081 21.1482 22.7693 21.0616 23.1379 21.0616V20.4616C22.6762 20.4616 22.2209 20.5699 21.8154 20.7776L22.089 21.3116ZM20.5829 21.6697C21.1084 21.6697 21.6265 21.547 22.0883 21.312L21.8161 20.7773C21.4403 20.9685 21.0158 21.0697 20.5829 21.0697V21.6697ZM19.0774 21.312C19.5392 21.547 20.0573 21.6697 20.5829 21.6697V21.0697C20.15 21.0697 19.7254 20.9685 19.3496 20.7773L19.0774 21.312ZM18.0278 21.0616C18.3964 21.0616 18.7577 21.1482 19.0768 21.3116L19.3503 20.7776C18.9448 20.5699 18.4896 20.4616 18.0278 20.4616V21.0616ZM16.9789 21.3116C17.298 21.1482 17.6592 21.0616 18.0278 21.0616V20.4616C17.5661 20.4616 17.1108 20.5699 16.7054 20.7776L16.9789 21.3116ZM15.4728 21.6697C15.9984 21.6697 16.5164 21.547 16.9782 21.312L16.706 20.7773C16.3303 20.9685 15.9057 21.0697 15.4728 21.0697V21.6697ZM13.9674 21.312C14.4292 21.547 14.9472 21.6697 15.4728 21.6697V21.0697C15.0399 21.0697 14.6153 20.9685 14.2396 20.7773L13.9674 21.312ZM12.9271 21.0614C13.2915 21.0525 13.6497 21.1387 13.9597 21.3079L14.2472 20.7813C13.8426 20.5604 13.3798 20.4502 12.9124 20.4616L12.9271 21.0614ZM11.8774 21.3081C12.1884 21.1389 12.5474 21.0527 12.9126 21.0614L12.9269 20.4616C12.4591 20.4505 11.996 20.5606 11.5907 20.7811L11.8774 21.3081ZM10.3586 21.6696C10.8895 21.6804 11.4146 21.5562 11.8758 21.309L11.5923 20.7802C11.224 20.9776 10.801 21.0785 10.3708 21.0698L10.3586 21.6696ZM8.85315 21.3087C9.31423 21.557 9.83999 21.6814 10.3714 21.6696L10.3581 21.0698C9.92814 21.0793 9.50527 20.9784 9.13761 20.7805L8.85315 21.3087ZM7.81646 21.0614C8.18185 21.0532 8.54097 21.1394 8.85233 21.3083L9.13843 20.7809C8.73313 20.561 8.27041 20.451 7.80291 20.4616L7.81646 21.0614ZM6.76736 21.3081C7.07832 21.1389 7.43733 21.0527 7.80256 21.0614L7.81681 20.4616C7.34902 20.4505 6.8859 20.5606 6.48061 20.7811L6.76736 21.3081ZM5.24856 21.6696C5.77945 21.6804 6.30458 21.5562 6.76572 21.309L6.48225 20.7802C6.11394 20.9776 5.69093 21.0785 5.26074 21.0698L5.24856 21.6696ZM3.74324 21.3088C4.20434 21.5567 4.72989 21.6811 5.2611 21.6696L5.24819 21.0698C4.81817 21.079 4.39525 20.9782 4.02737 20.7804L3.74324 21.3088ZM2.7066 21.0614C3.07189 21.0529 3.43095 21.1391 3.74206 21.3082L4.02855 20.781C3.62326 20.5608 3.1603 20.4507 2.69263 20.4616L2.7066 21.0614ZM2.35595 20.9293C2.45127 21.0166 2.57529 21.0615 2.69961 21.0615V20.4615C2.71806 20.4615 2.74053 20.468 2.76098 20.4867L2.35595 20.9293ZM2.2 20.5789C2.2 20.7159 2.25974 20.8413 2.35595 20.9294L2.76098 20.4867C2.78233 20.5062 2.8 20.5387 2.8 20.5789H2.2ZM2.35595 20.2284C2.25974 20.3164 2.2 20.4418 2.2 20.5789H2.8C2.8 20.619 2.78232 20.6515 2.76098 20.6711L2.35595 20.2284ZM2.69961 20.0962C2.57529 20.0962 2.45127 20.1412 2.35595 20.2284L2.76098 20.6711C2.74052 20.6898 2.71806 20.6962 2.69961 20.6962V20.0962ZM4.21032 20.4549C3.74896 20.2084 3.22386 20.0849 2.69317 20.0963L2.70605 20.6962C3.13607 20.6869 3.55908 20.7872 3.92759 20.9841L4.21032 20.4549ZM5.24785 20.7045C4.88249 20.7128 4.52349 20.626 4.21282 20.4563L3.92508 20.9828C4.33015 21.2041 4.79338 21.315 5.26145 21.3043L5.24785 20.7045ZM6.2968 20.4561C5.98572 20.6256 5.62663 20.7123 5.26109 20.7045L5.24821 21.3044C5.71598 21.3144 6.17881 21.2037 6.58389 20.9829L6.2968 20.4561ZM7.81613 20.0963C7.28544 20.0849 6.76034 20.2084 6.29898 20.4549L6.58171 20.9841C6.95022 20.7872 7.37323 20.6869 7.80324 20.6962L7.81613 20.0963ZM9.32039 20.4549C8.85903 20.2084 8.33393 20.0849 7.80324 20.0963L7.81613 20.6962C8.24614 20.6869 8.66915 20.7872 9.03766 20.9841L9.32039 20.4549ZM10.3579 20.7045C9.99256 20.7128 9.63356 20.626 9.32289 20.4563L9.03516 20.9828C9.44022 21.2041 9.90345 21.315 10.3715 21.3043L10.3579 20.7045ZM11.4042 20.4564C11.0945 20.6262 10.7362 20.7129 10.3716 20.7045L10.3578 21.3043C10.8254 21.3151 11.2882 21.2042 11.6926 20.9826L11.4042 20.4564ZM12.9264 20.0963C12.395 20.0845 11.8691 20.2081 11.407 20.4549L11.6898 20.9841C12.0588 20.7869 12.4825 20.6866 12.9131 20.6962L12.9264 20.0963ZM14.429 20.4552C13.9683 20.208 13.4434 20.0843 12.913 20.0963L12.9265 20.6962C13.3557 20.6865 13.7779 20.7867 14.1452 20.9838L14.429 20.4552ZM15.4728 20.7044C15.1042 20.7044 14.7431 20.6173 14.4247 20.4529L14.1495 20.9861C14.5548 21.1953 15.0105 21.3044 15.4728 21.3044V20.7044ZM16.5209 20.4529C16.2025 20.6173 15.8414 20.7044 15.4728 20.7044V21.3044C15.9351 21.3044 16.3908 21.1953 16.7961 20.9861L16.5209 20.4529ZM18.0278 20.0963C17.5028 20.0963 16.9851 20.2181 16.5231 20.4518L16.7939 20.9872C17.1703 20.7968 17.5949 20.6963 18.0278 20.6963V20.0963ZM19.5326 20.4518C19.0705 20.2181 18.5529 20.0963 18.0278 20.0963V20.6963C18.4607 20.6963 18.8854 20.7968 19.2618 20.9872L19.5326 20.4518ZM20.5829 20.7044C20.2143 20.7044 19.8532 20.6173 19.5348 20.4529L19.2596 20.9861C19.6649 21.1953 20.1206 21.3044 20.5829 21.3044V20.7044ZM21.631 20.4529C21.3126 20.6173 20.9514 20.7044 20.5829 20.7044V21.3044C21.0452 21.3044 21.5009 21.1953 21.9062 20.9861L21.631 20.4529ZM23.1379 20.0963C22.6128 20.0963 22.0952 20.2181 21.6332 20.4518L21.904 20.9872C22.2803 20.7968 22.705 20.6963 23.1379 20.6963V20.0963ZM24.6426 20.4518C24.1806 20.2181 23.663 20.0963 23.1379 20.0963V20.6963C23.5708 20.6963 23.9955 20.7968 24.3718 20.9872L24.6426 20.4518ZM25.6929 20.7044C25.3244 20.7044 24.9633 20.6173 24.6448 20.4529L24.3697 20.9861C24.7749 21.1953 25.2306 21.3044 25.6929 21.3044V20.7044ZM26.741 20.4529C26.4226 20.6173 26.0615 20.7044 25.6929 20.7044V21.3044C26.1553 21.3044 26.611 21.1953 27.0162 20.9861L26.741 20.4529ZM28.2566 22.4615C27.7252 22.4497 27.1993 22.5733 26.7373 22.8201L27.02 23.3493C27.389 23.1521 27.8127 23.0518 28.2433 23.0614L28.2566 22.4615ZM28.5936 22.5936C28.4983 22.5064 28.3743 22.4614 28.25 22.4614V23.0614C28.2315 23.0614 28.2091 23.055 28.1886 23.0363L28.5936 22.5936ZM28.7496 22.9441C28.7496 22.807 28.6899 22.6816 28.5936 22.5936L28.1886 23.0363C28.1673 23.0167 28.1496 22.9842 28.1496 22.9441H28.7496ZM28.5936 23.2945C28.6898 23.2065 28.7496 23.0811 28.7496 22.9441H28.1496C28.1496 22.9039 28.1673 22.8714 28.1886 22.8519L28.5936 23.2945ZM28.25 23.4267C28.3743 23.4267 28.4983 23.3818 28.5936 23.2945L28.1886 22.8519C28.2091 22.8332 28.2315 22.8267 28.25 22.8267V23.4267ZM27.2064 23.6685C27.5179 23.501 27.8769 23.4165 28.2416 23.4266L28.2583 22.8268C27.7912 22.8138 27.3281 22.9218 26.9222 23.1401L27.2064 23.6685ZM25.6939 24.0275C26.2193 24.0275 26.7372 23.9057 27.1996 23.6721L26.929 23.1366C26.5522 23.327 26.1272 23.4275 25.6939 23.4275V24.0275ZM24.1883 23.6721C24.6507 23.9057 25.1686 24.0275 25.6939 24.0275V23.4275C25.2607 23.4275 24.8357 23.327 24.4589 23.1366L24.1883 23.6721ZM23.1379 23.4213C23.5065 23.4213 23.8678 23.5079 24.1868 23.6713L24.4604 23.1373C24.0549 22.9296 23.5997 22.8213 23.1379 22.8213V23.4213ZM22.089 23.6713C22.4081 23.5079 22.7693 23.4213 23.1379 23.4213V22.8213C22.6762 22.8213 22.2209 22.9296 21.8154 23.1373L22.089 23.6713ZM20.5829 24.0276C21.1079 24.0276 21.6256 23.9057 22.0876 23.672L21.8168 23.1366C21.4404 23.327 21.0158 23.4276 20.5829 23.4276V24.0276ZM19.0781 23.672C19.5402 23.9057 20.0578 24.0276 20.5829 24.0276V23.4276C20.15 23.4276 19.7253 23.327 19.3489 23.1366L19.0781 23.672ZM18.0278 23.4213C18.3964 23.4213 18.7577 23.5079 19.0768 23.6713L19.3503 23.1373C18.9448 22.9296 18.4896 22.8213 18.0278 22.8213V23.4213ZM16.9789 23.6713C17.298 23.5079 17.6592 23.4213 18.0278 23.4213V22.8213C17.5661 22.8213 17.1108 22.9296 16.7054 23.1373L16.9789 23.6713ZM15.4728 24.0276C15.9979 24.0276 16.5155 23.9057 16.9775 23.672L16.7067 23.1366C16.3304 23.327 15.9057 23.4276 15.4728 23.4276V24.0276ZM13.9681 23.672C14.4301 23.9057 14.9477 24.0276 15.4728 24.0276V23.4276C15.0399 23.4276 14.6152 23.327 14.2389 23.1366L13.9681 23.672ZM12.9271 23.4211C13.2915 23.4122 13.6497 23.4984 13.9597 23.6676L14.2472 23.141C13.8426 22.9201 13.3798 22.8099 12.9124 22.8213L12.9271 23.4211ZM11.8774 23.6678C12.1884 23.4987 12.5474 23.4125 12.9126 23.4211L12.9269 22.8213C12.4591 22.8102 11.996 22.9203 11.5907 23.1408L11.8774 23.6678ZM10.3593 24.033C10.8906 24.0426 11.4158 23.917 11.8765 23.6683L11.5916 23.1403C11.2237 23.3389 10.8007 23.4409 10.3701 23.4331L10.3593 24.033ZM8.85247 23.6681C9.31312 23.9177 9.83887 24.0434 10.3706 24.033L10.3588 23.4331C9.92852 23.4416 9.50563 23.3396 9.1383 23.1406L8.85247 23.6681ZM7.81646 23.4212C8.18185 23.4129 8.54097 23.4991 8.85233 23.668L9.13843 23.1406C8.73313 22.9208 8.27041 22.8108 7.80291 22.8213L7.81646 23.4212ZM6.76736 23.6678C7.07832 23.4987 7.43733 23.4125 7.80256 23.4211L7.81681 22.8213C7.34902 22.8102 6.8859 22.9203 6.48061 23.1408L6.76736 23.6678ZM5.24925 24.033C5.78057 24.0426 6.30574 23.917 6.76646 23.6683L6.48151 23.1403C6.11359 23.3389 5.69058 23.4409 5.26005 23.4331L5.24925 24.033ZM3.74283 23.6683C4.20356 23.917 4.72873 24.0426 5.26005 24.033L5.24925 23.4331C4.81872 23.4409 4.39571 23.3389 4.02778 23.1403L3.74283 23.6683ZM2.7078 23.4266C3.07258 23.4166 3.43164 23.5012 3.74335 23.6686L4.02727 23.14C3.62133 22.922 3.15845 22.8141 2.69143 22.8268L2.7078 23.4266ZM2.35595 23.2945C2.45127 23.3818 2.57528 23.4267 2.69961 23.4267V22.8267C2.71806 22.8267 2.74053 22.8332 2.76098 22.8519L2.35595 23.2945ZM2.2 22.9441C2.2 23.0811 2.25974 23.2065 2.35595 23.2945L2.76098 22.8519C2.78232 22.8714 2.8 22.9039 2.8 22.9441H2.2ZM2.35596 22.5936C2.25974 22.6816 2.2 22.807 2.2 22.9441H2.8C2.8 22.9842 2.78233 23.0167 2.76097 23.0363L2.35596 22.5936ZM2.69961 22.4614C2.57528 22.4614 2.45127 22.5064 2.35595 22.5936L2.76098 23.0363C2.74053 23.055 2.71806 23.0614 2.69961 23.0614V22.4614ZM4.21032 22.8201C3.74896 22.5736 3.22386 22.4501 2.69317 22.4615L2.70605 23.0614C3.13607 23.0521 3.55908 23.1524 3.92759 23.3493L4.21032 22.8201ZM5.24752 23.0679C4.8823 23.0766 4.52328 22.9904 4.21233 22.8212L3.92558 23.3482C4.33086 23.5687 4.79398 23.6788 5.26178 23.6677L5.24752 23.0679ZM6.2973 22.821C5.98594 22.9899 5.62682 23.0761 5.26142 23.0679L5.24788 23.6677C5.71537 23.6783 6.17809 23.5683 6.58339 23.3484L6.2973 22.821ZM7.81613 22.4615C7.28544 22.4501 6.76034 22.5736 6.29898 22.8201L6.58171 23.3493C6.95022 23.1524 7.37323 23.0521 7.80324 23.0614L7.81613 22.4615ZM9.32039 22.8201C8.85903 22.5736 8.33393 22.4501 7.80324 22.4615L7.81613 23.0614C8.24614 23.0521 8.66915 23.1524 9.03766 23.3493L9.32039 22.8201ZM10.3576 23.0679C9.99237 23.0766 9.63335 22.9904 9.3224 22.8212L9.03565 23.3482C9.44093 23.5687 9.90406 23.6788 10.3718 23.6677L10.3576 23.0679ZM11.4047 22.8214C11.0947 22.9906 10.7365 23.0768 10.372 23.0679L10.3574 23.6677C10.8248 23.6791 11.2876 23.5689 11.6922 23.348L11.4047 22.8214ZM12.9264 22.4615C12.395 22.4497 11.8691 22.5733 11.407 22.8201L11.6898 23.3493C12.0588 23.1521 12.4825 23.0518 12.9131 23.0614L12.9264 22.4615ZM14.429 22.8204C13.9683 22.5732 13.4434 22.4495 12.913 22.4615L12.9265 23.0614C13.3557 23.0516 13.7779 23.1519 14.1452 23.349L14.429 22.8204ZM15.4728 23.0677C15.1042 23.0677 14.7429 22.9811 14.4239 22.8177L14.1503 23.3517C14.5558 23.5594 15.011 23.6677 15.4728 23.6677V23.0677ZM16.5217 22.8177C16.2027 22.9811 15.8414 23.0677 15.4728 23.0677V23.6677C15.9346 23.6677 16.3898 23.5594 16.7953 23.3517L16.5217 22.8177ZM18.0278 22.4615C17.5028 22.4615 16.9851 22.5833 16.5231 22.817L16.7939 23.3524C17.1703 23.162 17.5949 23.0615 18.0278 23.0615V22.4615ZM19.5326 22.817C19.0705 22.5833 18.5529 22.4615 18.0278 22.4615V23.0615C18.4607 23.0615 18.8854 23.162 19.2618 23.3524L19.5326 22.817ZM20.5829 23.0677C20.2143 23.0677 19.853 22.9811 19.5339 22.8177L19.2604 23.3517C19.6659 23.5594 20.1211 23.6677 20.5829 23.6677V23.0677ZM21.6318 22.8177C21.3127 22.9811 20.9515 23.0677 20.5829 23.0677V23.6677C21.0446 23.6677 21.4999 23.5594 21.9053 23.3517L21.6318 22.8177ZM23.1379 22.4615C22.6128 22.4615 22.0952 22.5833 21.6332 22.817L21.904 23.3524C22.2803 23.162 22.705 23.0615 23.1379 23.0615V22.4615ZM24.6426 22.817C24.1806 22.5833 23.663 22.4615 23.1379 22.4615V23.0615C23.5708 23.0615 23.9955 23.162 24.3718 23.3524L24.6426 22.817ZM25.6929 23.0677C25.3243 23.0677 24.9631 22.9811 24.644 22.8177L24.3705 23.3517C24.776 23.5594 25.2312 23.6677 25.6929 23.6677V23.0677ZM26.7419 22.8177C26.4228 22.9811 26.0616 23.0677 25.6929 23.0677V23.6677C26.1547 23.6677 26.6099 23.5594 27.0154 23.3517L26.7419 22.8177Z" fill="#0F1015" mask="url(#path-1-outside-1_3356_17558)"/>
</svg>
