<svg width="30" height="30" viewBox="0 0 30 30" fill="none" xmlns="http://www.w3.org/2000/svg">
<path d="M22.8763 23.6602L23.6519 23.2008C25.2596 22.2488 26.25 20.4893 26.25 18.5851V11.4149C26.25 9.51075 25.2596 7.75123 23.6519 6.79915L17.5981 3.21406C15.9904 2.26198 14.0096 2.26198 12.4019 3.21406L6.34808 6.79915C4.74038 7.75123 3.75 9.51075 3.75 11.4149V18.5851C3.75 20.4893 4.74038 22.2488 6.34808 23.2008L7.1237 23.6602M22.8763 23.6602L17.5981 26.7859C15.9904 27.738 14.0096 27.738 12.4019 26.7859L7.1237 23.6602M22.8763 23.6602C21.3039 20.8727 18.3655 18.9974 15 18.9974C11.6345 18.9974 8.69608 20.8727 7.1237 23.6602" stroke="#0F1015" stroke-width="1.5" stroke-linejoin="round"/>
<circle cx="3.75" cy="3.75" r="3.75" transform="matrix(1 0 0 -1 11.25 15)" stroke="#0F1015" stroke-width="1.5" stroke-linejoin="round"/>
</svg>
