<svg width="30" height="30" viewBox="0 0 30 30" fill="none" xmlns="http://www.w3.org/2000/svg">
<g clip-path="url(#clip0_3356_17638)">
<path d="M27.4038 14.7113H23.9423V12.9806H25.9615C27.393 12.9806 28.5577 11.816 28.5577 10.3844V5.76902C28.5577 4.33752 27.3931 3.17285 25.9615 3.17285H4.03846C2.60695 3.17285 1.44229 4.33746 1.44229 5.76902V10.3844C1.44229 11.8159 2.60689 12.9806 4.03846 12.9806H6.05771V14.7113H2.59617C1.16461 14.7113 0 15.8759 0 17.3075V18.4613C0 19.8928 1.16461 21.0575 2.59617 21.0575V24.8075C2.59617 25.9209 3.50197 26.8267 4.61543 26.8267H5.76926C6.88266 26.8267 7.78852 25.9209 7.78852 24.8075V21.0575H22.2116V24.8075C22.2116 25.9209 23.1174 26.8267 24.2309 26.8267H25.3847C26.4981 26.8267 27.4039 25.9209 27.4039 24.8075V21.0575C28.8354 21.0575 30.0001 19.8929 30.0001 18.4613V17.3075C30 15.8759 28.8354 14.7113 27.4038 14.7113ZM4.03846 11.2498C3.56127 11.2498 3.17309 10.8616 3.17309 10.3844V5.76902C3.17309 5.29184 3.56127 4.90365 4.03846 4.90365H25.9615C26.4387 4.90365 26.8269 5.29184 26.8269 5.76902V10.3844C26.8269 10.8616 26.4387 11.2498 25.9615 11.2498H4.03846ZM22.2115 12.9805V14.7113H7.78846V12.9805H22.2115ZM6.05771 24.8075C6.05764 24.884 6.02722 24.9573 5.97314 25.0114C5.91906 25.0654 5.84574 25.0959 5.76926 25.0959H4.61537C4.53889 25.0959 4.46557 25.0654 4.41149 25.0114C4.35741 24.9573 4.32699 24.884 4.32691 24.8075V21.0575H6.05771V24.8075ZM25.6731 24.8075C25.673 24.884 25.6426 24.9573 25.5885 25.0113C25.5344 25.0654 25.4611 25.0958 25.3846 25.0959H24.2308C24.1543 25.0959 24.081 25.0654 24.0269 25.0114C23.9728 24.9573 23.9424 24.884 23.9423 24.8075V21.0575H25.6731V24.8075H25.6731ZM28.2693 18.4613C28.2693 18.9385 27.8811 19.3267 27.4039 19.3267H2.59617C2.11898 19.3267 1.7308 18.9385 1.7308 18.4613V17.3075C1.7308 16.8303 2.11898 16.4421 2.59617 16.4421H27.4039C27.8811 16.4421 28.2693 16.8303 28.2693 17.3075V18.4613Z" fill="#0F1015"/>
</g>
<defs>
<clipPath id="clip0_3356_17638">
<rect width="30" height="30" fill="white"/>
</clipPath>
</defs>
</svg>
