<svg width="30" height="30" viewBox="0 0 30 30" fill="none" xmlns="http://www.w3.org/2000/svg">
<path fill-rule="evenodd" clip-rule="evenodd" d="M3.82652 10.2742C6.77278 7.57994 10.6936 5.9375 15.0002 5.9375C19.3068 5.9375 23.2276 7.57994 26.1738 10.2742C26.5559 10.6237 27.1489 10.5972 27.4984 10.2151C27.8478 9.83298 27.8213 9.23998 27.4392 8.89057C24.1609 5.89262 19.7932 4.0625 15.0002 4.0625C10.2072 4.0625 5.83949 5.89262 2.56118 8.89057C2.17909 9.23998 2.1526 9.83298 2.50202 10.2151C2.85143 10.5972 3.44443 10.6237 3.82652 10.2742ZM7.85156 15.0673C9.70624 13.283 12.2243 12.1875 15.0002 12.1875C17.7761 12.1875 20.2941 13.283 22.1488 15.0673C22.5219 15.4263 23.1154 15.4148 23.4744 15.0417C23.8334 14.6685 23.8219 14.075 23.4487 13.7161C21.2588 11.6093 18.28 10.3125 15.0002 10.3125C11.7204 10.3125 8.74157 11.6093 6.55163 13.7161C6.1785 14.075 6.16701 14.6685 6.52598 15.0417C6.88494 15.4148 7.47842 15.4263 7.85156 15.0673ZM11.9332 19.8358C12.6794 18.9777 13.7762 18.4375 15.0002 18.4375C16.2242 18.4375 17.321 18.9777 18.0672 19.8358C18.407 20.2265 18.9991 20.2678 19.3898 19.9281C19.7805 19.5883 19.8218 18.9962 19.4821 18.6055C18.3949 17.3552 16.7896 16.5625 15.0002 16.5625C13.2108 16.5625 11.6055 17.3552 10.5183 18.6055C10.1785 18.9962 10.2198 19.5883 10.6106 19.9281C11.0013 20.2678 11.5934 20.2265 11.9332 19.8358ZM15.0002 25C15.6905 25 16.2502 24.4404 16.2502 23.75C16.2502 23.0596 15.6905 22.5 15.0002 22.5C14.3098 22.5 13.7502 23.0596 13.7502 23.75C13.7502 24.4404 14.3098 25 15.0002 25Z" fill="#0F1015"/>
</svg>
