<?xml version="1.0" encoding="utf-8"?><svg viewBox="0 0 24 24" xmlns="http://www.w3.org/2000/svg" xmlns:xlink="http://www.w3.org/1999/xlink"><style>:root>svg{display:none}:root>svg:target{display:block}</style><svg fill="none" viewBox="0 0 24 24" id="arrow-right" xmlns="http://www.w3.org/2000/svg">
    <path fill-rule="evenodd" clip-rule="evenodd" d="M18.53 11.47a.75.75 0 0 1 0 1.06l-4 4a.75.75 0 1 1-1.06-1.06l2.72-2.72H6a.75.75 0 0 1 0-1.5h10.19l-2.72-2.72a.75.75 0 0 1 1.06-1.06l4 4Z" fill="#fff"/>
</svg><svg fill="none" viewBox="0 0 24 24" id="plus" xmlns="http://www.w3.org/2000/svg">
    <path fill-rule="evenodd" clip-rule="evenodd" d="M12.75 6a.75.75 0 0 0-1.5 0v5.25H6a.75.75 0 0 0 0 1.5h5.25V18a.75.75 0 0 0 1.5 0v-5.25H18a.75.75 0 0 0 0-1.5h-5.25V6Z" fill="#0F1015"/>
</svg></svg>