<?xml version="1.0" encoding="utf-8"?><svg viewBox="0 0 24 24" xmlns="http://www.w3.org/2000/svg" xmlns:xlink="http://www.w3.org/1999/xlink"><style>:root>svg{display:none}:root>svg:target{display:block}</style><svg fill="none" viewBox="0 0 24 24" id="arrow-right" xmlns="http://www.w3.org/2000/svg">
    <path fill-rule="evenodd" clip-rule="evenodd" d="M18.53 11.47a.75.75 0 0 1 0 1.06l-4 4a.75.75 0 1 1-1.06-1.06l2.72-2.72H6a.75.75 0 0 1 0-1.5h10.19l-2.72-2.72a.75.75 0 0 1 1.06-1.06l4 4Z" fill="#fff"/>
</svg><svg fill="none" viewBox="0 0 24 24" id="facebook" xmlns="http://www.w3.org/2000/svg">
    <path d="M18 3h-3a5 5 0 0 0-5 5v2H6v4h4v7h4v-7h4v-4h-4V8a1 1 0 0 1 1-1h3V3Z" fill="#3E54EB"/>
</svg><svg fill="none" viewBox="0 0 24 24" id="linkedin" xmlns="http://www.w3.org/2000/svg">
    <path fill-rule="evenodd" clip-rule="evenodd" d="M6 4a2 2 0 1 1-4 0 2 2 0 0 1 4 0Zm0 4.5V22H2V8.5h4Zm3 0h4v.841A6 6 0 0 1 21 15v7h-4v-7a2 2 0 1 0-4 0v7H9V8.5Z" fill="#3E54EB"/>
</svg><svg fill="none" viewBox="0 0 24 24" id="plus" xmlns="http://www.w3.org/2000/svg">
    <path fill-rule="evenodd" clip-rule="evenodd" d="M12.75 6a.75.75 0 0 0-1.5 0v5.25H6a.75.75 0 0 0 0 1.5h5.25V18a.75.75 0 0 0 1.5 0v-5.25H18a.75.75 0 0 0 0-1.5h-5.25V6Z" fill="#0F1015"/>
</svg><svg fill="none" viewBox="0 0 24 24" id="x" xmlns="http://www.w3.org/2000/svg">
    <path d="M15.286 4c-2.104 0-3.81 1.79-3.81 4 0 .334.04.658.113.968-2.023 0-5.07-.409-7.615-2.958-.338-.34-.962-.113-.939.366.378 7.687 3.67 9.929 5.365 10.068-1.095 1.082-2.685 1.935-4.285 2.318-.423.101-.527.564-.114.698 1.145.372 2.784.516 3.666.54 6.241 0 11.313-5.253 11.426-11.778.82-.533 1.345-1.69 1.64-2.51.071-.199-.256-.431-.452-.35-.612.255-1.389.315-2.05.1C17.53 4.569 16.471 4 15.285 4Z" fill="#3E54EB"/>
</svg></svg>