<?xml version="1.0" encoding="utf-8"?><svg viewBox="0 0 25 24" xmlns="http://www.w3.org/2000/svg" xmlns:xlink="http://www.w3.org/1999/xlink"><style>:root>svg{display:none}:root>svg:target{display:block}</style><svg fill="none" viewBox="0 0 24 24" id="arrow-left" xmlns="http://www.w3.org/2000/svg">
    <path fill-rule="evenodd" clip-rule="evenodd" d="M5.47 12.53a.75.75 0 0 1 0-1.06l4-4a.75.75 0 1 1 1.06 1.06l-2.72 2.72H18a.75.75 0 0 1 0 1.5H7.81l2.72 2.72a.75.75 0 1 1-1.06 1.06l-4-4Z" fill="#0F1015"/>
</svg><svg fill="none" viewBox="0 0 24 24" id="arrow-right" xmlns="http://www.w3.org/2000/svg">
    <path fill-rule="evenodd" clip-rule="evenodd" d="M18.53 11.47a.75.75 0 0 1 0 1.06l-4 4a.75.75 0 1 1-1.06-1.06l2.72-2.72H6a.75.75 0 0 1 0-1.5h10.19l-2.72-2.72a.75.75 0 0 1 1.06-1.06l4 4Z" fill="#fff"/>
</svg><svg fill="none" viewBox="0 0 24 24" id="auto" xmlns="http://www.w3.org/2000/svg">
    <path d="M5.41 11.04a22.633 22.633 0 0 0-2.313-.22c-.339-.02-.787.156-.864 1.012-.014.216.006.432.061.64a1.112 1.112 0 0 0 .927.846l3.31.466a.375.375 0 0 0 .382-.546c-1.089-2.07-1.368-2.156-1.503-2.198Zm-2.085 1.536a.368.368 0 0 1-.302-.281 1.273 1.273 0 0 1-.043-.395.79.79 0 0 1 .075-.329h.011c.855.054 1.816.132 2.077.178.281.376.533.774.753 1.19l-2.57-.364ZM20.781 10.82a22.63 22.63 0 0 0-2.313.22c-.134.041-.414.127-1.504 2.2a.374.374 0 0 0 .382.546l3.31-.466a1.112 1.112 0 0 0 .926-.846c.055-.208.076-.424.061-.64-.076-.858-.526-1.034-.862-1.014Zm.075 1.475a.368.368 0 0 1-.303.28l-2.57.362c.22-.415.47-.813.752-1.19.265-.047 1.227-.124 2.082-.177a.686.686 0 0 1 .081.33c.007.133-.008.266-.043.395ZM17.13 11.389a.376.376 0 0 0-.34-.159c-.034.003-3.478.3-4.85.3-1.37 0-4.816-.3-4.85-.3a.374.374 0 0 0-.371.533l.987 2.095a.376.376 0 0 0 .318.215l3.915.224 3.92-.224a.376.376 0 0 0 .318-.215l.987-2.095a.374.374 0 0 0-.034-.374Zm-1.538 1.95-3.652.211-3.65-.211-.616-1.306c1.08.088 3.22.25 4.267.25 1.047 0 3.188-.162 4.268-.25l-.617 1.306ZM22.845 18.686a.375.375 0 0 0-.375.375v1.557a.132.132 0 0 1-.132.132H20.39a.132.132 0 0 1-.133-.132v-.642a.375.375 0 1 0-.75 0v.642a.883.883 0 0 0 .883.882h1.95a.884.884 0 0 0 .882-.882V19.06a.374.374 0 0 0-.377-.375ZM3.97 19.6a.375.375 0 0 0-.374.375v.642a.133.133 0 0 1-.132.133h-1.95a.132.132 0 0 1-.132-.133v-1.556a.375.375 0 0 0-.75 0v1.556a.883.883 0 0 0 .88.883h1.95a.883.883 0 0 0 .883-.883v-.642a.375.375 0 0 0-.374-.375Z" fill="#0F1015"/>
    <path d="m23.154 6.927-1.25-.216a.817.817 0 0 0-.9.484l-.068.15-.886-2.09a3.042 3.042 0 0 0-2.334-1.832A37.374 37.374 0 0 0 11.94 3a37.374 37.374 0 0 0-5.777.423 3.042 3.042 0 0 0-2.334 1.832L2.94 7.347 2.876 7.2a.82.82 0 0 0-.9-.49l-1.25.217A.868.868 0 0 0 0 7.784v.245a.872.872 0 0 0 .681.85l1.187.268-.526.803a4.244 4.244 0 0 0-.697 2.335v4.265c0 1.61 1.121 2.65 2.857 2.65h16.875c1.736 0 2.857-1.04 2.857-2.65v-4.267c0-.83-.242-1.642-.698-2.335l-.526-.8 1.183-.267a.873.873 0 0 0 .685-.85v-.246a.867.867 0 0 0-.724-.858ZM.843 8.145A.118.118 0 0 1 .75 8.03v-.245a.117.117 0 0 1 .1-.117l1.256-.217a.074.074 0 0 1 .083.05l.307.693-.187.285-1.466-.333Zm21.641 7.24H2.345a.375.375 0 1 0 0 .75h20.139v.415c0 1.189-.788 1.9-2.107 1.9H3.502c-1.32 0-2.107-.71-2.107-1.9v-4.267c0-.684.2-1.353.574-1.924l1.182-1.803h16.361a.375.375 0 0 0 0-.75H3.561l.958-2.256A2.294 2.294 0 0 1 6.28 4.166a36.512 36.512 0 0 1 5.66-.416c1.894-.009 3.786.13 5.659.414A2.294 2.294 0 0 1 19.36 5.55l1.096 2.583a.33.33 0 0 0 .032.06l1.422 2.168a3.5 3.5 0 0 1 .574 1.924v3.1Zm.644-7.356a.12.12 0 0 1-.096.117l-1.46.33-.188-.285.309-.7a.076.076 0 0 1 .081-.043l1.253.217a.117.117 0 0 1 .1.117l.001.247Z" fill="#0F1015"/>
</svg><svg fill="none" viewBox="0 0 24 24" id="badge-percent" xmlns="http://www.w3.org/2000/svg">
    <path d="M10 9a1 1 0 1 1-2 0 1 1 0 0 1 2 0ZM16 15a1 1 0 1 1-2 0 1 1 0 0 1 2 0Z" fill="#3E54EB"/>
    <path d="M10.054 2.658a3 3 0 0 1 3.892 0l.683.582a3 3 0 0 0 1.707.707l.894.071a3 3 0 0 1 2.752 2.752l.071.894a3 3 0 0 0 .707 1.707l.582.683a3 3 0 0 1 0 3.892l-.582.682a3 3 0 0 0-.707 1.707l-.071.895a3 3 0 0 1-2.752 2.751l-.894.072a3 3 0 0 0-1.707.707l-.683.582a3 3 0 0 1-3.892 0l-.682-.582a3 3 0 0 0-1.708-.707l-.894-.072A3 3 0 0 1 4.02 17.23l-.072-.893a3 3 0 0 0-.707-1.708l-.582-.682a3 3 0 0 1 0-3.892l.582-.683a3 3 0 0 0 .707-1.707l.072-.894A3 3 0 0 1 6.77 4.018l.894-.071a3 3 0 0 0 1.708-.707l.682-.582Z" stroke="#3E54EB" stroke-width="1.5"/>
    <path d="m9 15 6-6" stroke="#3E54EB" stroke-width="1.5" stroke-linecap="round"/>
</svg><svg fill="none" viewBox="0 0 24 24" id="bath" xmlns="http://www.w3.org/2000/svg">
    <g clip-path="url(#aea)" fill="#0F1015">
        <path d="M22.8 12.8h-.4V4.4c0-2-1.6-3.6-3.6-3.6-1.77 0-3.044 1.313-3.186 3.236A1.977 1.977 0 0 0 14 6c0 .24.16.4.4.4h3.2c.24 0 .4-.16.4-.4 0-.977-.67-1.77-1.583-1.958.12-1.271.883-2.442 2.383-2.442 1.56 0 2.8 1.24 2.8 2.8v8.4H9.561A1.977 1.977 0 0 0 7.6 11.2c-.4-.48-.96-.8-1.6-.8-.76 0-1.44.44-1.76 1.08-.32-.16-.68-.28-1.04-.28-.983 0-1.78.677-1.961 1.6H1.2c-.68 0-1.2.52-1.2 1.2 0 .68.52 1.2 1.2 1.2h.48l1.08 4.28a2.822 2.822 0 0 0 2.72 2.12h.32l-.52 1.04c-.12.2-.04.44.16.52.04.04.12.04.16.04.16 0 .28-.08.36-.2l.7-1.4h11.1l.68 1.36c.08.16.2.24.36.24.08 0 .12 0 .16-.08.16-.08.24-.32.16-.52l-.501-1.002a2.832 2.832 0 0 0 2.621-2.078l1.09-4.32h.47c.68 0 1.2-.52 1.2-1.2 0-.68-.52-1.2-1.2-1.2Zm-5.64-7.2h-2.28c.16-.48.64-.8 1.16-.8.52 0 .96.32 1.12.8ZM3.2 12c.36 0 .68.16.96.44.08.12.24.16.4.12.16-.04.24-.16.28-.32.12-.6.6-1.04 1.2-1.04.44 0 .84.2 1.04.6.08.16.28.24.44.2h.12c.52 0 .96.32 1.12.8H2.08c.16-.48.6-.8 1.12-.8Zm17.32 7.28c-.24.88-1.04 1.52-1.96 1.52H5.52c-.92 0-1.72-.64-1.96-1.52L2.52 15.2h18.96l-.96 4.08Zm2.28-4.88H1.2c-.24 0-.4-.16-.4-.4 0-.24.16-.4.4-.4h21.6c.24 0 .4.16.4.4 0 .24-.16.4-.4.4Z"/>
        <path d="M14.4 8.2c.24 0 .4-.16.4-.4v-.2c0-.24-.16-.4-.4-.4-.24 0-.4.16-.4.4v.2c0 .24.16.4.4.4ZM14.4 10.04c.24 0 .4-.2.4-.4V9.2c0-.24-.16-.4-.4-.4-.24 0-.4.16-.4.4v.44c0 .24.16.4.4.4ZM14.4 11.6c.24 0 .4-.16.4-.4V11c0-.24-.16-.4-.4-.4-.24 0-.4.16-.4.4v.2c0 .24.16.4.4.4ZM16 8.2c.24 0 .4-.16.4-.4v-.2c0-.24-.16-.4-.4-.4-.24 0-.4.16-.4.4v.2c0 .24.16.4.4.4ZM15.6 9.64c0 .24.16.4.4.4.24 0 .4-.2.4-.4V9.2c0-.24-.16-.4-.4-.4-.24 0-.4.16-.4.4v.44ZM15.6 11.2c0 .24.16.4.4.4.24 0 .4-.16.4-.4V11c0-.24-.16-.4-.4-.4-.24 0-.4.16-.4.4v.2ZM17.6 8.2c.24 0 .4-.16.4-.4v-.2c0-.24-.16-.4-.4-.4-.24 0-.4.16-.4.4v.2c0 .24.16.4.4.4ZM17.2 9.64c0 .24.16.4.4.4.24 0 .4-.2.4-.4V9.2c0-.24-.16-.4-.4-.4-.24 0-.4.16-.4.4v.44ZM17.2 11.2c0 .24.16.4.4.4.24 0 .4-.16.4-.4V11c0-.24-.16-.4-.4-.4-.24 0-.4.16-.4.4v.2Z"/>
    </g>
    <defs>
        <clipPath id="aea">
            <path fill="#fff" d="M0 0h24v24H0z"/>
        </clipPath>
    </defs>
</svg><svg fill="none" viewBox="0 0 24 24" id="bed" xmlns="http://www.w3.org/2000/svg">
    <path d="M23 12.25v-2c0-1.52-.98-2.5-2.5-2.5H9c-1.52 0-2.5.98-2.5 2.5v1.984l-4.865.011H1v-8.48c0-.25-.18-.475-.425-.51A.5.5 0 0 0 0 3.75v16.485c0 .25.18.475.425.51A.5.5 0 0 0 1 20.25v-3h22v2.985c0 .25.18.475.425.51A.5.5 0 0 0 24 20.25v-7c0-.68-.32-.995-1-1Zm-15.5-2c0-1.305.94-1.5 1.5-1.5h11.5c.56 0 1.5.195 1.5 1.5v2H7.5v-2Zm15.5 6H1v-3h22v3Z" fill="#0F1015"/>
    <path d="M3.773 6.68a2.777 2.777 0 1 0 0 5.554 2.777 2.777 0 0 0 0-5.554Zm0 4.664a1.887 1.887 0 1 1 0-3.774 1.887 1.887 0 0 1 0 3.774Z" fill="#0F1015"/>
</svg><svg fill="none" viewBox="0 0 24 24" id="chevron-left" xmlns="http://www.w3.org/2000/svg">
    <path fill-rule="evenodd" clip-rule="evenodd" d="M14.469 6.415a.75.75 0 0 1 .117 1.054L10.96 12l3.626 4.532a.75.75 0 0 1-1.172.937l-4-5a.75.75 0 0 1 0-.937l4-5a.75.75 0 0 1 1.055-.117Z" fill="#28303F"/>
</svg><svg fill="none" viewBox="0 0 20 20" id="chevron-right" xmlns="http://www.w3.org/2000/svg">
    <path fill-rule="evenodd" clip-rule="evenodd" d="M7.943 5.345a.625.625 0 0 0-.098.879L10.866 10l-3.02 3.776a.625.625 0 1 0 .975.781l3.334-4.167a.625.625 0 0 0 0-.78L8.82 5.443a.625.625 0 0 0-.878-.098Z" fill="#0F1015"/>
</svg><svg fill="none" viewBox="0 0 25 24" id="coin-dollar" xmlns="http://www.w3.org/2000/svg">
    <circle cx="12.5" cy="12" r="10" stroke="#fff" stroke-width="1.5"/>
    <path d="M14.5 10a2 2 0 1 0-2 2M12.5 12a2 2 0 1 1-2 2" stroke="#fff" stroke-width="1.5" stroke-linecap="round"/>
    <path d="M12.5 6.5V8M12.5 16v1.5" stroke="#fff" stroke-width="1.5" stroke-linecap="round" stroke-linejoin="round"/>
</svg><svg fill="none" viewBox="0 0 24 24" id="facebook" xmlns="http://www.w3.org/2000/svg">
    <path d="M18 3h-3a5 5 0 0 0-5 5v2H6v4h4v7h4v-7h4v-4h-4V8a1 1 0 0 1 1-1h3V3Z" fill="#3E54EB"/>
</svg><svg fill="none" viewBox="0 0 24 24" id="facebook-out" xmlns="http://www.w3.org/2000/svg">
    <path d="M18 3h-3a5 5 0 0 0-5 5v2H6v4h4v7h4v-7h4v-4h-4V8a1 1 0 0 1 1-1h3V3Z" stroke="#0F1015" stroke-width="1.5" stroke-linecap="round" stroke-linejoin="round"/>
</svg><svg fill="none" viewBox="0 0 20 20" id="heart" xmlns="http://www.w3.org/2000/svg">
    <path d="M10.638 3.919 10 4.604l-.637-.685c-1.761-1.892-4.615-1.892-6.376 0-1.76 1.891-1.76 4.958 0 6.849l5.738 6.165a1.716 1.716 0 0 0 2.55 0l5.738-6.165c1.76-1.891 1.76-4.958 0-6.85-1.76-1.89-4.615-1.89-6.375 0Z" stroke="#0F1015" stroke-width="1.5" stroke-linejoin="round"/>
</svg><svg fill="none" viewBox="0 0 24 24" id="home-setting" xmlns="http://www.w3.org/2000/svg">
    <path d="M21 17.967V10.15c0-1.21-.54-2.357-1.47-3.123l-5-4.118a3.975 3.975 0 0 0-5.06 0l-5 4.118A4.046 4.046 0 0 0 3 10.15v7.817C3 20.194 4.79 22 7 22h10c2.21 0 4-1.806 4-4.033Z" stroke="#3E54EB" stroke-width="1.5" stroke-linecap="round" stroke-linejoin="round"/>
    <path d="M12.424 10h-.848c-.469 0-.849.358-.849.8a.666.666 0 0 1-.985.585l-.045-.024c-.406-.221-.925-.09-1.159.293l-.424.692c-.234.383-.095.872.31 1.093a.639.639 0 0 1 0 1.122c-.405.22-.544.71-.31 1.093l.424.692c.234.383.753.514 1.16.293l.044-.024a.666.666 0 0 1 .985.585c0 .442.38.8.849.8h.848c.469 0 .849-.358.849-.8 0-.506.54-.827.985-.585l.045.024c.406.221.925.09 1.159-.293l.424-.692c.235-.383.095-.872-.31-1.093a.639.639 0 0 1 0-1.122c.405-.22.544-.71.31-1.093l-.424-.692c-.234-.383-.753-.514-1.16-.293l-.044.024a.666.666 0 0 1-.985-.585c0-.442-.38-.8-.849-.8Z" stroke="#3E54EB" stroke-width="1.5" stroke-linecap="round" stroke-linejoin="round"/>
    <path d="M12.75 14a.75.75 0 1 1-1.5 0 .75.75 0 0 1 1.5 0Z" fill="#3E54EB"/>
</svg><svg fill="none" viewBox="0 0 24 24" id="instagram-out" xmlns="http://www.w3.org/2000/svg">
    <rect x="2" y="2" width="20" height="20" rx="4" stroke="#0F1015" stroke-width="1.5"/>
    <circle cx="18" cy="6" r="1" fill="#0F1015"/>
    <circle cx="12" cy="12" r="5" stroke="#0F1015" stroke-width="1.5"/>
</svg><svg fill="none" viewBox="0 0 24 24" id="like" xmlns="http://www.w3.org/2000/svg">
    <path d="M6 8H4a2 2 0 0 0-2 2v9a2 2 0 0 0 2 2h2a2 2 0 0 0 2-2v-9a2 2 0 0 0-2-2Z" stroke="#3E54EB" stroke-width="1.5" stroke-linecap="round" stroke-linejoin="round"/>
    <path d="M15.877 21H12.21a4 4 0 0 1-2.219-.672l-1.547-1.031A1 1 0 0 1 8 18.465v-8.2a1 1 0 0 1 .132-.496L12 3h1.329c1.996 0 3.187 2.225 2.08 3.887L14 9h5.438a2 2 0 0 1 1.94 2.485l-1.62 6.485A4 4 0 0 1 15.877 21Z" stroke="#3E54EB" stroke-width="1.5" stroke-linecap="round" stroke-linejoin="round"/>
</svg><svg fill="none" viewBox="0 0 24 24" id="linkedin" xmlns="http://www.w3.org/2000/svg">
    <path fill-rule="evenodd" clip-rule="evenodd" d="M6 4a2 2 0 1 1-4 0 2 2 0 0 1 4 0Zm0 4.5V22H2V8.5h4Zm3 0h4v.841A6 6 0 0 1 21 15v7h-4v-7a2 2 0 1 0-4 0v7H9V8.5Z" fill="#3E54EB"/>
</svg><svg fill="none" viewBox="0 0 24 24" id="linkedln-out" xmlns="http://www.w3.org/2000/svg">
    <circle cx="4" cy="4" r="2" stroke="#0F1015" stroke-width="1.5"/>
    <path d="M2 8.5h4V22H2V8.5ZM9 22h4v-7a2 2 0 1 1 4 0v7h4v-7a6 6 0 0 0-8-5.659V8.5H9V22Zm0 0v-7" stroke="#0F1015" stroke-width="1.5" stroke-linejoin="round"/>
</svg><svg fill="none" viewBox="0 0 24 24" id="location" xmlns="http://www.w3.org/2000/svg">
    <circle cx="12" cy="11" r="3" stroke="#fff" stroke-width="1.5"/>
    <path d="M21 10.889C21 15.799 15.375 22 12 22s-9-6.202-9-11.111C3 5.979 7.03 2 12 2s9 3.98 9 8.889Z" stroke="#fff" stroke-width="1.5"/>
</svg><svg fill="none" viewBox="0 0 24 24" id="medal" xmlns="http://www.w3.org/2000/svg">
    <path d="M17 7.5V4a2 2 0 0 0-2-2H9a2 2 0 0 0-2 2v3.5M20 14a8 8 0 1 1-16 0 8 8 0 0 1 16 0ZM9.996 12.18l-1.244.188c-.72.108-1.007 1.028-.486 1.556l.9.912c.207.21.301.511.252.807l-.212 1.288c-.123.746.63 1.314 1.273.962l1.113-.608a.848.848 0 0 1 .816 0l1.113.608c.644.352 1.396-.216 1.273-.962l-.212-1.288a.935.935 0 0 1 .252-.807l.9-.912c.52-.528.233-1.448-.486-1.556l-1.244-.188a.88.88 0 0 1-.66-.5l-.557-1.171a.863.863 0 0 0-1.574 0l-.556 1.171a.88.88 0 0 1-.66.5Z" stroke="#3E54EB" stroke-width="1.5" stroke-linecap="round" stroke-linejoin="round"/>
</svg><svg fill="none" viewBox="0 0 24 24" id="phone" xmlns="http://www.w3.org/2000/svg">
    <path d="m15 16-.147.735a.75.75 0 0 0 .818-.4L15 16ZM8 9l-.335-.67a.75.75 0 0 0-.4.817L8 9Zm.354-.177.335.67-.335-.67Zm.963-2.532.696-.278-.696.278Zm-.814-2.034-.696.279.696-.279Zm11.24 11.24-.279.697.279-.697Zm-2.034-.813.278-.697-.278.697Zm-2.532.962.67.335-.67-.335ZM16.25 11a.75.75 0 0 0 1.5 0h-1.5Zm.445-1.53.693-.288-.693.287Zm-2.164-2.166.287-.692-.287.692ZM13 6.25a.75.75 0 0 0 0 1.5v-1.5ZM20.25 11a.75.75 0 0 0 1.5 0h-1.5Zm.141-3.061.693-.287-.693.287Zm-4.33-4.33.288-.693-.288.693ZM13 2.25a.75.75 0 0 0 0 1.5v-1.5Zm7.25 15.104V19h1.5v-1.646h-1.5ZM5 3.75h1.646v-1.5H5v1.5ZM15 16l.148-.735h-.001l-.014-.004a6.128 6.128 0 0 1-.343-.09 8.997 8.997 0 0 1-.995-.36c-.815-.35-1.851-.928-2.765-1.841l-1.06 1.06c1.086 1.087 2.3 1.759 3.235 2.16.468.2.872.335 1.162.42a7.586 7.586 0 0 0 .443.116l.028.007.01.001.003.001h.001L15 16Zm-3.97-3.03c-.913-.914-1.491-1.95-1.84-2.765a8.993 8.993 0 0 1-.436-1.27 3.287 3.287 0 0 1-.019-.082v-.002.001L8 9l-.735.148v.004a1.333 1.333 0 0 0 .009.038l.023.099c.02.083.05.2.093.345.085.29.22.693.42 1.161.401.935 1.073 2.149 2.16 3.235l1.06-1.06Zm-2.695-3.3.354-.176-.67-1.342-.354.177.67 1.342Zm1.678-3.657-.814-2.034-1.392.557.813 2.034 1.393-.557ZM20.02 14.8l-2.034-.814-.557 1.393 2.034.813.557-1.392Zm-5.515.51-.177.354 1.342.67.177-.354-1.342-.67Zm3.481-1.324a2.75 2.75 0 0 0-3.48 1.324l1.34.67a1.25 1.25 0 0 1 1.583-.601l.557-1.393ZM8.69 9.494a2.75 2.75 0 0 0 1.324-3.481L8.62 6.57a1.25 1.25 0 0 1-.601 1.582l.67 1.342ZM6.646 3.75c.511 0 .97.311 1.16.786L9.2 3.979A2.75 2.75 0 0 0 6.646 2.25v1.5ZM21.75 17.354a2.75 2.75 0 0 0-1.729-2.553l-.557 1.393c.475.19.786.649.786 1.16h1.5ZM19 20.25C10.578 20.25 3.75 13.422 3.75 5h-1.5c0 9.25 7.5 16.75 16.75 16.75v-1.5Zm0 1.5A2.75 2.75 0 0 0 21.75 19h-1.5c0 .69-.56 1.25-1.25 1.25v1.5ZM3.75 5c0-.69.56-1.25 1.25-1.25v-1.5A2.75 2.75 0 0 0 2.25 5h1.5Zm14 6a4.75 4.75 0 0 0-.362-1.818l-1.385.574c.163.395.247.817.247 1.244h1.5Zm-.362-1.818a4.751 4.751 0 0 0-1.03-1.54l-1.06 1.06c.302.302.541.66.705 1.054l1.385-.574Zm-1.03-1.54a4.75 4.75 0 0 0-1.54-1.03l-.574 1.385a3.25 3.25 0 0 1 1.054.705l1.06-1.06Zm-1.54-1.03A4.75 4.75 0 0 0 13 6.25v1.5c.427 0 .85.084 1.244.247l.574-1.385ZM21.75 11c0-1.15-.226-2.287-.666-3.348l-1.386.574c.364.88.552 1.822.552 2.774h1.5Zm-.666-3.348a8.75 8.75 0 0 0-1.897-2.84l-1.06 1.061a7.25 7.25 0 0 1 1.571 2.353l1.386-.574Zm-1.897-2.84a8.75 8.75 0 0 0-2.838-1.896l-.575 1.386a7.25 7.25 0 0 1 2.353 1.571l1.06-1.06ZM16.35 2.917A8.75 8.75 0 0 0 13 2.25v1.5a7.25 7.25 0 0 1 2.774.552l.575-1.386Z" fill="#3E54EB"/>
</svg><svg fill="none" viewBox="0 0 24 24" id="play" xmlns="http://www.w3.org/2000/svg">
    <path d="M16.961 13.736 8.992 18.29C7.66 19.052 6 18.09 6 16.554V7.446C6 5.911 7.659 4.948 8.992 5.71l7.97 4.554c1.343.767 1.343 2.705 0 3.472Z" stroke="#fff" stroke-width="1.5" stroke-linejoin="round"/>
</svg><svg fill="none" viewBox="0 0 24 24" id="plus" xmlns="http://www.w3.org/2000/svg">
    <path fill-rule="evenodd" clip-rule="evenodd" d="M12.75 6a.75.75 0 0 0-1.5 0v5.25H6a.75.75 0 0 0 0 1.5h5.25V18a.75.75 0 0 0 1.5 0v-5.25H18a.75.75 0 0 0 0-1.5h-5.25V6Z" fill="#0F1015"/>
</svg><svg fill="none" viewBox="0 0 24 24" id="search-normal" xmlns="http://www.w3.org/2000/svg">
    <path d="M11.5 21.75c-5.65 0-10.25-4.6-10.25-10.25S5.85 1.25 11.5 1.25s10.25 4.6 10.25 10.25-4.6 10.25-10.25 10.25Zm0-19c-4.83 0-8.75 3.93-8.75 8.75s3.92 8.75 8.75 8.75 8.75-3.93 8.75-8.75-3.92-8.75-8.75-8.75ZM22 22.75c-.19 0-.38-.07-.53-.22l-2-2a.754.754 0 0 1 0-1.06c.29-.29.77-.29 1.06 0l2 2c.29.29.29.77 0 1.06-.15.15-.34.22-.53.22Z" fill="#3E54EB"/>
</svg><svg fill="none" viewBox="0 0 18 18" id="share" xmlns="http://www.w3.org/2000/svg">
    <g clip-path="url(#axa)">
        <path d="M6.473 7.826a2.625 2.625 0 1 0 0 2.348m0-2.348c.177.353.277.752.277 1.174 0 .422-.1.82-.277 1.174m0-2.348 5.054-2.527m-5.054 4.875 5.054 2.527m0-7.402a2.625 2.625 0 1 0 4.695-2.348 2.625 2.625 0 0 0-4.695 2.348Zm0 7.402a2.625 2.625 0 1 0 4.697 2.348 2.625 2.625 0 0 0-4.697-2.348Z" stroke="#0F1015" stroke-width="1.5" stroke-linecap="round"/>
    </g>
    <defs>
        <clipPath id="axa">
            <path fill="#fff" d="M0 0h18v18H0z"/>
        </clipPath>
    </defs>
</svg><svg fill="none" viewBox="0 0 24 24" id="users" xmlns="http://www.w3.org/2000/svg">
    <ellipse cx="10" cy="17.5" rx="7" ry="3.5" stroke="#3E54EB" stroke-width="1.5" stroke-linejoin="round"/>
    <circle cx="10" cy="7" r="4" stroke="#3E54EB" stroke-width="1.5" stroke-linejoin="round"/>
    <path fill-rule="evenodd" clip-rule="evenodd" d="M15.045 10.25a6.028 6.028 0 0 1-1.168 1.33 3.75 3.75 0 1 0 1.465-7.314c.266.519.46 1.081.565 1.674a2.25 2.25 0 0 1-.862 4.31ZM19 17.556a3.64 3.64 0 0 1-.5 1.755 8.662 8.662 0 0 0 1.031-.35c.597-.25 1.13-.565 1.524-.953.397-.392.695-.901.695-1.508 0-.606-.298-1.116-.695-1.507-.394-.389-.927-.704-1.524-.953-1.022-.426-2.34-.7-3.781-.771 1.002.509 1.82 1.148 2.385 1.876.298.083.572.177.82.28.488.203.834.427 1.047.636.21.207.248.355.248.44 0 .083-.038.23-.248.438-.206.203-.537.42-1.002.617Z" fill="#3E54EB"/>
</svg><svg fill="none" viewBox="0 0 24 24" id="users2" xmlns="http://www.w3.org/2000/svg">
    <ellipse cx="12" cy="16.5" rx="6" ry="2.5" stroke="#3E54EB" stroke-width="1.5" stroke-linejoin="round"/>
    <circle cx="12" cy="8" r="3" stroke="#3E54EB" stroke-width="1.5" stroke-linejoin="round"/>
    <path fill-rule="evenodd" clip-rule="evenodd" d="M6.445 13.262c-1.238.051-2.376.274-3.26.628-.504.201-.963.46-1.307.787-.347.328-.628.774-.628 1.323 0 .55.281.996.628 1.324.344.326.803.585 1.308.787.5.2 1.081.358 1.716.467-.494-.532-.803-1.127-.882-1.758a5.336 5.336 0 0 1-.277-.102c-.4-.16-.674-.332-.835-.484-.158-.15-.158-.23-.158-.234 0-.004 0-.084.158-.233.161-.153.435-.325.835-.485.203-.08.429-.155.675-.22.414-.69 1.116-1.306 2.027-1.8ZM19.98 16.82c-.078.63-.388 1.226-.882 1.758a8.564 8.564 0 0 0 1.716-.467c.505-.202.964-.461 1.309-.787.346-.328.627-.775.627-1.324s-.281-.995-.627-1.323c-.345-.326-.804-.585-1.309-.787-.883-.354-2.02-.577-3.26-.628.912.494 1.615 1.11 2.028 1.8.246.065.472.14.675.22.4.16.674.332.835.485.158.15.158.229.158.233 0 .005 0 .084-.158.234-.161.152-.435.324-.835.484-.088.035-.18.07-.277.102ZM16.515 10.152a5.01 5.01 0 0 1-.852 1.252 2.75 2.75 0 1 0 1.029-5.136c.172.465.276.963.302 1.482H17a1.25 1.25 0 1 1-.485 2.402ZM7.308 6.267a2.75 2.75 0 1 0 1.029 5.136 5.01 5.01 0 0 1-.851-1.25 1.25 1.25 0 1 1-.48-2.402 4.98 4.98 0 0 1 .302-1.484Z" fill="#3E54EB"/>
</svg><svg fill="none" viewBox="0 0 24 24" id="x" xmlns="http://www.w3.org/2000/svg">
    <path d="M15.286 4c-2.104 0-3.81 1.79-3.81 4 0 .334.04.658.113.968-2.023 0-5.07-.409-7.615-2.958-.338-.34-.962-.113-.939.366.378 7.687 3.67 9.929 5.365 10.068-1.095 1.082-2.685 1.935-4.285 2.318-.423.101-.527.564-.114.698 1.145.372 2.784.516 3.666.54 6.241 0 11.313-5.253 11.426-11.778.82-.533 1.345-1.69 1.64-2.51.071-.199-.256-.431-.452-.35-.612.255-1.389.315-2.05.1C17.53 4.569 16.471 4 15.285 4Z" fill="#3E54EB"/>
</svg><svg fill="none" viewBox="0 0 24 24" id="x-out" xmlns="http://www.w3.org/2000/svg">
    <path d="M15.286 4c-2.104 0-3.81 1.79-3.81 4 0 .334.04.658.113.968C9.3 8.968 5.7 8.444 3 4.888c0 8.89 3.6 11.408 5.4 11.556-1.35 1.334-3.454 2.32-5.4 2.506.837.76 3.46 1.017 4.667 1.05 6.241 0 11.314-5.253 11.426-11.778C20.29 7.444 20.86 5.334 21 4.89c-.583.612-1.8.889-2.77.573C17.532 4.569 16.472 4 15.286 4Z" stroke="#0F1015" stroke-width="1.5" stroke-linejoin="round"/>
</svg></svg>