<?xml version="1.0" encoding="utf-8"?><svg viewBox="0 0 24 24" xmlns="http://www.w3.org/2000/svg" xmlns:xlink="http://www.w3.org/1999/xlink"><style>:root>svg{display:none}:root>svg:target{display:block}</style><svg fill="none" viewBox="0 0 24 24" id="arrow-right" xmlns="http://www.w3.org/2000/svg">
    <path fill-rule="evenodd" clip-rule="evenodd" d="M18.53 11.47a.75.75 0 0 1 0 1.06l-4 4a.75.75 0 1 1-1.06-1.06l2.72-2.72H6a.75.75 0 0 1 0-1.5h10.19l-2.72-2.72a.75.75 0 0 1 1.06-1.06l4 4Z" fill="#fff"/>
</svg><svg fill="none" viewBox="0 0 24 24" id="badge-percent" xmlns="http://www.w3.org/2000/svg">
    <path d="M10 9a1 1 0 1 1-2 0 1 1 0 0 1 2 0ZM16 15a1 1 0 1 1-2 0 1 1 0 0 1 2 0Z" fill="#3E54EB"/>
    <path d="M10.054 2.658a3 3 0 0 1 3.892 0l.683.582a3 3 0 0 0 1.707.707l.894.071a3 3 0 0 1 2.752 2.752l.071.894a3 3 0 0 0 .707 1.707l.582.683a3 3 0 0 1 0 3.892l-.582.682a3 3 0 0 0-.707 1.707l-.071.895a3 3 0 0 1-2.752 2.751l-.894.072a3 3 0 0 0-1.707.707l-.683.582a3 3 0 0 1-3.892 0l-.682-.582a3 3 0 0 0-1.708-.707l-.894-.072A3 3 0 0 1 4.02 17.23l-.072-.893a3 3 0 0 0-.707-1.708l-.582-.682a3 3 0 0 1 0-3.892l.582-.683a3 3 0 0 0 .707-1.707l.072-.894A3 3 0 0 1 6.77 4.018l.894-.071a3 3 0 0 0 1.708-.707l.682-.582Z" stroke="#3E54EB" stroke-width="1.5"/>
    <path d="m9 15 6-6" stroke="#3E54EB" stroke-width="1.5" stroke-linecap="round"/>
</svg><svg fill="none" viewBox="0 0 24 24" id="facebook" xmlns="http://www.w3.org/2000/svg">
    <path d="M18 3h-3a5 5 0 0 0-5 5v2H6v4h4v7h4v-7h4v-4h-4V8a1 1 0 0 1 1-1h3V3Z" fill="#3E54EB"/>
</svg><svg fill="none" viewBox="0 0 20 20" id="heart" xmlns="http://www.w3.org/2000/svg">
    <path d="M10.638 3.919 10 4.604l-.637-.685c-1.761-1.892-4.615-1.892-6.376 0-1.76 1.891-1.76 4.958 0 6.849l5.738 6.165a1.716 1.716 0 0 0 2.55 0l5.738-6.165c1.76-1.891 1.76-4.958 0-6.85-1.76-1.89-4.615-1.89-6.375 0Z" stroke="#0F1015" stroke-width="1.5" stroke-linejoin="round"/>
</svg><svg fill="none" viewBox="0 0 24 24" id="home-setting" xmlns="http://www.w3.org/2000/svg">
    <path d="M21 17.967V10.15c0-1.21-.54-2.357-1.47-3.123l-5-4.118a3.975 3.975 0 0 0-5.06 0l-5 4.118A4.046 4.046 0 0 0 3 10.15v7.817C3 20.194 4.79 22 7 22h10c2.21 0 4-1.806 4-4.033Z" stroke="#3E54EB" stroke-width="1.5" stroke-linecap="round" stroke-linejoin="round"/>
    <path d="M12.424 10h-.848c-.469 0-.849.358-.849.8a.666.666 0 0 1-.985.585l-.045-.024c-.406-.221-.925-.09-1.159.293l-.424.692c-.234.383-.095.872.31 1.093a.639.639 0 0 1 0 1.122c-.405.22-.544.71-.31 1.093l.424.692c.234.383.753.514 1.16.293l.044-.024a.666.666 0 0 1 .985.585c0 .442.38.8.849.8h.848c.469 0 .849-.358.849-.8 0-.506.54-.827.985-.585l.045.024c.406.221.925.09 1.159-.293l.424-.692c.235-.383.095-.872-.31-1.093a.639.639 0 0 1 0-1.122c.405-.22.544-.71.31-1.093l-.424-.692c-.234-.383-.753-.514-1.16-.293l-.044.024a.666.666 0 0 1-.985-.585c0-.442-.38-.8-.849-.8Z" stroke="#3E54EB" stroke-width="1.5" stroke-linecap="round" stroke-linejoin="round"/>
    <path d="M12.75 14a.75.75 0 1 1-1.5 0 .75.75 0 0 1 1.5 0Z" fill="#3E54EB"/>
</svg><svg fill="none" viewBox="0 0 24 24" id="linkedin" xmlns="http://www.w3.org/2000/svg">
    <path fill-rule="evenodd" clip-rule="evenodd" d="M6 4a2 2 0 1 1-4 0 2 2 0 0 1 4 0Zm0 4.5V22H2V8.5h4Zm3 0h4v.841A6 6 0 0 1 21 15v7h-4v-7a2 2 0 1 0-4 0v7H9V8.5Z" fill="#3E54EB"/>
</svg><svg fill="none" viewBox="0 0 24 24" id="medal" xmlns="http://www.w3.org/2000/svg">
    <path d="M17 7.5V4a2 2 0 0 0-2-2H9a2 2 0 0 0-2 2v3.5M20 14a8 8 0 1 1-16 0 8 8 0 0 1 16 0ZM9.996 12.18l-1.244.188c-.72.108-1.007 1.028-.486 1.556l.9.912c.207.21.301.511.252.807l-.212 1.288c-.123.746.63 1.314 1.273.962l1.113-.608a.848.848 0 0 1 .816 0l1.113.608c.644.352 1.396-.216 1.273-.962l-.212-1.288a.935.935 0 0 1 .252-.807l.9-.912c.52-.528.233-1.448-.486-1.556l-1.244-.188a.88.88 0 0 1-.66-.5l-.557-1.171a.863.863 0 0 0-1.574 0l-.556 1.171a.88.88 0 0 1-.66.5Z" stroke="#3E54EB" stroke-width="1.5" stroke-linecap="round" stroke-linejoin="round"/>
</svg><svg fill="none" viewBox="0 0 24 24" id="plus" xmlns="http://www.w3.org/2000/svg">
    <path fill-rule="evenodd" clip-rule="evenodd" d="M12.75 6a.75.75 0 0 0-1.5 0v5.25H6a.75.75 0 0 0 0 1.5h5.25V18a.75.75 0 0 0 1.5 0v-5.25H18a.75.75 0 0 0 0-1.5h-5.25V6Z" fill="#0F1015"/>
</svg><svg fill="none" viewBox="0 0 18 18" id="share" xmlns="http://www.w3.org/2000/svg">
    <g clip-path="url(#ia)">
        <path d="M6.473 7.826a2.625 2.625 0 1 0 0 2.348m0-2.348c.177.353.277.752.277 1.174 0 .422-.1.82-.277 1.174m0-2.348 5.054-2.527m-5.054 4.875 5.054 2.527m0-7.402a2.625 2.625 0 1 0 4.695-2.348 2.625 2.625 0 0 0-4.695 2.348Zm0 7.402a2.625 2.625 0 1 0 4.697 2.348 2.625 2.625 0 0 0-4.697-2.348Z" stroke="#0F1015" stroke-width="1.5" stroke-linecap="round"/>
    </g>
    <defs>
        <clipPath id="ia">
            <path fill="#fff" d="M0 0h18v18H0z"/>
        </clipPath>
    </defs>
</svg><svg fill="none" viewBox="0 0 24 24" id="x" xmlns="http://www.w3.org/2000/svg">
    <path d="M15.286 4c-2.104 0-3.81 1.79-3.81 4 0 .334.04.658.113.968-2.023 0-5.07-.409-7.615-2.958-.338-.34-.962-.113-.939.366.378 7.687 3.67 9.929 5.365 10.068-1.095 1.082-2.685 1.935-4.285 2.318-.423.101-.527.564-.114.698 1.145.372 2.784.516 3.666.54 6.241 0 11.313-5.253 11.426-11.778.82-.533 1.345-1.69 1.64-2.51.071-.199-.256-.431-.452-.35-.612.255-1.389.315-2.05.1C17.53 4.569 16.471 4 15.285 4Z" fill="#3E54EB"/>
</svg></svg>